<svg id="Capa_1" enable-background="new 0 0 510.001 510.001" viewBox="0 0 510.001 510.001" xmlns="http://www.w3.org/2000/svg"><g><g><g><g><path d="m35.13 353.763c9.04 10.54 10.444 25.639 3.501 37.665l-15.031 26.033 55.368 31.967 15.03-26.033c6.943-12.026 20.72-18.36 34.369-15.801 13.648 2.559 27.426-3.775 34.369-15.801l24.274-42.044-131.107-75.695-24.274 42.044c-6.943 12.026-5.54 27.125 3.501 37.665z" fill="#67ccd1"/></g><g><path d="m93.207 298.612c0-1.003.016-2.001.038-2.999l-37.341-21.559-24.274 42.044c-6.943 12.026-5.54 27.124 3.501 37.665 9.04 10.54 10.444 25.639 3.5 37.664l-15.031 26.034 55.368 31.966 15.03-26.033c6.943-12.026 20.72-18.36 34.369-15.801 6.475 1.214 12.97.406 18.759-2.042-32.711-24.229-53.919-63.105-53.919-106.939z" fill="#27a2cc"/></g><g><path d="m206.608 350.337 16.269-28.178c2.565-4.443 1.043-10.124-3.4-12.69l-144.924-83.671c-4.443-2.565-10.124-1.043-12.69 3.4l-16.27 28.18c-2.565 4.442-1.043 10.122 3.399 12.687l144.925 83.673c4.444 2.565 10.126 1.042 12.691-3.401z" fill="#67ccd1"/></g><g><path d="m105.149 243.463-30.596-17.665c-4.443-2.565-10.124-1.043-12.69 3.4l-16.27 28.18c-2.564 4.442-1.043 10.122 3.399 12.687l44.252 25.549c.412-18.573 4.629-36.206 11.905-52.151z" fill="#27a2cc"/></g></g><g><g><path d="m472.283 393.006 14.119 24.455-55.368 31.967-14.119-24.455c-20.915 12.075-47.658 4.909-59.733-16.005l-34.19-59.218 131.107-75.694 34.19 59.218c12.074 20.913 4.908 47.657-16.006 59.732z" fill="#67ccd1"/></g><g><path d="m374.196 320.186-51.205 29.563 34.19 59.218c12.075 20.915 38.818 28.08 59.733 16.005l14.119 24.455 55.368-31.966-13.384-23.183c-43.747-7.035-80.357-35.399-98.821-74.092z" fill="#27a2cc"/></g><g><path d="m303.394 350.337-16.269-28.178c-2.565-4.443-1.043-10.124 3.4-12.69l144.923-83.671c4.443-2.565 10.124-1.043 12.69 3.4l16.27 28.18c2.565 4.442 1.043 10.122-3.399 12.687l-144.925 83.673c-4.444 2.565-10.125 1.042-12.69-3.401z" fill="#67ccd1"/></g><g><path d="m361.418 268.54-70.892 40.93c-4.443 2.565-5.965 8.247-3.4 12.69l16.268 28.178c2.565 4.443 8.247 5.965 12.69 3.4l58.113-33.552c-7.517-15.752-12.021-33.215-12.779-51.646z" fill="#27a2cc"/></g></g><g><g><path d="m339.913 94.913c0 46.896-38.017 84.913-84.913 84.913s-84.913-38.017-84.913-84.913 38.018-84.913 84.914-84.913 84.912 38.017 84.912 84.913z" fill="#fd7da0"/></g><g><path d="m312.394 122.242c-46.896 0-84.913-38.017-84.913-84.912 0-8.3 1.213-16.314 3.433-23.896-35.257 10.325-61.016 42.884-61.016 81.48 0 46.896 38.017 84.912 84.912 84.912 38.595 0 71.155-25.759 81.48-61.016-7.583 2.219-15.596 3.432-23.896 3.432z" fill="#db4b86"/></g></g></g><g><g><g><path d="m103.268 252.384c-1.696 0-3.415-.432-4.99-1.341-4.783-2.761-6.422-8.877-3.66-13.66l34.533-59.813c2.76-4.783 8.875-6.422 13.66-3.66 4.783 2.761 6.422 8.877 3.66 13.66l-34.533 59.813c-1.851 3.207-5.214 5.001-8.67 5.001z" fill="#67ccd1"/></g><g><path d="m190.742 302.887c-1.696 0-3.415-.432-4.99-1.341-4.783-2.761-6.422-8.877-3.66-13.66l34.533-59.813c2.76-4.783 8.876-6.422 13.66-3.66 4.783 2.761 6.422 8.877 3.66 13.66l-34.533 59.813c-1.852 3.207-5.214 5.001-8.67 5.001z" fill="#67ccd1"/></g></g><g><g fill="#052a75"><path d="m505.803 495-33.426-57.896 19.024-10.984c4.783-2.761 6.422-8.877 3.66-13.66l-9.585-16.603c19.184-16.501 24.576-44.887 11.472-67.585l-29.244-50.652c3.573-2.587 6.134-6.287 7.291-10.607 1.333-4.976.649-10.174-1.927-14.635l-16.27-28.181c-2.576-4.462-6.736-7.653-11.713-8.987-4.979-1.333-10.176-.648-14.637 1.927l-144.924 83.673c-9.209 5.318-12.376 17.138-7.06 26.349l16.269 28.178c3.569 6.181 10.066 9.64 16.738 9.64 2.63 0 5.286-.548 7.802-1.669l29.248 50.659c13.104 22.697 40.382 32.221 64.267 23.857l9.586 16.603c1.326 2.297 3.51 3.973 6.072 4.659.852.228 1.721.341 2.588.341 1.74 0 3.467-.455 5-1.34l19.023-10.983 33.426 57.896c1.853 3.208 5.213 5.001 8.67 5.001 1.696 0 3.416-.432 4.99-1.341 4.784-2.761 6.422-8.877 3.66-13.66zm-194.105-150.278-15.558-26.947 143.693-82.961 15.558 26.947zm122.996 91.046-9.119-15.795c-2.762-4.782-8.876-6.421-13.66-3.66-16.105 9.298-36.773 3.761-46.073-12.345l-29.189-50.558 113.786-65.694 29.19 50.558c9.299 16.105 3.761 36.774-12.345 46.073-4.783 2.761-6.422 8.877-3.66 13.66l9.118 15.795z"/><path d="m224.476 300.81-144.923-83.671c-4.463-2.577-9.659-3.262-14.638-1.928-4.977 1.333-9.137 4.525-11.713 8.987l-16.27 28.18c-2.576 4.461-3.26 9.659-1.927 14.635 1.157 4.32 3.718 8.02 7.291 10.607l-19.329 33.478c-9.049 15.674-7.212 35.436 4.57 49.174 6.268 7.307 7.244 17.818 2.432 26.154l-15.03 26.033c-2.762 4.783-1.123 10.899 3.66 13.66l19.023 10.983-33.424 57.898c-2.762 4.783-1.123 10.899 3.66 13.66 1.575.909 3.294 1.341 4.99 1.341 3.456 0 6.818-1.793 8.67-5.001l33.426-57.896 19.023 10.983c1.533.885 3.26 1.34 5 1.34.866 0 1.736-.113 2.588-.341 2.562-.687 4.746-2.362 6.072-4.659l15.03-26.033c4.813-8.335 14.402-12.744 23.866-10.972 17.786 3.336 35.821-4.955 44.872-20.629l19.332-33.484c2.516 1.121 5.171 1.669 7.802 1.669 6.672 0 13.169-3.459 16.738-9.64l16.27-28.179c5.317-9.212 2.149-21.032-7.061-26.349zm-70.4 85.983c-4.812 8.336-14.399 12.747-23.866 10.972-17.788-3.339-35.821 4.955-44.872 20.629l-10.03 17.373-38.048-21.967 10.03-17.373c9.049-15.675 7.212-35.437-4.57-49.174-6.267-7.307-7.244-17.818-2.432-26.154l19.274-33.384 113.786 65.695zm44.227-42.071-143.693-82.961 15.558-26.947 143.693 82.961z"/><path d="m349.913 94.913c0-52.335-42.577-94.913-94.912-94.913s-94.912 42.578-94.912 94.913 42.577 94.913 94.912 94.913 94.912-42.578 94.912-94.913zm-94.912 74.912c-41.307 0-74.912-33.605-74.912-74.913s33.605-74.912 74.912-74.912 74.912 33.605 74.912 74.913-33.606 74.912-74.912 74.912z"/></g><path d="m269.048 94.817 19.948-19.948c3.905-3.905 3.905-10.237 0-14.143-3.906-3.905-10.236-3.905-14.143 0l-19.948 19.948-19.948-19.948c-3.906-3.905-10.236-3.905-14.143 0-3.905 3.905-3.905 10.237 0 14.143l19.948 19.948-19.948 19.948c-3.905 3.905-3.905 10.237 0 14.143 1.953 1.953 4.512 2.929 7.071 2.929s5.118-.976 7.071-2.929l19.948-19.948 19.948 19.948c1.953 1.953 4.512 2.929 7.071 2.929s5.118-.976 7.071-2.929c3.905-3.905 3.905-10.237 0-14.143z" fill="#fff"/></g></g></g><g/><g/><g/><g/><g/><g/><g/><g/><g/><g/><g/><g/><g/><g/><g/></svg>