<svg id="Capa_1" enable-background="new 0 0 510 510" viewBox="0 0 510 510" xmlns="http://www.w3.org/2000/svg"><g><g><g><g><path d="m65 352.961c11.328 3.985 18.907 14.686 18.907 26.694v22.057h55.288v-22.057c0-12.008 7.579-22.709 18.907-26.694 11.328-3.985 18.907-14.686 18.907-26.694v-45.473h-130.917v45.473c0 12.008 7.58 22.709 18.908 26.694z" fill="#67ccd1"/></g><g><path d="m46.092 280.795v45.472c0 .581.033 1.157.068 1.731h130.781c.035-.575.068-1.15.068-1.731v-45.472z" fill="#27a2cc"/></g><g><path d="m195.056 272.761v-31.137c0-4.437-3.597-8.033-8.033-8.033h-150.943c-4.437 0-8.033 3.597-8.033 8.033v31.139c0 4.436 3.596 8.031 8.031 8.031h150.945c4.436.001 8.033-3.596 8.033-8.033z" fill="#67ccd1"/></g></g><g><g><path d="m290.963 255h173.073c19.863 0 35.964-16.101 35.964-35.963v-173.073c0-19.862-16.101-35.964-35.963-35.964h-173.074c-19.862 0-35.963 16.102-35.963 35.964v173.073c0 19.862 16.101 35.963 35.963 35.963z" fill="#67ccd1"/></g><g><path d="m344.083 39.065c0-9.897.813-19.603 2.351-29.065h-55.471c-19.862 0-35.963 16.102-35.963 35.964v173.073c0 19.862 16.101 35.963 35.963 35.963h173.073c19.863 0 35.964-16.101 35.964-35.963v-1.808c-88.005-11.655-155.917-86.974-155.917-178.164z" fill="#27a2cc"/></g><g><path d="m345.418 61.062c9.791-4.404 20.65-6.854 32.082-6.854 43.24 0 78.293 35.053 78.293 78.293 0 23.619-10.458 44.795-26.997 59.149l-44.065-8.144-55.468-56.506z" fill="#fff"/></g><g><path d="m345.427 61.083c-27.241 12.253-46.22 39.61-46.22 71.417 0 43.24 35.053 78.292 78.293 78.292 19.621 0 37.542-7.234 51.281-19.16-44.967-28.067-76.623-75.455-83.354-130.549z" fill="#d2dcfd"/></g></g><g><path d="m169.752 43.942-33.941-33.942-24.26 24.26-24.26-24.26-33.941 33.942 24.259 24.259-24.259 24.26 33.941 33.942 24.26-24.26 24.26 24.26 33.941-33.942-24.26-24.26z" fill="#fd7da0"/></g></g><g><g><path d="m73.551 243.591c-5.523 0-10-4.477-10-10v-63.188c0-5.523 4.477-10 10-10s10 4.477 10 10v63.188c0 5.523-4.477 10-10 10z" fill="#67ccd1"/></g><g><path d="m149.551 243.591c-5.523 0-10-4.477-10-10v-63.188c0-5.523 4.477-10 10-10s10 4.477 10 10v63.188c0 5.523-4.477 10-10 10z" fill="#67ccd1"/></g><g fill="#052a75"><path d="m46.278 99.532 33.941 33.941c3.905 3.905 10.237 3.905 14.143 0l17.188-17.189 17.188 17.189c1.953 1.953 4.512 2.929 7.071 2.929s5.119-.976 7.071-2.929l33.941-33.941c3.905-3.905 3.905-10.237 0-14.143l-17.189-17.188 17.189-17.188c3.905-3.905 3.905-10.237 0-14.143l-33.939-33.941c-3.905-3.905-10.237-3.905-14.143 0l-17.188 17.189-17.189-17.189c-3.905-3.905-10.237-3.905-14.143 0l-33.941 33.941c-3.905 3.905-3.905 10.237 0 14.143l17.189 17.188-17.189 17.189c-3.905 3.905-3.905 10.237 0 14.142zm38.403-38.402-17.189-17.188 19.799-19.799 17.188 17.189c3.905 3.905 10.237 3.905 14.143 0l17.188-17.189 19.799 19.799-17.188 17.188c-3.905 3.905-3.905 10.237 0 14.143l17.189 17.188-19.799 19.799-17.188-17.189c-1.953-1.953-4.512-2.929-7.071-2.929s-5.119.976-7.071 2.929l-17.19 17.189-19.799-19.799 17.189-17.188c3.905-3.906 3.905-10.238 0-14.143z"/><path d="m464.037 0h-173.073c-25.345 0-45.964 20.619-45.964 45.964v173.073c0 25.344 20.619 45.963 45.964 45.963h173.073c25.344 0 45.963-20.619 45.963-45.963v-173.073c0-25.345-20.619-45.964-45.963-45.964zm25.963 219.037c0 14.316-11.647 25.963-25.963 25.963h-173.073c-14.317 0-25.964-11.647-25.964-25.963v-173.073c0-14.317 11.647-25.964 25.964-25.964h173.073c14.316 0 25.963 11.647 25.963 25.964z"/><path d="m410.696 114.503c-5.523 0-10 4.477-10 10v15.994c0 5.523 4.477 10 10 10s10-4.477 10-10v-15.994c0-5.523-4.477-10-10-10z"/><path d="m344.304 114.503c-5.523 0-10 4.477-10 10v15.994c0 5.523 4.477 10 10 10s10-4.477 10-10v-15.994c0-5.523-4.477-10-10-10z"/><path d="m500 490h-462c-9.925 0-18-8.075-18-18s8.075-18 18-18h54.501c16.018 0 29.049-13.031 29.049-29.049v-13.239h17.644c5.523 0 10-4.477 10-10v-22.057c0-7.752 4.913-14.688 12.226-17.26 15.306-5.384 25.589-19.903 25.589-36.127v-35.473h.013c9.943 0 18.033-8.09 18.033-18.033v-31.137c0-9.943-8.09-18.033-18.033-18.033h-150.942c-9.943 0-18.033 8.09-18.033 18.033v31.139c0 9.942 8.089 18.031 18.031 18.031h.015v35.472c0 16.225 10.283 30.744 25.589 36.128 7.312 2.572 12.226 9.508 12.226 17.26v22.057c0 5.523 4.477 10 10 10h17.644v13.239c0 4.99-4.06 9.049-9.049 9.049h-54.503c-20.953 0-38 17.047-38 38s17.047 38 38 38h462c5.523 0 10-4.477 10-10s-4.477-10-10-10zm-461.953-219.205v-27.204h147.009v27.204zm55.86 120.917v-12.057c0-16.225-10.283-30.743-25.589-36.127-7.312-2.572-12.226-9.509-12.226-17.261v-35.472h110.917v35.473c0 7.752-4.913 14.688-12.226 17.26-15.306 5.384-25.589 19.903-25.589 36.127v12.057z"/></g></g></g><g/><g/><g/><g/><g/><g/><g/><g/><g/><g/><g/><g/><g/><g/><g/></svg>