<svg id="Capa_1" enable-background="new 0 0 510 510" viewBox="0 0 510 510" xmlns="http://www.w3.org/2000/svg"><g><g><g><g><path d="m10 319.272h84v158.656h-84z" fill="#b1d952"/></g><g><path d="m145.333 247.824h84v230.104h-84z" fill="#b1d952"/></g><g><path d="m280.667 176.376h84v301.552h-84z" fill="#b1d952"/></g><g><path d="m416 104.928h84v373h-84z" fill="#b1d952"/></g></g><g><g><circle cx="91.1" cy="113.172" fill="#fd7da0" r="81.1"/></g><g><path d="m157.548 149.598c-44.79 0-81.1-36.31-81.1-81.1 0-13.002 3.077-25.279 8.515-36.171-41.92 3.14-74.963 38.122-74.963 80.845 0 44.79 36.31 81.1 81.1 81.1 31.788 0 59.288-18.299 72.585-44.929-2.028.152-4.07.255-6.137.255z" fill="#db4b86"/></g></g></g><g><path d="m105.152 113.081 18.735-18.735c3.905-3.905 3.905-10.237 0-14.143-3.905-3.904-10.237-3.904-14.143 0l-18.735 18.736-18.735-18.735c-3.905-3.904-10.237-3.904-14.143 0-3.905 3.905-3.905 10.237 0 14.143l18.735 18.735-18.735 18.735c-3.905 3.905-3.905 10.237 0 14.143 1.953 1.953 4.512 2.929 7.071 2.929s5.119-.976 7.071-2.929l18.735-18.735 18.735 18.735c1.953 1.953 4.512 2.929 7.071 2.929s5.119-.976 7.071-2.929c3.905-3.905 3.905-10.237 0-14.143z" fill="#fff"/><g fill="#052a75"><path d="m91.1 204.272c50.233 0 91.1-40.867 91.1-91.1s-40.867-91.1-91.1-91.1-91.1 40.867-91.1 91.1 40.867 91.1 91.1 91.1zm0-162.2c39.205 0 71.1 31.896 71.1 71.1s-31.896 71.1-71.1 71.1-71.1-31.895-71.1-71.1 31.896-71.1 71.1-71.1z"/><path d="m94 309.272h-84c-5.523 0-10 4.477-10 10v158.655c0 5.523 4.477 10 10 10h84c5.523 0 10-4.477 10-10v-158.655c0-5.522-4.477-10-10-10zm-10 158.656h-64v-138.656h64z"/><path d="m229.333 237.824h-84c-5.523 0-10 4.477-10 10v230.104c0 5.523 4.477 10 10 10h84c5.523 0 10-4.477 10-10v-230.104c0-5.523-4.477-10-10-10zm-10 230.104h-64v-210.104h64z"/><path d="m364.667 166.376h-84c-5.523 0-10 4.477-10 10v301.552c0 5.523 4.477 10 10 10h84c5.523 0 10-4.477 10-10v-301.552c0-5.523-4.478-10-10-10zm-10 301.552h-64v-281.552h64z"/><path d="m500 94.928h-84c-5.523 0-10 4.477-10 10v373c0 5.523 4.477 10 10 10h84c5.523 0 10-4.477 10-10v-373c0-5.523-4.477-10-10-10zm-10 373h-64v-353h64z"/></g></g></g><g/><g/><g/><g/><g/><g/><g/><g/><g/><g/><g/><g/><g/><g/><g/></svg>