<svg id="Capa_1" enable-background="new 0 0 510 510" viewBox="0 0 510 510" xmlns="http://www.w3.org/2000/svg"><g><g><g><g><g><g><circle cx="110" cy="130" fill="#fdcb50" r="100"/></g><g><path d="m94.081 121.692c0-35.085 14.653-66.748 38.173-89.203-7.157-1.626-14.605-2.489-22.254-2.489-55.229 0-100 44.772-100 100s44.771 100 100 100c13.066 0 25.546-2.509 36.987-7.067-31.976-22.28-52.906-59.313-52.906-101.241z" fill="#fd8f01"/></g><g><g><circle cx="110" cy="114.567" fill="#fdbeb9" r="38.673"/></g><g><path d="m110 153.294c-31.934 0-59.388 19.102-71.612 46.495 18.164 18.634 43.534 30.211 71.612 30.211s53.448-11.577 71.611-30.212c-12.223-27.392-39.677-46.494-71.611-46.494z" fill="#fd7da0"/></g><g><path d="m98.406 154.148c-26.882 3.988-49.302 21.627-60.018 45.64 18.164 18.635 43.534 30.212 71.612 30.212 13.066 0 25.545-2.51 36.985-7.069-23.408-16.31-40.889-40.526-48.579-68.783z" fill="#db4b86"/></g></g></g></g></g><g><g><g><g><circle cx="400" cy="130" fill="#67ccd1" r="100"/></g><g><path d="m384.081 121.692c0-35.085 14.653-66.748 38.173-89.203-7.157-1.627-14.605-2.489-22.254-2.489-55.229 0-100 44.771-100 100s44.771 100 100 100c13.066 0 25.546-2.509 36.987-7.067-31.976-22.28-52.906-59.313-52.906-101.241z" fill="#27a2cc"/></g><g><g><circle cx="400" cy="114.567" fill="#fdbeb9" r="38.673"/></g><g><path d="m400 153.293c-31.934 0-59.388 19.102-71.612 46.495 18.164 18.635 43.534 30.212 71.612 30.212s53.448-11.577 71.611-30.212c-12.223-27.392-39.677-46.495-71.611-46.495z" fill="#b1d952"/></g><g><path d="m388.406 154.148c-26.882 3.988-49.302 21.627-60.018 45.64 18.164 18.635 43.534 30.212 71.612 30.212 13.066 0 25.545-2.51 36.985-7.069-23.408-16.31-40.889-40.527-48.579-68.783z" fill="#91b706"/></g></g></g></g></g><g><path d="m313.201 397.539-33.941-33.941-24.26 24.259-24.26-24.259-33.941 33.941 24.26 24.26-24.26 24.259 33.941 33.942 24.26-24.26 24.26 24.26 33.941-33.942-24.26-24.259z" fill="#fd7da0"/></g></g><g><g><g><path d="m213.839 431.799h-103.839c-5.523 0-10-4.477-10-10v-191.799h20v181.798h93.839z" fill="#67ccd1"/></g><g><path d="m400 431.799h-106.011v-20h96.011v-181.626h20v191.625c0 5.524-4.478 10.001-10 10.001z" fill="#67ccd1"/></g></g><g fill="#052a75"><path d="m220 130c0-60.654-49.346-110-110-110s-110 49.346-110 110 49.346 110 110 110 110-49.345 110-110zm-110-90c49.626 0 90 40.374 90 90 0 19.459-6.209 37.493-16.748 52.231-9.851-14.569-23.776-25.772-39.817-32.343 9.373-8.877 15.238-21.423 15.238-35.322 0-26.838-21.834-48.673-48.673-48.673s-48.673 21.834-48.673 48.673c0 13.898 5.865 26.444 15.238 35.322-16.041 6.57-29.966 17.773-39.817 32.342-10.539-14.736-16.748-32.771-16.748-52.23 0-49.626 40.374-90 90-90zm0 103.24c-15.81 0-28.673-12.863-28.673-28.673s12.863-28.673 28.673-28.673 28.673 12.863 28.673 28.673-12.863 28.673-28.673 28.673zm-59.309 54.393c12.113-21.062 34.693-34.339 59.309-34.339s47.196 13.277 59.309 34.339c-15.849 13.916-36.61 22.367-59.309 22.367s-43.46-8.451-59.309-22.367z"/><path d="m400 20c-60.654 0-110 49.346-110 110s49.346 110 110 110 110-49.346 110-110-49.346-110-110-110zm0 20c49.626 0 90 40.374 90 90 0 19.459-6.209 37.493-16.748 52.231-9.851-14.569-23.776-25.772-39.817-32.343 9.373-8.877 15.238-21.423 15.238-35.322 0-26.838-21.835-48.673-48.673-48.673s-48.673 21.834-48.673 48.673c0 13.898 5.865 26.444 15.238 35.322-16.041 6.57-29.966 17.773-39.817 32.343-10.539-14.738-16.748-32.773-16.748-52.231 0-49.626 40.374-90 90-90zm0 103.24c-15.811 0-28.673-12.863-28.673-28.673s12.862-28.673 28.673-28.673 28.673 12.863 28.673 28.673-12.862 28.673-28.673 28.673zm-59.309 54.393c12.113-21.063 34.693-34.339 59.309-34.339s47.196 13.277 59.309 34.339c-15.849 13.916-36.61 22.367-59.309 22.367s-43.46-8.451-59.309-22.367z"/><path d="m320.272 390.468-33.941-33.941c-3.906-3.905-10.236-3.905-14.143 0l-17.188 17.188-17.188-17.189c-3.905-3.905-10.237-3.905-14.143 0l-33.941 33.941c-3.905 3.905-3.905 10.237 0 14.143l17.189 17.188-17.189 17.188c-3.905 3.905-3.905 10.237 0 14.143l33.941 33.941c3.905 3.905 10.237 3.905 14.143 0l17.188-17.188 17.188 17.189c1.953 1.953 4.512 2.929 7.071 2.929s5.118-.976 7.071-2.929l33.941-33.941c3.905-3.905 3.905-10.237 0-14.143l-17.188-17.188 17.188-17.188c3.907-3.906 3.907-10.238.001-14.143zm-38.402 38.402 17.188 17.188-19.799 19.799-17.188-17.189c-1.953-1.953-4.512-2.929-7.071-2.929s-5.119.976-7.071 2.929l-17.188 17.189-19.799-19.799 17.189-17.188c3.905-3.905 3.905-10.237 0-14.143l-17.189-17.188 19.799-19.799 17.188 17.189c3.906 3.906 10.237 3.905 14.143 0l17.188-17.189 19.799 19.799-17.188 17.188c-3.906 3.906-3.906 10.238-.001 14.143z"/></g></g></g><g/><g/><g/><g/><g/><g/><g/><g/><g/><g/><g/><g/><g/><g/><g/></svg>