<svg id="Capa_1" enable-background="new 0 0 510 510" viewBox="0 0 510 510" xmlns="http://www.w3.org/2000/svg"><g><g><g><g><circle cx="223.043" cy="223.043" fill="#67ccd1" r="213.043"/></g><g><g><g><circle cx="223.043" cy="223.043" fill="#67ccd1" r="212.989"/></g><g><path d="m435.798 232.858c-14.83-4.453-30.537-6.858-46.798-6.858-89.879 0-163 73.122-163 163 0 16.261 2.405 31.968 6.858 46.798 109.819-4.982 197.958-93.121 202.94-202.94z" fill="#27a2cc"/></g><g><path d="m435.335 240.395c.462-5.723.697-11.51.697-17.352 0-92.345-58.773-170.953-140.95-200.485v19.83c0 10.803-8.758 19.561-19.561 19.561h-11.022c-21.803 0-39.478 17.675-39.478 39.478 0 21.804 17.675 39.479 39.479 39.479h22.427c14.879 0 26.94 12.062 26.94 26.94s-12.062 26.94-26.94 26.94h-42.671c-27.899 0-50.515 22.616-50.515 50.515 0 24.821 18.033 45.965 42.543 49.882 5.672.906 10.688 3.67 14.425 7.642z" fill="#b1d952"/></g><g><path d="m435.798 232.858c-14.83-4.453-30.537-6.858-46.798-6.858-58.262 0-109.473 30.732-138.299 76.831 3.612 3.839 6.036 8.8 6.696 14.311 1.605 13.393 12.966 23.474 26.455 23.474h116.8c20.658-31.144 33.344-68.029 35.148-107.755-.001-.001-.001-.002-.002-.003z" fill="#91b706"/></g><g><path d="m125.306 96.64h-73.69c-26.114 35.357-41.561 79.074-41.561 126.403 0 29.746 6.106 58.063 17.12 83.778h82.375c18.17 0 32.899-14.729 32.899-32.899 0-18.169-14.729-32.899-32.899-32.899h.002c-14.433 0-26.133-11.7-26.134-26.134 0-14.433 11.701-26.134 26.133-26.134h15.754c25.437 0 46.058-20.621 46.058-46.058.001-25.436-20.62-46.057-46.057-46.057z" fill="#b1d952"/></g></g></g></g><g><g><circle cx="389" cy="389" fill="#fd7da0" r="111"/></g><g><path d="m479.946 438.855c-61.304 0-111-49.696-111-111 0-17.796 4.211-34.599 11.655-49.507-57.376 4.298-102.601 52.177-102.601 110.652 0 61.304 49.696 111 111 111 43.508 0 81.147-25.046 99.345-61.493-2.775.208-5.57.348-8.399.348z" fill="#db4b86"/></g></g></g><g><path d="m439.027 278.835c4.683-18.171 7.059-36.896 7.059-55.792 0-59.577-23.2-115.588-65.328-157.715-42.127-42.127-98.138-65.328-157.715-65.328s-115.588 23.201-157.715 65.328c-42.128 42.127-65.328 98.138-65.328 157.715s23.2 115.588 65.328 157.715c42.127 42.127 98.138 65.328 157.715 65.328 18.898 0 37.623-2.376 55.792-7.058 19.07 41.826 61.276 70.972 110.165 70.972 66.72 0 121-54.28 121-121 0-48.889-29.146-91.096-70.973-110.165zm-215.984 147.251c-111.958 0-203.043-91.085-203.043-203.043s91.085-203.043 203.043-203.043 203.043 91.084 203.043 203.043c0 16.593-2.012 33.036-5.975 49.019-9.932-2.645-20.358-4.062-31.111-4.062-66.72 0-121 54.28-121 121 0 10.752 1.417 21.179 4.062 31.11-15.981 3.964-32.425 5.976-49.019 5.976zm165.957 63.914c-55.691 0-101-45.309-101-101s45.309-101 101-101 101 45.309 101 101-45.309 101-101 101z" fill="#052a75"/><path d="m403.018 388.875 28.249-28.249c3.905-3.905 3.905-10.237 0-14.143-3.906-3.905-10.236-3.905-14.143 0l-28.249 28.249-28.249-28.249c-3.906-3.905-10.236-3.905-14.143 0-3.905 3.905-3.905 10.237 0 14.143l28.249 28.249-28.249 28.249c-3.905 3.905-3.905 10.237 0 14.143 1.953 1.953 4.512 2.929 7.071 2.929s5.118-.976 7.071-2.929l28.249-28.249 28.249 28.249c1.953 1.953 4.512 2.929 7.071 2.929s5.118-.976 7.071-2.929c3.905-3.905 3.905-10.237 0-14.143z" fill="#fff"/></g></g><g/><g/><g/><g/><g/><g/><g/><g/><g/><g/><g/><g/><g/><g/><g/></svg>