<svg id="Capa_1" enable-background="new 0 0 510 510" viewBox="0 0 510 510" xmlns="http://www.w3.org/2000/svg"><g><g><g><g><g><path d="m10 10.154h434.648v396.458h-434.648z" fill="#fff"/></g><g><path d="m444.648 248.676c-15.825-5.514-32.813-8.521-50.494-8.521-84.831 0-153.845 69.015-153.845 153.846 0 4.247.181 8.451.52 12.612h203.819z" fill="#d2dcfd"/></g><g><path d="m10 10.154h434.648v88h-434.648z" fill="#93b2f4"/></g></g></g><g><g><circle cx="394.154" cy="394" fill="#fd7da0" r="105.846"/></g><g><path d="m465.696 428.066c-58.457 0-105.846-47.389-105.846-105.845 0-10.347 1.511-20.335 4.279-29.787-43.949 12.87-76.058 53.456-76.058 101.566 0 58.457 47.389 105.846 105.845 105.846 48.11 0 88.697-32.109 101.566-76.058-9.451 2.767-19.439 4.278-29.786 4.278z" fill="#db4b86"/></g></g></g><g><g><g><g><g><g><g><path d="m59.05 64.15c-9.79.041-13.707-12.92-5.55-18.31 9.108-5.947 19.806 4.76 13.87 13.87-1.81 2.731-5.042 4.473-8.32 4.44z" fill="#fff"/></g><g><path d="m103.05 64.15c-7.847.138-12.772-9.107-8.309-15.55 3.705-5.872 12.916-5.834 16.63 0 .712 1.101 1.223 2.317 1.489 3.6.52 2.578-.041 5.316-1.489 7.51-1.822 2.749-5.026 4.452-8.321 4.44z" fill="#fff"/></g><g><path d="m147.05 64.15c-6.893.212-12.072-7.538-9.23-13.82 2.86-7.303 13.305-8.317 17.551-1.73 2.23 3.283 2.228 7.829 0 11.11-1.811 2.731-5.043 4.473-8.321 4.44z" fill="#fff"/></g><g><path d="m395.597 64.154h-182.369c-5.522 0-10-4.477-10-10s4.478-10 10-10h182.369c13.213.502 13.31 19.455 0 20z" fill="#fff"/></g></g></g></g></g></g><g fill="#b1d952"><circle cx="227.324" cy="321.383" r="28"/><path d="m227.324 237.383c-22.438 0-43.531 8.738-59.397 24.603-3.905 3.905-3.905 10.237 0 14.142 3.906 3.906 10.236 3.906 14.143 0 12.088-12.088 28.16-18.746 45.255-18.746s33.166 6.657 45.254 18.745c1.953 1.953 4.512 2.929 7.071 2.929s5.118-.977 7.071-2.929c3.905-3.905 3.905-10.237 0-14.142-15.866-15.864-36.96-24.602-59.397-24.602z"/><path d="m227.324 191.384c-34.725 0-67.37 13.522-91.924 38.076-3.905 3.905-3.905 10.237 0 14.142 3.906 3.905 10.236 3.905 14.143 0 20.775-20.776 48.399-32.218 77.781-32.218s57.005 11.442 77.781 32.218c1.953 1.953 4.512 2.929 7.071 2.929s5.118-.977 7.071-2.929c3.905-3.905 3.905-10.237 0-14.142-24.553-24.554-57.199-38.076-91.923-38.076z"/><path d="m351.775 196.933c-68.623-68.622-180.279-68.622-248.902 0-3.905 3.905-3.905 10.237 0 14.143 3.906 3.905 10.236 3.905 14.143 0 60.824-60.825 159.793-60.825 220.617 0 1.953 1.953 4.512 2.929 7.071 2.929s5.118-.976 7.071-2.929c3.906-3.906 3.906-10.238 0-14.143z"/></g><g><path d="m454.648 295.243v-285.089c0-5.523-4.478-10-10-10h-434.648c-5.522 0-10 4.477-10 10v396.458c0 5.523 4.478 10 10 10h270.531c10.547 53.089 57.482 93.233 113.624 93.233 63.877.001 115.845-51.968 115.845-115.845 0-41.722-22.173-78.359-55.352-98.757zm-434.648 101.369v-376.458h414.648v265.309c-12.612-4.721-26.255-7.309-40.494-7.309-63.878 0-115.846 51.968-115.846 115.846 0 .873.014 1.743.033 2.612zm374.154 93.234c-52.85 0-95.846-42.996-95.846-95.846s42.996-95.846 95.846-95.846 95.846 42.996 95.846 95.846-42.996 95.846-95.846 95.846z" fill="#052a75"/><path d="m408.178 393.881 26.609-26.609c3.905-3.905 3.905-10.237 0-14.143-3.905-3.904-10.237-3.905-14.143 0l-26.609 26.609-26.609-26.609c-3.906-3.905-10.236-3.904-14.143 0-3.905 3.905-3.905 10.237 0 14.143l26.609 26.609-26.609 26.609c-3.905 3.905-3.905 10.237 0 14.143 1.953 1.953 4.512 2.929 7.071 2.929s5.119-.977 7.071-2.929l26.609-26.609 26.609 26.609c1.953 1.953 4.512 2.929 7.071 2.929s5.118-.977 7.071-2.929c3.905-3.905 3.905-10.237 0-14.143z" fill="#fff"/></g></g></g><g/><g/><g/><g/><g/><g/><g/><g/><g/><g/><g/><g/><g/><g/><g/></svg>