<svg id="Capa_1" enable-background="new 0 0 509.846 509.846" viewBox="0 0 509.846 509.846" xmlns="http://www.w3.org/2000/svg"><g><g><g><g><circle cx="223.043" cy="223.12" fill="#b1d952" r="213.043"/></g><g><path d="m435.969 229.876c-56.383-16.58-119.835-2.631-164.318 41.852s-58.432 107.935-41.852 164.318c112.288-3.5 202.67-93.882 206.17-206.17z" fill="#91b706"/></g></g><g><g><circle cx="389" cy="388.923" fill="#fd7da0" r="110.846"/></g><g><path d="m463.921 424.598c-61.218 0-110.845-49.627-110.845-110.845 0-10.836 1.583-21.296 4.481-31.194-46.025 13.478-79.651 55.981-79.651 106.364 0 61.218 49.627 110.846 110.846 110.846 50.383 0 92.886-33.626 106.364-79.651-9.899 2.898-20.359 4.48-31.195 4.48z" fill="#db4b86"/></g></g></g><g><path d="m439.024 278.926c4.685-18.174 7.062-36.903 7.062-55.806 0-59.577-23.201-115.588-65.328-157.715s-98.138-65.328-157.715-65.328-115.588 23.201-157.715 65.328-65.328 98.138-65.328 157.715 23.201 115.588 65.328 157.715 98.138 65.328 157.715 65.328c18.976 0 37.773-2.394 56.009-7.113 19.081 41.686 61.186 70.719 109.948 70.719 66.635 0 120.846-54.211 120.846-120.846 0-48.803-29.081-90.939-70.822-109.997zm-273.615-250.504c-9.765 10.484-18.745 23.737-26.671 39.58-4.226 8.447-8.059 17.459-11.496 26.933-16.862-4.39-32.514-9.946-46.447-16.549 23.405-23.007 52.343-40.394 84.614-49.964zm-98.729 65.314c16.095 8.168 34.476 14.963 54.382 20.219-8.7 30.088-13.686 63.899-14.479 99.165h-86.335c2.205-45.235 19.28-86.627 46.432-119.384zm-46.432 139.384h86.335c.794 35.265 5.779 69.077 14.479 99.165-19.907 5.256-38.287 12.051-54.382 20.219-27.152-32.756-44.227-74.149-46.432-119.384zm60.547 134.735c13.933-6.604 29.586-12.16 46.447-16.549 3.437 9.474 7.27 18.486 11.496 26.933 7.926 15.843 16.906 29.096 26.671 39.58-32.271-9.57-61.209-26.958-84.614-49.964zm132.248 57.167c-20.847-4.716-40.584-24.081-56.418-55.731-3.539-7.074-6.785-14.585-9.733-22.465 20.93-4.126 43.264-6.563 66.151-7.114zm0-105.312c-25.052.58-49.552 3.33-72.492 8.021-8.362-28.516-13.173-60.793-13.966-94.611h86.458zm0-106.59h-86.458c.793-33.818 5.604-66.095 13.966-94.611 22.94 4.692 47.44 7.441 72.492 8.021zm0-106.591c-22.887-.551-45.221-2.987-66.151-7.114 2.948-7.88 6.194-15.39 9.733-22.464 15.834-31.651 35.571-51.016 56.418-55.732zm212.795 106.591h-86.335c-.794-35.265-5.779-69.077-14.479-99.165 19.906-5.256 38.287-12.051 54.382-20.219 27.152 32.757 44.227 74.149 46.432 119.384zm-.019 20c-.645 13.196-2.544 26.259-5.711 39.024-9.93-2.648-20.356-4.067-31.109-4.067-19.085 0-37.148 4.454-53.213 12.367 2.098-15.418 3.357-31.238 3.719-47.324zm-60.528-154.734c-13.933 6.604-29.586 12.16-46.448 16.549-3.437-9.474-7.27-18.486-11.496-26.933-7.926-15.843-16.906-29.096-26.671-39.58 32.272 9.57 61.21 26.957 84.615 49.964zm-132.248-57.167c20.847 4.716 40.584 24.081 56.418 55.732 3.539 7.074 6.785 14.585 9.733 22.464-20.93 4.126-43.264 6.563-66.151 7.114zm0 105.312c25.052-.58 49.552-3.33 72.492-8.021 8.362 28.516 13.173 60.793 13.966 94.611h-86.458zm35.724 274.557c-8.621 9.956-20.819 20.496-35.724 23.923v-85.294c14.984.354 29.748 1.507 44.121 3.438-5.802 14.124-9.01 29.577-9.01 45.768 0 4.106.21 8.163.613 12.165zm-35.724-81.38v-86.588h86.456c-.5 21.206-2.611 41.906-6.261 61.731-10.303 8.314-19.219 18.28-26.338 29.496-17.465-2.67-35.515-4.224-53.857-4.639zm155.957 170.061c-55.606 0-100.846-45.239-100.846-100.846s45.24-100.846 100.846-100.846 100.846 45.239 100.846 100.846-45.24 100.846-100.846 100.846z" fill="#052a75"/><path d="m403.018 388.799 28.199-28.199c3.905-3.905 3.905-10.237 0-14.143s-10.237-3.905-14.143 0l-28.199 28.199-28.199-28.199c-3.905-3.905-10.237-3.905-14.143 0-3.905 3.905-3.905 10.237 0 14.143l28.199 28.199-28.199 28.199c-3.905 3.905-3.905 10.237 0 14.143 1.953 1.953 4.512 2.929 7.071 2.929s5.119-.976 7.071-2.929l28.199-28.199 28.199 28.199c1.953 1.953 4.512 2.929 7.071 2.929s5.119-.976 7.071-2.929c3.905-3.905 3.905-10.237 0-14.143z" fill="#fff"/></g></g><g/><g/><g/><g/><g/><g/><g/><g/><g/><g/><g/><g/><g/><g/><g/></svg>