<svg id="Capa_1" enable-background="new 0 0 508.53 508.53" viewBox="0 0 508.53 508.53" xmlns="http://www.w3.org/2000/svg"><g><g><g><g><g><path d="m54.566 476.402-22.438-22.438c-29.558-29.558-29.558-77.48 0-107.037l63.616-63.616c29.557-29.557 77.479-29.557 107.037 0l22.439 22.439c29.557 29.557 29.557 77.479 0 107.036l-63.617 63.617c-29.558 29.556-77.48 29.556-107.037-.001zm115.846-160.723c-11.681-11.681-30.619-11.681-42.3 0l-63.616 63.616c-11.68 11.68-11.68 30.618 0 42.298l22.439 22.439c11.68 11.68 30.618 11.68 42.298 0l63.617-63.617c11.681-11.681 11.681-30.619 0-42.299z" fill="#d2dcfd"/></g></g><g><path d="m202.781 283.31c-15.333-15.333-35.608-22.691-55.698-22.116l-21.779 21.779c-13.389 13.389-20.763 31.191-20.763 50.126 0 1.979.099 3.942.259 5.892l23.312-23.312c11.681-11.681 30.619-11.681 42.3 0l22.438 22.438c11.681 11.681 11.681 30.619 0 42.299l-23.281 23.281c1.95.16 3.905.257 5.861.257 18.153 0 36.306-6.91 50.126-20.73l21.779-21.779c.575-20.089-6.783-40.364-22.116-55.696z" fill="#93b2f4"/></g><g><g><path d="m305.749 225.219-22.438-22.438c-29.558-29.558-29.558-77.48 0-107.037l63.616-63.616c29.557-29.557 77.479-29.557 107.037 0l22.439 22.439c29.557 29.557 29.557 77.479 0 107.036l-63.617 63.617c-29.558 29.556-77.48 29.556-107.037-.001zm115.846-160.722c-11.681-11.681-30.619-11.681-42.3 0l-63.616 63.616c-11.68 11.68-11.68 30.618 0 42.298l22.439 22.439c11.68 11.68 30.618 11.68 42.298 0l63.617-63.617c11.681-11.681 11.681-30.619 0-42.299z" fill="#d2dcfd"/></g></g><g><path d="m338.118 192.851-22.439-22.439c-11.68-11.68-11.68-30.618 0-42.299l23.282-23.282c-20.053-1.649-40.677 5.164-55.987 20.473l-21.779 21.779c-.575 20.09 6.783 40.364 22.116 55.697l22.438 22.438c15.333 15.333 35.607 22.691 55.697 22.116l21.779-21.779c13.39-13.389 20.764-31.19 20.764-50.126 0-1.979-.099-3.942-.259-5.893l-23.313 23.314c-11.681 11.681-30.619 11.681-42.299.001z" fill="#93b2f4"/></g></g><g><g><g><path d="m238.879 269.65-27.298-5.071-52.336 52.336c-8.938 8.938-8.938 23.43 0 32.369 8.938 8.938 23.43 8.938 32.369 0l52.336-52.336z" fill="#d2dcfd"/></g><g><path d="m349.284 159.245c-8.938-8.938-23.43-8.938-32.369 0l-66.068 66.068 11.846 2.201c9.309 1.729 16.593 9.013 18.322 18.323l2.201 11.845 66.068-66.068c8.938-8.938 8.938-23.43 0-32.369z" fill="#d2dcfd"/></g></g></g></g><g><g fill="#052a75"><path d="m483.473 47.495-22.439-22.438c-33.408-33.408-87.769-33.409-121.179 0l-63.615 63.615c-15.203 15.203-24.084 35.397-25.01 56.863-.786 18.239 4.225 36.049 14.195 51.058l-21.649 21.649c-2.625 2.625-3.58 6.489-2.479 10.035s4.074 6.19 7.724 6.868l11.846 2.201c5.204.966 9.35 5.112 10.317 10.317l2.201 11.845c.678 3.65 3.322 6.624 6.868 7.724.974.302 1.972.45 2.962.45 2.613 0 5.168-1.025 7.072-2.929l21.649-21.649c13.984 9.289 30.397 14.276 47.326 14.276 1.241 0 2.486-.027 3.731-.081 21.465-.925 41.66-9.807 56.862-25.009l63.618-63.617c33.409-33.408 33.409-87.769 0-121.178zm-194.461 190.248c-3.348-8.251-9.975-14.878-18.227-18.227l53.201-53.2c5.024-5.025 13.201-5.026 18.226 0 2.435 2.434 3.775 5.67 3.775 9.113 0 3.442-1.341 6.679-3.775 9.113zm67.343-85.569c-10.625-10.624-26.768-12.436-39.287-5.453.548-4.245 2.464-8.319 5.681-11.536l63.617-63.617c7.763-7.764 20.395-7.764 28.157 0l22.438 22.438c7.763 7.763 7.763 20.394 0 28.157l-63.617 63.617c-3.213 3.214-7.282 5.129-11.521 5.679 2.713-4.845 4.164-10.324 4.164-16.029.001-8.785-3.42-17.044-9.632-23.256zm112.976 2.357-63.617 63.617c-11.654 11.653-27.131 18.461-43.582 19.17-12.607.545-24.945-2.526-35.68-8.73l19.321-19.321c4.391 1.589 8.962 2.379 13.514 2.379 10.293-.001 20.479-4.002 28.201-11.724l63.617-63.617c15.561-15.561 15.561-40.881 0-56.442l-22.438-22.438c-15.562-15.561-40.881-15.561-56.442 0l-63.617 63.617c-11.138 11.138-14.529 27.394-9.347 41.715l-19.32 19.32c-6.203-10.735-9.273-23.072-8.73-35.681.709-16.451 7.517-31.928 19.171-43.582l63.615-63.616c25.611-25.611 67.284-25.611 92.895 0l22.438 22.438c25.612 25.612 25.612 67.285.001 92.895z"/><path d="m251.022 304.019c2.33-2.33 3.362-5.658 2.76-8.898l-5.071-27.297c-.755-4.067-3.938-7.25-8.005-8.005l-27.298-5.071c-3.239-.602-6.568.431-8.898 2.76l-7.917 7.917c-15.009-9.97-32.818-14.985-51.058-14.195-21.465.925-41.66 9.807-56.863 25.01l-63.616 63.616c-33.409 33.41-33.409 87.771 0 121.18l22.438 22.438c16.705 16.704 38.647 25.057 60.589 25.057s43.885-8.353 60.589-25.057l63.617-63.618c15.202-15.202 24.084-35.396 25.009-56.862.786-18.239-4.226-36.049-14.195-51.058zm-36.092-28.646 15.371 2.855 2.855 15.371-48.614 48.614c-5.026 5.024-13.203 5.025-18.227 0-5.025-5.025-5.025-13.202 0-18.227zm-62.755 80.983c6.412 6.411 14.833 9.617 23.255 9.617 5.535 0 11.066-1.394 16.031-4.163-.548 4.245-2.464 8.319-5.681 11.536l-63.617 63.617c-3.76 3.76-8.76 5.832-14.078 5.832s-10.318-2.071-14.078-5.832l-22.439-22.439c-7.763-7.763-7.763-20.393 0-28.156l63.617-63.617c3.217-3.218 7.291-5.135 11.537-5.682-6.985 12.518-5.173 28.661 5.453 39.287zm85.144 5.776c-.709 16.451-7.517 31.928-19.17 43.581l-63.618 63.617c-25.61 25.611-67.283 25.611-92.894 0l-22.438-22.438c-25.611-25.612-25.611-67.284 0-92.896l63.615-63.616c11.654-11.653 27.131-18.461 43.582-19.17 12.608-.544 24.945 2.526 35.68 8.73l-19.32 19.32c-14.322-5.183-30.578-1.791-41.716 9.347l-63.617 63.617c-15.561 15.561-15.561 40.88 0 56.441l22.439 22.439c7.538 7.538 17.561 11.689 28.221 11.689s20.682-4.152 28.22-11.689l63.618-63.617c11.137-11.138 14.529-27.394 9.347-41.715l19.32-19.32c6.204 10.735 9.274 23.072 8.731 35.68z"/></g><g><g><path d="m209.408 145.635c-4.292 0-8.26-2.786-9.567-7.106l-21.292-70.368c-1.6-5.286 1.389-10.868 6.675-12.467 5.285-1.603 10.868 1.389 12.467 6.675l21.292 70.368c1.6 5.286-1.389 10.868-6.675 12.467-.966.292-1.941.431-2.9.431z" fill="#fdcb50"/></g><g><path d="m135.637 219.414c-.959 0-1.935-.139-2.9-.431l-70.368-21.292c-5.286-1.599-8.275-7.181-6.675-12.467 1.599-5.287 7.184-8.278 12.467-6.675l70.368 21.292c5.286 1.599 8.275 7.181 6.675 12.467-1.307 4.321-5.276 7.106-9.567 7.106z" fill="#fdcb50"/></g><g><path d="m165.473 175.473c-2.559 0-5.119-.976-7.071-2.929l-72.118-72.117c-3.905-3.905-3.905-10.237 0-14.142s10.237-3.906 14.143 0l72.117 72.117c3.905 3.905 3.905 10.237 0 14.142-1.952 1.952-4.512 2.929-7.071 2.929z" fill="#fdcb50"/></g></g></g></g><g/><g/><g/><g/><g/><g/><g/><g/><g/><g/><g/><g/><g/><g/><g/></svg>