<svg id="Capa_1" enable-background="new 0 0 510 510" viewBox="0 0 510 510" xmlns="http://www.w3.org/2000/svg"><g><g><g><g><circle cx="54" cy="82" fill="#93b2f4" r="28"/></g><g><circle cx="255" cy="38" fill="#b1d952" r="28"/></g><g><circle cx="456" cy="82" fill="#fd7da0" r="28"/></g></g><g><g><path d="m396.611 388.488c42.664 0 77.251-34.586 77.251-77.25 0-35.563-24.039-65.494-56.749-74.479-2.001-16.56-9.334-32.599-22.043-45.308-24.507-24.507-61.384-29.105-90.533-13.796-18.677-30.386-52.216-50.655-90.497-50.655-58.628 0-106.156 47.528-106.156 106.156 0 .351.023.696.026 1.046-40.105 2.813-71.772 36.215-71.772 77.036 0 42.664 34.586 77.25 77.25 77.25z" fill="#67ccd1"/></g><g><path d="m255 226c-88.701 0-161.074 71.22-162.955 159.478 6.782 1.946 13.937 3.011 21.344 3.011h283.221c7.408 0 14.563-1.064 21.345-3.011-1.881-88.259-74.254-159.478-162.955-159.478z" fill="#27a2cc"/></g></g><g><g><circle cx="255" cy="389" fill="#fd7da0" r="111"/></g><g><path d="m345.946 438.855c-61.304 0-111-49.696-111-111 0-17.796 4.211-34.599 11.654-49.507-57.375 4.298-102.6 52.177-102.6 110.652 0 61.304 49.696 111 111 111 43.508 0 81.147-25.046 99.346-61.493-2.776.208-5.571.348-8.4.348z" fill="#db4b86"/></g></g></g><g><g><g><path d="m137 172.374h-20v-80.374h-35v-20h45c5.523 0 10 4.477 10 10z" fill="#fdcb50"/></g><g><path d="m393 181.585h-20v-99.585c0-5.523 4.478-10 10-10h45v20h-35z" fill="#fdcb50"/></g><g><path d="m245 66h20v69.197h-20z" fill="#fdcb50"/></g></g><g><g fill="#052a75"><path d="m426.019 229.091c-3.327-16.986-11.504-32.336-23.878-44.712-13.425-13.424-30.427-21.949-49.168-24.655-15.107-2.183-30.727-.301-44.851 5.298-21.836-30.228-56.389-48.022-94.081-48.022-61.422 0-111.862 47.926-115.896 108.343-41.042 7.267-72.005 43.371-72.005 85.895 0 48.11 39.141 87.25 87.25 87.25h20.981c4.855 62.302 57.102 111.512 120.629 111.512s115.774-49.21 120.629-111.512h20.981c48.11 0 87.251-39.14 87.251-87.25 0-36.961-23.475-69.85-57.842-82.147zm-171.019 260.909c-55.691 0-101-45.309-101-101s45.309-101 101-101 101 45.309 101 101-45.309 101-101 101zm141.61-111.512h-21.072c-5.345-61.815-57.36-110.488-120.538-110.488s-115.193 48.673-120.538 110.488h-21.073c-37.082 0-67.25-30.168-67.25-67.25 0-35.146 27.441-64.603 62.472-67.061 5.276-.37 9.352-4.785 9.3-10.073-.002-.248-.01-.494-.019-.739l-.007-.209c0-53.021 43.135-96.156 96.156-96.156 33.669 0 64.314 17.155 81.976 45.891 2.756 4.482 8.514 6.062 13.169 3.617 26.198-13.759 57.869-8.931 78.812 12.013 10.731 10.732 17.366 24.369 19.187 39.438.487 4.031 3.363 7.368 7.279 8.443 29.084 7.989 49.397 34.651 49.397 64.837 0 37.081-30.169 67.249-67.251 67.249z"/><path d="m54 120c20.953 0 38-17.047 38-38s-17.047-38-38-38-38 17.047-38 38 17.047 38 38 38zm0-56c9.925 0 18 8.075 18 18s-8.075 18-18 18-18-8.075-18-18 8.075-18 18-18z"/><path d="m255 76c20.953 0 38-17.047 38-38s-17.047-38-38-38-38 17.047-38 38 17.047 38 38 38zm0-56c9.925 0 18 8.075 18 18s-8.075 18-18 18-18-8.075-18-18 8.075-18 18-18z"/><path d="m456 120c20.953 0 38-17.047 38-38s-17.047-38-38-38-38 17.047-38 38 17.047 38 38 38zm0-56c9.925 0 18 8.075 18 18s-8.075 18-18 18-18-8.075-18-18 8.075-18 18-18z"/></g><path d="m269.018 388.875 28.249-28.249c3.905-3.905 3.905-10.237 0-14.143-3.906-3.905-10.236-3.905-14.143 0l-28.249 28.249-28.249-28.249c-3.905-3.905-10.237-3.905-14.143 0-3.905 3.905-3.905 10.237 0 14.143l28.249 28.249-28.249 28.249c-3.905 3.905-3.905 10.237 0 14.143 1.953 1.953 4.512 2.929 7.071 2.929s5.119-.976 7.071-2.929l28.249-28.249 28.249 28.249c1.953 1.953 4.512 2.929 7.071 2.929s5.118-.976 7.071-2.929c3.905-3.905 3.905-10.237 0-14.143z" fill="#fff"/></g></g></g><g/><g/><g/><g/><g/><g/><g/><g/><g/><g/><g/><g/><g/><g/><g/></svg>