<svg id="Capa_1" enable-background="new 0 0 509.906 509.906" viewBox="0 0 509.906 509.906" xmlns="http://www.w3.org/2000/svg"><g><g><g><path d="m470.327 420.695-42.025-124.88c-8.224-24.438-31.131-40.898-56.916-40.898h-232.866c-25.785 0-48.691 16.46-56.916 40.898l-42.025 124.88c-10.578 31.434 6.329 65.491 37.762 76.069 31.434 10.578 65.491-6.329 76.069-37.762l15.634-46.458h171.818l15.634 46.458c10.578 31.434 44.635 48.34 76.069 37.762 31.434-10.578 48.34-44.635 37.762-76.069z" fill="#d2dcfd"/></g><g><g><path d="m179.349 254.917h-40.829c-25.785 0-48.691 16.46-56.916 40.898l-42.025 124.88c-10.578 31.434 6.329 65.491 37.762 76.069s65.49-6.329 76.069-37.762l15.634-46.458h156.081c-70.306-26.328-124.883-84.849-145.776-157.627z" fill="#93b2f4"/></g></g></g><g><g><g><g><path d="m307.279 133.591c-2.56 0-5.118-.976-7.071-2.929-24.953-24.953-65.557-24.953-90.51 0-3.906 3.905-10.236 3.906-14.143 0-3.905-3.905-3.905-10.237 0-14.142 32.752-32.75 86.043-32.75 118.795 0 3.905 3.905 3.905 10.237 0 14.142-1.953 1.952-4.511 2.929-7.071 2.929z" fill="#b1d952"/></g><g><path d="m339.806 101.064c-2.56 0-5.118-.976-7.071-2.929-20.775-20.776-48.399-32.218-77.781-32.218s-57.006 11.442-77.781 32.218c-3.906 3.905-10.236 3.906-14.143 0-3.905-3.905-3.905-10.237 0-14.142 24.554-24.554 57.199-38.076 91.924-38.076s67.37 13.522 91.924 38.076c3.905 3.905 3.905 10.237 0 14.142-1.953 1.952-4.514 2.929-7.072 2.929z" fill="#b1d952"/></g><g><path d="m372.333 68.537c-2.56 0-5.118-.976-7.071-2.929-60.824-60.824-159.793-60.824-220.617 0-3.907 3.906-10.237 3.905-14.143 0-3.905-3.905-3.905-10.237 0-14.142 68.623-68.621 180.279-68.621 248.902 0 3.905 3.905 3.905 10.237 0 14.142-1.953 1.953-4.511 2.929-7.071 2.929z" fill="#b1d952"/></g></g><path d="m269.095 175.917 14.026-14.026c3.905-3.905 3.905-10.237 0-14.142-3.906-3.905-10.236-3.905-14.143 0l-14.025 14.026-14.025-14.026c-3.905-3.905-10.235-3.905-14.143 0-3.905 3.905-3.905 10.237 0 14.142l14.026 14.026-14.026 14.026c-3.905 3.905-3.905 10.237 0 14.142 1.953 1.953 4.512 2.929 7.071 2.929s5.118-.977 7.071-2.929l14.025-14.026 14.025 14.026c1.953 1.953 4.512 2.929 7.071 2.929s5.118-.977 7.071-2.929c3.905-3.905 3.905-10.237 0-14.142z" fill="#fd7da0"/></g><g><g><path d="m413.468 509.906c-29.261 0-56.614-18.488-66.449-47.715l-13.342-39.647h-157.448l-13.342 39.647c-9.835 29.225-37.191 47.712-66.449 47.715-7.393 0-14.902-1.179-22.287-3.665-36.609-12.32-56.37-52.126-44.05-88.736l42.025-124.88c9.603-28.536 36.284-47.709 66.393-47.709h232.867c30.109 0 56.791 19.173 66.394 47.709l42.024 124.88c12.32 36.609-7.44 76.416-44.05 88.736-7.382 2.486-14.896 3.665-22.286 3.665zm-244.424-107.362h171.818c4.294 0 8.108 2.741 9.478 6.811l15.634 46.458c7.027 20.881 26.573 34.09 47.478 34.092 5.283 0 10.648-.843 15.925-2.618 12.671-4.264 22.923-13.208 28.867-25.183 5.945-11.975 6.87-25.548 2.606-38.219l-42.024-124.88c-6.861-20.389-25.926-34.088-47.438-34.088h-232.868c-21.513 0-40.576 13.699-47.438 34.088l-42.025 124.88c-4.264 12.671-3.339 26.244 2.606 38.219 5.944 11.975 16.196 20.918 28.867 25.183 26.158 8.8 54.6-5.317 63.402-31.474l15.634-46.458c1.37-4.069 5.184-6.811 9.478-6.811z" fill="#052a75"/></g><g><path d="m182.765 343.64h-37.403c-5.522 0-10-4.477-10-10s4.478-10 10-10h37.403c5.522 0 10 4.477 10 10s-4.478 10-10 10z" fill="#fff"/></g><path d="m364.545 323.64h-8.702v-8.702c0-5.523-4.478-10-10-10s-10 4.477-10 10v8.702h-8.701c-5.522 0-10 4.477-10 10s4.478 10 10 10h8.701v8.701c0 5.523 4.478 10 10 10s10-4.477 10-10v-8.701h8.702c5.522 0 10-4.477 10-10s-4.478-10-10-10z" fill="#fff"/></g></g></g><g/><g/><g/><g/><g/><g/><g/><g/><g/><g/><g/><g/><g/><g/><g/></svg>