<svg id="Capa_1" enable-background="new 0 0 509.999 509.999" viewBox="0 0 509.999 509.999" xmlns="http://www.w3.org/2000/svg"><g><g><g><g><path d="m336.099 394.897c0 44.79-36.31 81.1-81.1 81.1s-81.1-36.31-81.1-81.1 36.31-81.1 81.1-81.1 81.1 36.31 81.1 81.1z" fill="#fd7da0"/></g><g><path d="m309.815 420.999c-44.79 0-81.1-36.31-81.1-81.1 0-7.928 1.158-15.581 3.279-22.823-33.674 9.861-58.277 40.959-58.277 77.821 0 44.79 36.31 81.1 81.1 81.1 36.863 0 67.96-24.602 77.821-58.277-7.241 2.121-14.895 3.279-22.823 3.279z" fill="#db4b86"/></g></g><g><g><path d="m149.419 289.414c8.199 8.244 21.138 9.116 30.539 2.274 44.605-32.458 105.477-32.458 150.082 0 9.401 6.841 22.34 5.97 30.539-2.274 10.084-10.139 8.809-26.9-2.729-35.348-61.064-44.712-144.639-44.712-205.703 0-11.536 8.447-12.811 25.209-2.728 35.348z" fill="#fd7da0"/></g><g><path d="m83.017 222.933c8.518 8.527 22.109 9.137 31.4 1.46 81.419-67.278 199.745-67.278 281.164 0 9.291 7.677 22.882 7.067 31.4-1.46 9.706-9.716 8.978-25.696-1.604-34.451-98.647-81.621-242.109-81.621-340.757 0-10.58 8.755-11.309 24.735-1.603 34.451z" fill="#fd7da0"/></g><g><path d="m16.811 156.815c8.711 8.766 22.703 9.204 32.022 1.088 117.974-102.749 294.36-102.749 412.333 0 9.319 8.116 23.311 7.678 32.022-1.088 9.509-9.569 9.005-25.211-1.159-34.081-135.57-118.31-338.49-118.31-474.06 0-10.164 8.87-10.668 24.512-1.158 34.081z" fill="#fd7da0"/></g></g></g><g><path d="m269.051 394.806 18.735-18.735c3.905-3.905 3.905-10.237 0-14.143-3.905-3.904-10.237-3.904-14.143 0l-18.735 18.735-18.735-18.735c-3.905-3.904-10.237-3.904-14.143 0-3.905 3.905-3.905 10.237 0 14.143l18.735 18.735-18.735 18.735c-3.905 3.905-3.905 10.237 0 14.143 1.953 1.953 4.512 2.929 7.071 2.929s5.119-.976 7.071-2.929l18.735-18.735 18.735 18.735c1.953 1.953 4.512 2.929 7.071 2.929s5.119-.976 7.071-2.929c3.905-3.905 3.905-10.237 0-14.143z" fill="#fff"/><g fill="#052a75"><path d="m254.999 303.797c-50.233 0-91.1 40.867-91.1 91.1s40.867 91.1 91.1 91.1 91.1-40.867 91.1-91.1-40.867-91.1-91.1-91.1zm0 162.2c-39.205 0-71.1-31.896-71.1-71.1s31.896-71.1 71.1-71.1 71.1 31.896 71.1 71.1-31.895 71.1-71.1 71.1z"/><path d="m363.759 245.997c-31.687-23.202-69.295-35.465-108.759-35.465s-77.072 12.264-108.759 35.465c-7.841 5.741-12.773 14.597-13.531 24.296-.76 9.721 2.746 19.26 9.62 26.172 11.693 11.756 29.993 13.147 43.513 3.309 20.165-14.674 44.079-22.43 69.157-22.43s48.993 7.756 69.157 22.43c6.027 4.386 13.002 6.54 19.919 6.54 8.602 0 17.113-3.332 23.594-9.848 6.874-6.912 10.38-16.451 9.62-26.172-.758-9.7-5.691-18.555-13.531-24.297zm-10.27 36.365c-4.688 4.714-12.074 5.236-17.565 1.24-23.606-17.178-51.589-26.258-80.925-26.258s-57.319 9.08-80.925 26.258c-5.49 3.996-12.877 3.473-17.565-1.24-2.759-2.774-4.167-6.605-3.862-10.509.308-3.939 2.229-7.391 5.408-9.719 28.235-20.674 61.758-31.602 96.944-31.602s68.708 10.928 96.944 31.602c3.179 2.328 5.1 5.779 5.408 9.719.305 3.904-1.103 7.734-3.862 10.509z"/><path d="m431.753 180.778c-102.419-84.741-251.09-84.741-353.506 0-7.198 5.955-11.58 14.728-12.022 24.069-.444 9.359 3.099 18.527 9.719 25.154 6.502 6.509 15.004 9.81 23.55 9.81 7.509 0 15.051-2.549 21.295-7.708 77.768-64.262 190.656-64.262 268.424 0 13.35 11.031 32.629 10.127 44.844-2.101 6.62-6.627 10.163-15.795 9.719-25.154-.444-9.342-4.826-18.115-12.023-24.07zm-11.846 35.088c-4.884 4.89-12.603 5.241-17.955.818-85.15-70.36-208.754-70.361-293.904 0-5.352 4.423-13.071 4.071-17.955-.818-2.689-2.692-4.071-6.269-3.891-10.073.179-3.785 1.882-7.197 4.794-9.606 47.515-39.314 105.759-58.971 164.003-58.971s116.489 19.657 164.004 58.971c2.912 2.41 4.615 5.821 4.794 9.606.18 3.804-1.201 7.381-3.89 10.073z"/><path d="m509.978 139.108c-.326-9.171-4.471-17.885-11.374-23.908-67.39-58.81-153.903-91.198-243.605-91.198s-176.215 32.388-243.605 91.198c-6.902 6.023-11.048 14.738-11.374 23.909-.327 9.202 3.207 18.226 9.696 24.756 6.471 6.512 15.056 9.803 23.671 9.803 7.835 0 15.696-2.723 22.012-8.224 55.236-48.108 126.122-74.603 199.599-74.603s144.362 26.494 199.599 74.603c13.26 11.548 33.327 10.855 45.684-1.58 6.49-6.53 10.024-15.553 9.697-24.756zm-23.882 10.658c-4.956 4.985-13.022 5.248-18.362.596-58.878-51.279-134.428-79.521-212.734-79.521s-153.857 28.241-212.735 79.521c-5.341 4.652-13.407 4.39-18.361-.595-2.646-2.662-4.029-6.195-3.896-9.948.132-3.721 1.743-7.112 4.537-9.55 63.746-55.63 145.589-86.267 230.455-86.267s166.709 30.637 230.455 86.267c2.793 2.438 4.404 5.829 4.537 9.549.132 3.753-1.251 7.286-3.896 9.948z"/></g></g></g><g/><g/><g/><g/><g/><g/><g/><g/><g/><g/><g/><g/><g/><g/><g/></svg>