<svg id="Capa_1" enable-background="new 0 0 510 510" viewBox="0 0 510 510" xmlns="http://www.w3.org/2000/svg"><g><g><g><g><g><path d="m336.101 396.9h163.899v44h-163.899z" fill="#d2dcfd"/></g></g><g><g><path d="m10 396.9h163.9v44h-163.9z" fill="#d2dcfd"/></g></g><g><g><path d="m233 278h44v59.8h-44z" fill="#d2dcfd"/></g></g></g><g><g><path d="m420 144h-330c-12.15 0-22-9.85-22-22v-90c0-12.15 9.85-22 22-22h330c12.15 0 22 9.85 22 22v90c0 12.15-9.85 22-22 22z" fill="#67ccd1"/></g><g><path d="m189.462 32.047c0-7.429.337-14.779.961-22.047h-100.423c-12.15 0-22 9.85-22 22v90c0 12.15 9.85 22 22 22h125.358c-16.575-33.788-25.896-71.78-25.896-111.953z" fill="#27a2cc"/></g><g><circle cx="134" cy="77" fill="#fff" r="22"/></g><g><circle cx="222" cy="77" fill="#fff" r="22"/></g></g><g><g><path d="m420 278h-330c-12.15 0-22-9.85-22-22v-90c0-12.15 9.85-22 22-22h330c12.15 0 22 9.85 22 22v90c0 12.15-9.85 22-22 22z" fill="#67ccd1"/></g><g><path d="m215.358 144h-125.358c-12.15 0-22 9.85-22 22v90c0 12.15 9.85 22 22 22h288.278c-71.658-19.1-130.872-68.672-162.92-134z" fill="#27a2cc"/></g><g><circle cx="134" cy="211" fill="#fff" r="22"/></g><g><circle cx="222" cy="211" fill="#fff" r="22"/></g></g><g><g><circle cx="255" cy="418.9" fill="#fd7da0" r="81.1"/></g><g><path d="m321.448 455.326c-44.79 0-81.1-36.31-81.1-81.1 0-13.002 3.077-25.279 8.515-36.171-41.92 3.14-74.963 38.122-74.963 80.845 0 44.79 36.31 81.1 81.1 81.1 31.788 0 59.288-18.299 72.585-44.929-2.028.152-4.07.255-6.137.255z" fill="#db4b86"/></g></g></g><g><g fill="#052a75"><path d="m500 386.9h-159.706c-9.234-24.532-28.761-44.059-53.294-53.293v-45.607h133c17.645 0 32-14.355 32-32v-90c0-8.517-3.351-16.26-8.795-22 5.444-5.74 8.795-13.483 8.795-22v-90c0-17.645-14.355-32-32-32h-330c-17.645 0-32 14.355-32 32v90c0 8.517 3.351 16.26 8.795 22-5.444 5.74-8.795 13.483-8.795 22v90c0 17.645 14.355 32 32 32h133v45.607c-24.532 9.234-44.059 28.761-53.293 53.293h-159.707c-5.522 0-10 4.477-10 10v44c0 5.523 4.478 10 10 10h159.707c12.984 34.493 46.316 59.1 85.293 59.1s72.31-24.607 85.294-59.1h159.706c5.522 0 10-4.477 10-10v-44c0-5.523-4.478-10-10-10zm-422-354.9c0-6.617 5.383-12 12-12h330c6.617 0 12 5.383 12 12v90c0 6.617-5.383 12-12 12h-330c-6.617 0-12-5.383-12-12zm0 224v-90c0-6.617 5.383-12 12-12h330c6.617 0 12 5.383 12 12v90c0 6.617-5.383 12-12 12h-330c-6.617 0-12-5.383-12-12zm165 32h24v40.591c-3.928-.519-7.933-.791-12-.791s-8.072.272-12 .791zm-223 142.9v-24h144.692c-.519 3.928-.791 7.933-.791 12s.272 8.072.791 12zm235 59.1c-39.204 0-71.1-31.896-71.1-71.1s31.896-71.1 71.1-71.1c39.205 0 71.101 31.896 71.101 71.1s-31.896 71.1-71.101 71.1zm235-59.1h-144.691c.519-3.928.791-7.933.791-12s-.272-8.072-.791-12h144.691z"/><path d="m310 103.5c5.522 0 10-4.477 10-10v-33c0-5.523-4.478-10-10-10s-10 4.477-10 10v33c0 5.523 4.478 10 10 10z"/><path d="m354 103.5c5.522 0 10-4.477 10-10v-33c0-5.523-4.478-10-10-10s-10 4.477-10 10v33c0 5.523 4.478 10 10 10z"/><path d="m398 103.5c5.522 0 10-4.477 10-10v-33c0-5.523-4.478-10-10-10s-10 4.477-10 10v33c0 5.523 4.478 10 10 10z"/><path d="m310 184.5c-5.522 0-10 4.477-10 10v33c0 5.523 4.478 10 10 10s10-4.477 10-10v-33c0-5.523-4.478-10-10-10z"/><path d="m354 184.5c-5.522 0-10 4.477-10 10v33c0 5.523 4.478 10 10 10s10-4.477 10-10v-33c0-5.523-4.478-10-10-10z"/><path d="m398 184.5c-5.522 0-10 4.477-10 10v33c0 5.523 4.478 10 10 10s10-4.477 10-10v-33c0-5.523-4.478-10-10-10z"/></g><g><g><path d="m280.715 454.615c-2.56 0-5.118-.976-7.071-2.929l-51.611-51.612c-3.905-3.905-3.905-10.237 0-14.142 3.908-3.904 10.238-3.905 14.143 0l51.611 51.612c3.905 3.905 3.905 10.237 0 14.142-1.954 1.952-4.514 2.929-7.072 2.929z" fill="#fff"/></g><g><path d="m229.104 454.615c-2.56 0-5.118-.976-7.071-2.929-3.905-3.905-3.905-10.237 0-14.142l51.611-51.612c3.906-3.905 10.236-3.906 14.143 0 3.905 3.905 3.905 10.237 0 14.142l-51.611 51.612c-1.954 1.952-4.513 2.929-7.072 2.929z" fill="#fff"/></g></g></g></g><g/><g/><g/><g/><g/><g/><g/><g/><g/><g/><g/><g/><g/><g/><g/></svg>