<svg id="Capa_1" enable-background="new 0 0 510.029 510.029" viewBox="0 0 510.029 510.029" xmlns="http://www.w3.org/2000/svg"><g><g><g><circle cx="255.015" cy="255.015" fill="#b1d952" r="245.015"/></g><g><path d="m437.646 345.782c-135.318 0-245.015-109.697-245.015-245.015 0-30.376 5.543-59.453 15.647-86.296-112.96 21.821-198.278 121.21-198.278 240.544 0 135.318 109.697 245.015 245.015 245.015 104.942 0 194.459-65.983 229.367-158.719-15.131 2.922-30.752 4.471-46.736 4.471z" fill="#91b706"/></g></g><g><path d="m435.337 74.692c-48.166-48.166-112.206-74.692-180.322-74.692s-132.157 26.526-180.323 74.692c-48.166 48.166-74.692 112.206-74.692 180.323s26.526 132.157 74.692 180.323 112.206 74.692 180.323 74.692 132.157-26.526 180.323-74.692 74.692-112.206 74.692-180.323-26.527-132.157-74.693-180.323zm-415.115 170.323c2.165-52.047 21.199-101.064 54.485-140.74 19.092 9.821 41.046 17.943 64.894 24.138-10.357 35.258-16.236 75.064-17.05 116.601h-102.329zm138.867-112.052c27.127 5.639 56.199 8.896 85.926 9.496v102.556h-102.462c.814-40.099 6.515-78.377 16.536-112.052zm105.926 9.508c29.865-.582 58.819-3.788 85.948-9.433 10.007 33.657 15.7 71.907 16.514 111.976h-102.462zm0-20.003v-101.503c25.105 4.793 48.85 27.537 67.727 65.272 4.347 8.69 8.312 17.948 11.887 27.682-25.14 5.08-51.938 7.988-79.614 8.549zm-20-101.503v101.491c-27.57-.576-54.475-3.521-79.596-8.587 3.57-9.716 7.529-18.957 11.868-27.632 18.877-37.734 42.622-60.479 67.728-65.272zm0 244.05v102.543c-29.863.583-58.818 3.788-85.948 9.433-10.007-33.656-15.7-71.907-16.514-111.976zm0 122.547v101.502c-25.105-4.793-48.85-27.537-67.727-65.272-4.347-8.69-8.312-17.948-11.886-27.682 25.14-5.08 51.939-7.987 79.613-8.548zm20 101.502v-101.491c27.57.576 54.475 3.521 79.596 8.587-3.57 9.716-7.529 18.957-11.868 27.632-18.878 37.735-42.623 60.479-67.728 65.272zm0-121.494v-102.555h102.462c-.814 40.099-6.515 78.377-16.536 112.051-27.127-5.639-56.199-8.896-85.926-9.496zm122.463-102.555h102.328c-2.165 52.047-21.199 101.064-54.485 140.74-19.092-9.821-41.046-17.943-64.894-24.138 10.358-35.259 16.237-75.065 17.051-116.602zm102.329-20h-102.329c-.814-41.507-6.685-81.285-17.028-116.525 12.126-3.164 23.814-6.839 34.961-11.023l-7.028-18.725c-10.853 4.074-22.266 7.632-34.122 10.686-4.054-11.328-8.602-22.082-13.634-32.14-10.114-20.218-21.714-36.75-34.38-49.261 39.328 10.541 75.384 31.244 104.946 60.806 42.025 42.024 66.159 97.161 68.614 156.182zm-296.026-216.987c-12.666 12.511-24.266 29.043-34.38 49.261-5.026 10.046-9.569 20.787-13.62 32.101-20.821-5.337-40.072-12.213-57.045-20.455.033-.033.065-.067.098-.1 29.563-29.563 65.618-50.266 104.947-60.807zm-173.559 236.987h102.329c.814 41.507 6.685 81.285 17.027 116.524-12.066 3.148-23.698 6.803-34.796 10.962l7.018 18.729c10.806-4.049 22.167-7.589 33.967-10.629 4.054 11.328 8.602 22.083 13.634 32.14 10.114 20.218 21.714 36.75 34.38 49.261-39.328-10.541-75.384-31.244-104.946-60.806-42.024-42.024-66.158-97.16-68.613-156.181zm296.027 216.986c12.666-12.511 24.266-29.043 34.38-49.261 5.026-10.046 9.569-20.787 13.62-32.101 20.821 5.337 40.072 12.213 57.045 20.455-.033.033-.065.067-.098.1-29.563 29.563-65.619 50.266-104.947 60.807z" fill="#052a75"/><g><path d="m10.015 510.015c-2.559 0-5.119-.976-7.071-2.929-3.905-3.905-3.905-10.237 0-14.143l490-490c3.905-3.905 10.237-3.905 14.143 0s3.905 10.237 0 14.143l-490 490c-1.954 1.953-4.513 2.929-7.072 2.929z" fill="#fd7da0"/></g></g></g><g/><g/><g/><g/><g/><g/><g/><g/><g/><g/><g/><g/><g/><g/><g/></svg>