<svg id="Capa_1" enable-background="new 0 0 510 510" viewBox="0 0 510 510" xmlns="http://www.w3.org/2000/svg"><g><g><g><g><circle cx="74.168" cy="283.162" fill="#93b2f4" r="28"/></g><g><circle cx="255" cy="230.162" fill="#b1d952" r="28"/></g><g><circle cx="444" cy="283.162" fill="#fd7da0" r="28"/></g></g><g><g><g><path d="m10 54.162h128v148h-128z" fill="#fdcb50"/></g><g><path d="m61.875 87.206c0-11.594 2.013-22.716 5.698-33.044h-57.573v148h128v-19.149c-43.611-10.064-76.125-49.138-76.125-95.807z" fill="#fd8f01"/></g></g><g><g><path d="m191 10.147h128v148h-128z" fill="#fdcb50"/></g><g><path d="m242.875 43.192c0-11.594 2.013-22.716 5.698-33.044h-57.573v148h128v-19.149c-43.611-10.065-76.125-49.139-76.125-95.807z" fill="#fd8f01"/></g></g><g><g><path d="m372 54.162h128v148h-128z" fill="#fdcb50" transform="matrix(-1 0 0 -1 872 256.324)"/></g><g><path d="m423.875 87.206c0-11.594 2.013-22.716 5.698-33.044h-57.573v148h128v-19.149c-43.611-10.064-76.125-49.138-76.125-95.807z" fill="#fd8f01"/></g></g></g><g><g><path d="m336.1 418.753c0 44.79-36.31 81.1-81.1 81.1s-81.1-36.31-81.1-81.1 36.31-81.1 81.1-81.1 81.1 36.309 81.1 81.1z" fill="#fd7da0"/></g><g><path d="m309.816 444.855c-44.79 0-81.1-36.31-81.1-81.1 0-7.928 1.158-15.581 3.279-22.823-33.674 9.861-58.277 40.959-58.277 77.821 0 44.79 36.31 81.1 81.1 81.1 36.863 0 67.96-24.602 77.821-58.277-7.242 2.121-14.895 3.279-22.823 3.279z" fill="#db4b86"/></g></g></g><g><g fill="#67ccd1"><path d="m84.168 311.162h-20v107.809c0 5.523 4.477 10 10 10h99.732v-20h-89.732z"/><path d="m245 258.162h20v79.799h-20z"/><path d="m434 311.162v97.809h-97.899v20h107.899c5.522 0 10-4.477 10-10v-107.809z"/></g><g><g fill="#052a75"><path d="m74.168 245.162c-20.953 0-38 17.047-38 38s17.047 38 38 38 38-17.047 38-38-17.047-38-38-38zm0 56c-9.925 0-18-8.075-18-18s8.075-18 18-18 18 8.075 18 18-8.075 18-18 18z"/><path d="m217 230.162c0 20.953 17.047 38 38 38s38-17.047 38-38-17.047-38-38-38-38 17.047-38 38zm56 0c0 9.925-8.075 18-18 18s-18-8.075-18-18 8.075-18 18-18 18 8.075 18 18z"/><path d="m444 245.162c-20.953 0-38 17.047-38 38s17.047 38 38 38 38-17.047 38-38-17.047-38-38-38zm0 56c-9.925 0-18-8.075-18-18s8.075-18 18-18 18 8.075 18 18-8.075 18-18 18z"/><path d="m138 44.162h-128c-5.523 0-10 4.477-10 10v148c0 5.523 4.477 10 10 10h128c5.523 0 10-4.477 10-10v-148c0-5.523-4.477-10-10-10zm-10 148h-108v-128h108z"/><path d="m500 44.162h-128c-5.522 0-10 4.477-10 10v148c0 5.523 4.478 10 10 10h128c5.522 0 10-4.477 10-10v-148c0-5.523-4.478-10-10-10zm-10 148h-108v-128h108z"/><path d="m191 168.147h128c5.522 0 10-4.477 10-10v-148c0-5.523-4.478-10-10-10h-128c-5.523 0-10 4.477-10 10v148c0 5.523 4.477 10 10 10zm10-148h108v128h-108z"/><path d="m255 327.653c-50.233 0-91.1 40.867-91.1 91.1s40.867 91.1 91.1 91.1 91.101-40.867 91.101-91.1-40.868-91.1-91.101-91.1zm0 162.2c-39.205 0-71.1-31.896-71.1-71.1s31.896-71.1 71.1-71.1c39.205 0 71.101 31.896 71.101 71.1s-31.896 71.1-71.101 71.1z"/></g><g fill="#fff"><path d="m94 94.162h-40c-5.523 0-10 4.477-10 10s4.477 10 10 10h40c5.523 0 10-4.477 10-10s-4.477-10-10-10z"/><path d="m94 142.162h-40c-5.523 0-10 4.477-10 10s4.477 10 10 10h40c5.523 0 10-4.477 10-10s-4.477-10-10-10z"/><path d="m416 114.162h40c5.522 0 10-4.477 10-10s-4.478-10-10-10h-40c-5.522 0-10 4.477-10 10s4.478 10 10 10z"/><path d="m456 142.162h-40c-5.522 0-10 4.477-10 10s4.478 10 10 10h40c5.522 0 10-4.477 10-10s-4.478-10-10-10z"/><path d="m235 70.147h40c5.522 0 10-4.477 10-10s-4.478-10-10-10h-40c-5.523 0-10 4.477-10 10s4.477 10 10 10z"/><path d="m235 118.147h40c5.522 0 10-4.477 10-10s-4.478-10-10-10h-40c-5.523 0-10 4.477-10 10s4.477 10 10 10z"/><path d="m287.786 385.785c-3.906-3.905-10.236-3.905-14.143 0l-18.735 18.735-18.735-18.735c-3.905-3.905-10.237-3.905-14.143 0-3.905 3.905-3.905 10.237 0 14.143l18.735 18.735-18.735 18.735c-3.905 3.905-3.905 10.237 0 14.143 1.953 1.952 4.512 2.929 7.071 2.929s5.119-.977 7.071-2.929l18.735-18.735 18.735 18.735c1.953 1.952 4.512 2.929 7.071 2.929s5.118-.977 7.071-2.929c3.905-3.905 3.905-10.237 0-14.143l-18.735-18.735 18.735-18.735c3.907-3.906 3.907-10.238.002-14.143z"/></g></g></g></g><g/><g/><g/><g/><g/><g/><g/><g/><g/><g/><g/><g/><g/><g/><g/></svg>