<svg id="Capa_1" enable-background="new 0 0 510 510" viewBox="0 0 510 510" xmlns="http://www.w3.org/2000/svg"><g><g><g><g><path d="m72.326 360.233c6.108 12.737 3.512 27.942-6.477 37.93l-18.346 18.346 45.987 45.987 18.346-18.346c9.988-9.988 25.193-12.585 37.93-6.477 12.737 6.108 27.942 3.512 37.93-6.477l40.319-40.319-108.893-108.893-40.319 40.319c-9.988 9.988-12.585 25.193-6.477 37.93z" fill="#67ccd1"/></g><g><path d="m135.503 275.199h44.597v154h-44.597z" fill="#27a2cc" transform="matrix(.707 -.707 .707 .707 -202.823 214.74)"/></g><g><path d="m249.709 399.207 23.404-23.404c3.69-3.69 3.69-9.674 0-13.364l-125.552-125.551c-3.69-3.69-9.674-3.69-13.364 0l-23.406 23.406c-3.689 3.689-3.689 9.671 0 13.361l125.553 125.553c3.691 3.69 9.674 3.69 13.365-.001z" fill="#67ccd1"/></g></g><g><g><path d="m435.408 120.58 27.089-27.089-45.987-45.988-27.089 27.089c-17.371-17.371-45.536-17.371-62.907 0l-44.529 44.529 108.894 108.894 44.529-44.529c17.371-17.37 17.371-45.535 0-62.906z" fill="#67ccd1"/></g><g><path d="m366.869 76.575c0-4.711.237-9.366.694-13.956-14.327-3.151-29.907.831-41.049 11.974l-44.529 44.529 108.894 108.894 36.563-36.563c-36.576-25.085-60.573-67.176-60.573-114.878z" fill="#27a2cc"/></g><g><path d="m260.292 110.793-23.404 23.404c-3.69 3.69-3.69 9.674 0 13.364l125.552 125.552c3.69 3.69 9.674 3.69 13.364 0l23.406-23.406c3.689-3.689 3.689-9.671 0-13.361l-125.554-125.553c-3.691-3.69-9.674-3.69-13.364 0z" fill="#27a2cc"/></g></g></g><g><g fill="#fdcb50"><path d="m174.37 51.104c-1.6-5.287-7.181-8.277-12.468-6.675-5.286 1.599-8.274 7.181-6.675 12.467l19.202 63.462c1.308 4.321 5.275 7.106 9.567 7.106.959 0 1.935-.139 2.9-.431 5.286-1.599 8.274-7.181 6.675-12.467z"/><path d="m120.359 174.43-63.462-19.202c-5.285-1.601-10.868 1.388-12.468 6.675-1.6 5.286 1.389 10.868 6.675 12.467l63.462 19.202c.966.292 1.94.431 2.9.431 4.292 0 8.261-2.786 9.567-7.106 1.6-5.286-1.388-10.868-6.674-12.467z"/><path d="m73.072 58.929c-3.906-3.905-10.236-3.905-14.143 0-3.905 3.905-3.905 10.237 0 14.143l69.505 69.505c1.953 1.953 4.512 2.929 7.071 2.929s5.118-.976 7.071-2.929c3.905-3.905 3.905-10.237 0-14.143z"/><path d="m335.571 389.642c-1.6-5.287-7.181-8.277-12.468-6.675-5.286 1.599-8.274 7.181-6.675 12.467l19.202 63.462c1.308 4.321 5.275 7.106 9.567 7.106.959 0 1.935-.139 2.9-.431 5.286-1.599 8.274-7.181 6.675-12.467z"/><path d="m458.897 335.63-63.462-19.203c-5.286-1.601-10.868 1.388-12.468 6.675-1.6 5.286 1.389 10.868 6.675 12.467l63.462 19.203c.966.292 1.94.431 2.9.431 4.292 0 8.26-2.786 9.567-7.106 1.6-5.285-1.388-10.867-6.674-12.467z"/><path d="m381.567 367.424c-3.906-3.905-10.236-3.905-14.143 0-3.905 3.905-3.905 10.237 0 14.143l69.505 69.505c1.953 1.953 4.512 2.929 7.071 2.929s5.118-.976 7.071-2.929c3.905-3.905 3.905-10.237 0-14.143z"/></g><g><g><g><path d="m174.01 273.337c-2.56 0-5.118-.976-7.071-2.929-3.905-3.905-3.905-10.237 0-14.142l52.559-52.56c3.906-3.904 10.236-3.905 14.143 0 3.905 3.905 3.905 10.237 0 14.143l-52.559 52.559c-1.954 1.952-4.512 2.929-7.072 2.929z" fill="#67ccd1"/></g><g><path d="m246.663 345.99c-2.56 0-5.118-.976-7.071-2.929-3.905-3.906-3.905-10.237 0-14.143l52.56-52.559c3.908-3.905 10.238-3.904 14.143 0 3.905 3.905 3.905 10.237 0 14.142l-52.56 52.559c-1.954 1.954-4.513 2.93-7.072 2.93z" fill="#67ccd1"/></g></g><g fill="#052a75"><path d="m507.072 2.929c-3.905-3.904-10.235-3.905-14.143 0l-53.426 53.425-15.922-15.922c-3.904-3.904-10.234-3.905-14.143 0l-20.668 20.669c-21.207-14.548-50.499-12.407-69.327 6.42l-37.458 37.458-1.258-1.258c-7.584-7.583-19.923-7.582-27.507 0l-23.403 23.403c-7.583 7.583-7.583 19.923 0 27.507l125.553 125.552c3.791 3.791 8.771 5.687 13.752 5.687s9.961-1.896 13.753-5.687l23.406-23.406c7.582-7.583 7.582-19.92 0-27.503l-1.259-1.259 37.458-37.458c18.828-18.829 20.969-48.121 6.421-69.328l20.668-20.669c3.905-3.905 3.905-10.237 0-14.142l-15.923-15.923 53.426-53.425c3.905-3.904 3.905-10.236 0-14.141zm-137.951 262.723-124.773-124.773 22.626-22.626 124.773 124.774zm59.216-152.143c-3.905 3.905-3.905 10.237 0 14.142 6.513 6.512 10.1 15.171 10.1 24.382 0 9.21-3.587 17.869-10.1 24.382l-37.458 37.458-94.752-94.752 37.458-37.458c13.443-13.444 35.32-13.444 48.764 0 3.906 3.905 10.236 3.905 14.143 0l20.019-20.018 31.846 31.845z"/><path d="m154.632 229.816c-3.674-3.673-8.558-5.697-13.753-5.697-5.196 0-10.08 2.024-13.753 5.697l-23.406 23.405c-7.582 7.583-7.582 19.92 0 27.503l1.259 1.259-33.247 33.247c-12.967 12.968-16.352 32.791-8.422 49.325 4.266 8.896 2.444 19.56-4.531 26.535l-18.347 18.347c-3.905 3.905-3.905 10.237 0 14.143l15.923 15.923-53.426 53.426c-3.905 3.905-3.905 10.237 0 14.143 1.953 1.952 4.512 2.928 7.071 2.928s5.118-.977 7.071-2.929l53.426-53.425 15.922 15.922c1.953 1.953 4.512 2.929 7.071 2.929s5.118-.977 7.071-2.929l18.347-18.347c6.978-6.976 17.643-8.795 26.535-4.531 16.535 7.93 36.356 4.545 49.325-8.422l33.247-33.247 1.258 1.258c3.674 3.673 8.559 5.697 13.753 5.697 5.195 0 10.079-2.023 13.753-5.697l23.404-23.404c7.583-7.583 7.583-19.923 0-27.506zm25.994 194.31c-6.975 6.975-17.64 8.797-26.535 4.531-16.536-7.931-36.357-4.546-49.325 8.422l-11.276 11.276-31.845-31.846 11.275-11.275c12.967-12.967 16.352-32.789 8.422-49.326-4.266-8.895-2.445-19.559 4.531-26.535l33.247-33.247 94.752 94.752zm62.401-32.379-124.774-124.774 22.626-22.625 124.773 124.773z"/></g></g></g></g><g/><g/><g/><g/><g/><g/><g/><g/><g/><g/><g/><g/><g/><g/><g/></svg>