<svg id="Capa_1" enable-background="new 0 0 509.892 509.892" viewBox="0 0 509.892 509.892" xmlns="http://www.w3.org/2000/svg"><g><g><g><g><g><g><g><g><g><path d="m428.224 478.009h-372.448c-25.281 0-45.776-20.494-45.776-45.775v-45.776h464v45.776c0 25.281-20.495 45.775-45.776 45.775z" fill="#67ccd1"/></g><g><path d="m428.224 478.009h-372.448c-25.281 0-45.776-20.494-45.776-45.775v-45.776h464v45.776c0 25.281-20.495 45.775-45.776 45.775z" fill="#67ccd1"/></g><g><g><path d="m125.647 386.458h-115.647v45.776c0 25.281 20.495 45.776 45.776 45.776h138.947c-34.657-18.785-60.355-51.983-69.076-91.552z" fill="#27a2cc"/></g></g><g><path d="m413.193 113.96h-340.771c-22.983 0-41.614 18.631-41.614 41.614v230.883h422.386v-232.497c-.001-22.091-17.91-40-40.001-40z" fill="#67ccd1"/></g><g><path d="m453.193 153.96c0-22.091-17.909-40-40-40h-128.763l-15.62 27.055c-13.483 23.354-13.483 52.369.001 75.723 13.483 23.353 38.61 37.86 65.576 37.86h118.806z" fill="#27a2cc"/></g><g><g><path d="m261.636 157.961h-186.829v228.497h334.385v-131.86z" fill="#fff"/></g></g><g><path d="m409.192 157.961h-147.556c-5.581 19.508-3.196 40.816 7.175 58.777 13.483 23.353 38.61 37.86 65.576 37.86h74.806v-96.637z" fill="#d2dcfd"/></g><g><path d="m282.9 432.234h-81.8c-12.641 0-22.888-10.247-22.888-22.888v-22.888h127.576v22.888c0 12.64-10.247 22.888-22.888 22.888z" fill="#fff"/></g></g></g></g></g></g></g><g><g><path d="m379.24 45.744-68.861 119.271c-10.67 18.482 2.668 41.584 24.008 41.584h137.722c21.341 0 34.679-23.102 24.008-41.584l-68.86-119.271c-10.671-18.482-37.347-18.482-48.017 0z" fill="#fdcb50"/></g><g><path d="m487.013 166.883c-61.516 0-111.732-48.373-114.692-109.155l-61.942 107.287c-10.67 18.482 2.667 41.583 24.008 41.583h137.722c20.79 0 33.975-21.924 24.776-40.143-3.254.278-6.546.428-9.872.428z" fill="#fd8f01"/></g></g></g><g><g><path d="m504.777 160.015-68.86-119.271c-6.819-11.811-19.032-18.862-32.67-18.861-13.637 0-25.849 7.051-32.667 18.861l-36.498 63.217h-261.66c-28.46 0-51.614 23.154-51.614 51.614v220.883h-10.808c-5.522 0-10 4.477-10 10v45.776c0 30.755 25.021 55.776 55.775 55.776h372.449c30.755 0 55.775-25.021 55.775-55.776v-45.776c0-5.523-4.478-10-10-10h-10.807v-159.86h8.916c13.638 0 25.851-7.051 32.669-18.861s6.82-25.912 0-37.722zm-40.777 272.219c0 19.727-16.049 35.776-35.775 35.776h-372.45c-19.726-.001-35.775-16.049-35.775-35.776v-35.776h444zm-20.807-55.776h-402.385v-220.883c0-17.432 14.182-31.614 31.614-31.614h250.113l-20.816 36.054c-6.818 11.811-6.818 25.912 0 37.723 6.819 11.81 19.031 18.861 32.668 18.861h108.807v159.859zm44.264-188.721c-3.203 5.549-8.94 8.861-15.348 8.861h-137.722c-6.406 0-12.144-3.312-15.347-8.861-3.204-5.549-3.204-12.174-.001-17.723l68.861-119.27c3.203-5.549 8.94-8.861 15.348-8.861 6.407 0 12.145 3.312 15.349 8.861l68.86 119.271c3.204 5.549 3.204 12.174 0 17.722z" fill="#052a75"/><g><path d="m403.246 172.596c-6.886.213-12.075-7.543-9.229-13.82 3.203-8.146 15.256-8.14 18.47 0 2.836 6.283-2.355 14.037-9.241 13.82z" fill="#fff"/></g><g><path d="m403.248 132.728c-5.522 0-10-4.477-10-10v-30.568c0-5.523 4.478-10 10-10s10 4.477 10 10v30.567c0 5.524-4.477 10.001-10 10.001z" fill="#fff"/></g></g><g fill="#b1d952"><path d="m199.418 291.323c-3.905 3.905-3.905 10.237 0 14.142 3.905 3.906 10.235 3.906 14.143 0 15.682-15.682 41.197-15.682 56.879 0 1.953 1.953 4.512 2.929 7.071 2.929s5.118-.977 7.071-2.929c3.905-3.905 3.905-10.237 0-14.142-23.48-23.478-61.684-23.478-85.164 0z"/><path d="m318.51 257.396c-20.437-20.437-47.608-31.692-76.51-31.692s-56.073 11.255-76.51 31.692c-3.905 3.905-3.905 10.237 0 14.142 3.906 3.905 10.236 3.905 14.143 0 16.658-16.659 38.808-25.833 62.367-25.833s45.709 9.175 62.367 25.833c1.953 1.953 4.512 2.929 7.071 2.929s5.118-.977 7.071-2.929c3.906-3.905 3.906-10.237.001-14.142z"/><path d="m232.767 327.856c-2.842 6.278 2.341 14.033 9.229 13.82 6.888.215 12.071-7.534 9.24-13.82-3.21-8.139-15.267-8.147-18.469 0z"/></g></g></g><g/><g/><g/><g/><g/><g/><g/><g/><g/><g/><g/><g/><g/><g/><g/></svg>