<svg id="Capa_1" enable-background="new 0 0 510.029 510.029" viewBox="0 0 510.029 510.029" xmlns="http://www.w3.org/2000/svg"><g><g><g><path d="m499.09 233.648c-11.793-134.795-130.626-234.507-265.421-222.714s-234.508 130.626-222.715 265.42 130.626 234.508 265.421 222.715 234.508-130.626 222.715-265.421zm-90.093 150.554c-66.576 79.342-181.396 94.3-265.549 37.994l-33.706-28.283c-70.063-73.097-75.271-188.77-8.695-268.112s181.396-94.3 265.549-37.994l33.706 28.283c70.063 73.096 75.271 188.77 8.695 268.112z" fill="#fd7da0"/></g><g><g><path d="m476.188 228.015h-100.729v-47.668h100.729c13.163 0 23.834 10.671 23.834 23.834 0 13.163-10.671 23.834-23.834 23.834z" fill="#d2dcfd"/></g><g><path d="m476.188 329.852h-100.729v-47.668h100.729c13.163 0 23.834 10.671 23.834 23.834 0 13.163-10.671 23.834-23.834 23.834z" fill="#d2dcfd"/></g><g><path d="m323.455 336.497h-101.402c-26.021 0-47.115-21.094-47.115-47.115v-68.761c0-26.021 21.094-47.115 47.115-47.115h101.403v162.991z" fill="#67ccd1"/></g><g><path d="m174.938 281.34h-32.773c-8.41 0-15.227-6.817-15.227-15.227v-22.223c0-8.41 6.817-15.227 15.227-15.227h32.773z" fill="#27a2cc"/></g><g><path d="m323.455 173.506h-86.207l-62.31 74.259v41.617c0 26.021 21.094 47.115 47.115 47.115h50.744l50.658-60.372z" fill="#27a2cc"/></g><g><path d="m349.472 358.554c14.369 0 26.017-11.648 26.017-26.017v-155.072c0-14.369-11.648-26.017-26.017-26.017-14.369 0-26.017 11.648-26.017 26.017v155.072c0 14.369 11.648 26.017 26.017 26.017z" fill="#67ccd1"/></g><g><path d="m375.489 214.112v-36.647c0-14.369-11.648-26.017-26.017-26.017-14.369 0-26.017 11.648-26.017 26.017v98.658z" fill="#27a2cc"/></g></g><g><path d="m366.596 87.807-256.854 306.106 7.81 24.403 25.896 3.88 256.854-306.106-1.753-24.404z" fill="#fd7da0"/></g></g><g fill="#052a75"><path d="m509.052 232.776c-.438-5.001-1.049-10.099-1.802-15.197 1.78-4.111 2.772-8.641 2.772-13.399 0-10.179-4.525-19.316-11.661-25.524-16.937-54.124-52.004-101.587-99.04-133.908-48.573-33.374-107.712-48.923-166.524-43.776-67.854 5.936-129.334 37.94-173.116 90.118s-64.625 118.282-58.689 186.136 37.942 129.334 90.119 173.117c46.35 38.892 103.68 59.683 163.473 59.681 7.519 0 15.083-.329 22.663-.992 51.792-4.531 100.263-24.382 140.173-57.405 38.153-31.57 66.061-73.019 80.872-120.024 7.177-6.209 11.731-15.372 11.731-25.584 0-4.743-.985-9.259-2.755-13.361 2.93-19.745 3.535-39.873 1.784-59.882zm-104.382 203.441c-36.77 30.425-81.434 48.714-129.166 52.891-62.528 5.473-123.451-13.737-171.537-54.085-48.085-40.348-77.58-97.007-83.051-159.539s13.737-123.452 54.085-171.537 97.007-77.58 159.539-83.051c54.197-4.742 108.696 9.584 153.454 40.338 39.165 26.912 69.322 65.205 86.291 109.113h-25.98c-9.908-22.689-23.599-43.247-40.784-61.177-1.965-2.051-4.706-3.159-7.55-3.075-2.839.094-5.504 1.391-7.33 3.567l-256.853 306.106c-1.826 2.176-2.64 5.026-2.239 7.838.4 2.812 1.978 5.321 4.339 6.901 34.79 23.277 75.486 35.496 117.015 35.496 9.738 0 19.528-.672 29.291-2.032 51.785-7.209 98.829-33.256 132.464-73.342 12.952-15.434 23.552-32.492 31.587-50.777h25.976c-14.493 37.444-38.292 70.498-69.551 96.365zm-19.898-265.87c-.967-4.827-2.9-9.381-5.698-13.403l21.511-25.636c10.17 11.93 18.761 24.995 25.683 39.039zm.717 67.668h59.732c1.013 11.359 1.01 22.793-.008 34.169h-59.723v-34.169zm-69.217 108.481c5.464 12.947 18.288 22.058 33.201 22.058 17.354 0 31.88-12.338 35.269-28.702h41.44c-6.715 13.525-15.037 26.234-24.845 37.922-30.447 36.286-73.029 59.863-119.901 66.388-42.812 5.962-86.042-2.662-122.948-24.332l61.535-73.334zm-79.469-20 76.652-91.35v91.35zm96.652 6.041v-121.226l31.573-37.628c.297 1.225.461 2.491.461 3.782v155.072c0 8.832-7.185 16.017-16.017 16.017s-16.017-7.185-16.017-16.017zm142.733-12.685h-90.699v-27.668h90.699c7.628 0 13.834 6.206 13.834 13.834s-6.206 13.834-13.834 13.834zm-10.876-81.837h10.876c4.606 0 8.998-.928 13.004-2.603 1.099 13.132 1.085 26.309-.004 39.373-4.005-1.673-8.396-2.601-13.001-2.601h-10.883c.923-11.378.925-22.806.008-34.169zm10.876-20h-90.699v-27.668h90.699c7.628 0 13.834 6.206 13.834 13.834s-6.206 13.834-13.834 13.834z"/><path d="m376.496 86.397c-.4-2.812-1.978-5.321-4.339-6.901-42.947-28.735-94.906-40.62-146.306-33.464-51.785 7.209-98.829 33.256-132.465 73.342s-51.118 90.938-49.225 143.187c1.878 51.862 22.605 100.967 58.361 138.272 1.889 1.971 4.498 3.08 7.219 3.08.11 0 .221-.002.331-.005 2.839-.094 5.504-1.391 7.33-3.567l256.854-306.106c1.826-2.176 2.641-5.026 2.24-7.838zm-267.036 292.295c-27.069-31.786-42.95-71.655-45.164-113.69h52.641v1.111c0 13.911 11.317 25.228 25.227 25.228h22.828c.198 5.949 1.282 11.732 3.272 17.27zm27.478-112.579v-22.223c0-2.882 2.345-5.227 5.227-5.227h22.773v32.678h-22.773c-2.883-.001-5.227-2.346-5.227-5.228zm48 22.628v-7.401-52.678-8.042c0-20.465 16.65-37.115 37.115-37.115h51.188zm105.085-125.235h-67.97c-30.837 0-56.028 24.568-57.066 55.157h-22.823c-13.91 0-25.227 11.317-25.227 25.227v1.112h-52.651c2.136-41.287 17.602-80.81 44.422-112.772 30.447-36.286 73.029-59.863 119.901-66.388 8.844-1.231 17.705-1.84 26.526-1.84 33.877 0 67.14 8.979 96.422 26.171z"/></g></g><g/><g/><g/><g/><g/><g/><g/><g/><g/><g/><g/><g/><g/><g/><g/></svg>