<svg id="Capa_1" enable-background="new 0 0 510 510" viewBox="0 0 510 510" xmlns="http://www.w3.org/2000/svg"><g><g><g><g><path d="m466.63 66.798h-169.26c-11.47 0-20.768 9.298-20.768 20.768v111.434h210.796v-111.434c0-11.47-9.298-20.768-20.768-20.768z" fill="#67ccd1"/></g><g><path d="m357.626 66.798h-60.256c-11.47 0-20.768 9.298-20.768 20.768v111.434h160.938c-45.249-27.661-76.349-76.185-79.914-132.202z" fill="#27a2cc"/></g><g><path d="m476.859 248h-189.718c-12.78 0-23.141-10.361-23.141-23.141v-25.859h236v25.859c0 12.78-10.361 23.141-23.141 23.141z" fill="#fff"/></g></g><g><g><g><g><circle cx="118" cy="140" fill="#b1d952" r="108"/></g></g></g><g><path d="m91.351 56.002c0-7.114.447-14.124 1.308-21.005-47.419 11.403-82.659 54.084-82.659 105.003 0 59.647 48.353 108 108 108 31.882 0 60.533-13.818 80.302-35.787-62.579-24.273-106.951-85.057-106.951-156.211z" fill="#91b706"/></g></g><g><path d="m308.201 395.539-33.941-33.941-24.26 24.259-24.26-24.259-33.941 33.941 24.26 24.26-24.26 24.259 33.941 33.942 24.26-24.26 24.26 24.26 33.941-33.942-24.26-24.259z" fill="#fd7da0"/></g></g><g><g><g><path d="m211.016 429.799h-93.016c-5.523 0-10-4.477-10-10v-171.799h20v161.799h83.016z" fill="#67ccd1"/></g><g><path d="m382 429.799h-91.397v-20h81.397v-161.799h20v171.799c0 5.523-4.477 10-10 10z" fill="#67ccd1"/></g></g><g><g><path d="m334.634 150.968c-2.559 0-5.119-.976-7.071-2.929-3.905-3.905-3.905-10.237 0-14.143l28.409-28.409c3.905-3.905 10.237-3.905 14.143 0 3.905 3.905 3.905 10.237 0 14.143l-28.409 28.409c-1.954 1.953-4.513 2.929-7.072 2.929z" fill="#fff"/></g><g><path d="m436.367 123.567c-2.559 0-5.119-.976-7.071-2.929-3.905-3.905-3.905-10.237 0-14.143l39.61-39.61c3.905-3.905 10.237-3.905 14.143 0 3.905 3.905 3.905 10.237 0 14.143l-39.61 39.61c-1.954 1.953-4.513 2.929-7.072 2.929z" fill="#fff"/></g><g><path d="m350.934 209c-2.559 0-5.118-.976-7.071-2.929-3.905-3.905-3.906-10.237 0-14.142l44.798-44.798c3.905-3.905 10.237-3.906 14.142 0s3.906 10.237 0 14.142l-44.798 44.798c-1.952 1.952-4.512 2.929-7.071 2.929z" fill="#fff"/></g></g><g fill="#052a75"><path d="m500 189h-2.602v-101.434c0-16.966-13.803-30.768-30.768-30.768h-169.26c-16.965 0-30.768 13.802-30.768 30.768v101.434h-2.602c-5.523 0-10 4.477-10 10v25.859c0 18.274 14.867 33.141 33.141 33.141h189.719c18.273 0 33.14-14.867 33.14-33.141v-25.859c0-5.523-4.477-10-10-10zm-213.398-101.434c0-5.938 4.831-10.768 10.768-10.768h169.26c5.938 0 10.768 4.831 10.768 10.768v101.434h-190.796zm203.398 137.293c0 7.246-5.895 13.141-13.141 13.141h-189.718c-7.246 0-13.141-5.895-13.141-13.141v-15.859h2.602 210.796 2.602z"/><path d="m236 140c0-65.065-52.935-118-118-118s-118 52.934-118 118 52.935 118 118 118 118-52.935 118-118zm-20 0c0 8.999-1.226 17.716-3.508 26h-51.495c.646-8.614.966-17.357.966-26 0-8.86-.334-17.567-.968-26h51.496c2.283 8.284 3.509 17.001 3.509 26zm-112.477-73.368c6.432-20.451 13.055-24.632 14.477-24.632s8.045 4.181 14.477 24.632c2.545 8.092 4.606 17.337 6.155 27.368h-41.263c1.549-10.03 3.61-19.276 6.154-27.368zm-13.539-20.545c-6 12.757-10.247 29.563-12.84 47.913h-45.655c12.212-22.874 33.228-40.362 58.495-47.913zm-69.984 93.913c0-8.999 1.226-17.716 3.508-26h51.495c-.646 8.614-.966 17.357-.966 26 0 8.86.334 17.567.968 26h-51.497c-2.282-8.284-3.508-17.001-3.508-26zm11.489 46h45.673c1.746 12.233 4.189 23.533 7.282 33.368 1.761 5.601 3.639 10.411 5.587 14.559-25.288-7.544-46.323-25.04-58.542-47.927zm100.988 27.368c-6.432 20.451-13.055 24.632-14.477 24.632s-8.045-4.181-14.477-24.632c-2.545-8.092-4.606-17.337-6.155-27.368h41.263c-1.549 10.03-3.61 19.276-6.154 27.368zm8.471-47.368h-45.896c-.668-8.379-1.016-17.096-1.016-26s.348-17.621 1.016-26h45.895c.668 8.379 1.016 17.096 1.016 26s-.347 17.62-1.015 26zm63.563-72h-45.673c-1.746-12.233-4.189-23.533-7.282-33.368-1.761-5.601-3.639-10.411-5.587-14.559 25.288 7.543 46.323 25.039 58.542 47.927zm-58.495 139.913c6-12.757 10.247-29.563 12.84-47.913h45.655c-12.212 22.873-33.228 40.362-58.495 47.913z"/><path d="m315.272 388.468-33.941-33.941c-3.905-3.905-10.237-3.905-14.143 0l-17.188 17.188-17.188-17.189c-3.905-3.905-10.237-3.905-14.143 0l-33.941 33.941c-3.905 3.905-3.905 10.237 0 14.143l17.189 17.188-17.189 17.188c-3.905 3.905-3.905 10.237 0 14.143l33.941 33.941c3.905 3.905 10.237 3.905 14.143 0l17.188-17.188 17.188 17.189c1.953 1.953 4.512 2.929 7.071 2.929s5.119-.976 7.071-2.929l33.941-33.941c3.905-3.905 3.905-10.237 0-14.143l-17.189-17.188 17.189-17.188c3.907-3.906 3.907-10.238.001-14.143zm-38.402 38.402 17.189 17.188-19.799 19.799-17.188-17.189c-1.953-1.953-4.512-2.929-7.071-2.929s-5.119.976-7.071 2.929l-17.188 17.189-19.799-19.799 17.189-17.188c3.905-3.905 3.905-10.237 0-14.143l-17.189-17.188 19.799-19.799 17.188 17.189c3.905 3.905 10.237 3.905 14.143 0l17.188-17.189 19.799 19.799-17.189 17.188c-3.906 3.906-3.906 10.238-.001 14.143z"/></g></g></g><g/><g/><g/><g/><g/><g/><g/><g/><g/><g/><g/><g/><g/><g/><g/></svg>