<svg id="Capa_1" enable-background="new 0 0 510.045 510.045" viewBox="0 0 510.045 510.045" xmlns="http://www.w3.org/2000/svg"><g><g><g><g><path d="m379.421 232.778 31.166-31.166.003-.003c-39.813-39.813-94.814-64.438-155.567-64.438s-115.754 24.625-155.567 64.438c0 0 31.113 31.113 31.113 31.113 31.851-31.851 75.852-51.551 124.454-51.551s92.603 19.7 124.454 51.55" fill="#b1d952"/></g><g><path d="m229.255 183.054c8.412-1.234 17.013-1.883 25.768-1.883 48.602 0 92.603 19.7 124.454 51.55l-.056.056 31.166-31.166.003-.003c-37.078-37.078-87.332-60.972-143.133-64.081z" fill="#91b706"/></g><g><path d="m348.322 263.876-31.073 31.073c-34.367-34.367-90.086-34.367-124.453 0 0 0-31.114-31.114-31.114-31.114 23.888-23.888 56.889-38.663 93.34-38.663s69.452 14.775 93.34 38.663" fill="#91b706"/></g><g><path d="m255.023 313.769c24.301 0 44 19.699 44 44s-19.699 44-44 44-44-19.699-44-44 19.699-44 44-44z" fill="#b1d952"/></g><g><path d="m211.023 357.769c0 13.515 6.099 25.601 15.688 33.672l56.557-67.402c-7.643-6.407-17.491-10.27-28.245-10.27-24.301 0-44 19.699-44 44z" fill="#91b706"/></g></g><g><path d="m10.955 276.376c11.793 134.795 130.626 234.507 265.421 222.714s234.507-130.626 222.714-265.42-130.626-234.508-265.421-222.715-234.507 130.626-222.714 265.421zm132.494 145.841 256.854-306.106c70.063 73.097 75.271 188.77 8.695 268.112s-181.396 94.3-265.549 37.994zm-42.401-296.395c66.576-79.342 181.396-94.3 265.549-37.994l-256.854 306.107c-70.063-73.097-75.271-188.771-8.695-268.113z" fill="#fd7da0"/></g></g><g fill="#052a75"><path d="m509.052 232.798c-5.937-67.854-37.941-129.334-90.119-173.117s-118.281-64.627-186.135-58.688c-67.854 5.936-129.334 37.941-173.117 90.119s-64.625 118.281-58.688 186.135 37.941 129.334 90.119 173.117c46.35 38.892 103.681 59.681 163.474 59.681 7.519 0 15.084-.329 22.662-.992 67.854-5.937 129.335-37.941 173.117-90.119 43.781-52.178 64.623-118.282 58.687-186.136zm-74.009 173.28c-40.348 48.085-97.007 77.58-159.538 83.051-62.532 5.468-123.452-13.737-171.538-54.085-48.085-40.348-77.58-97.007-83.051-159.539s13.737-123.452 54.085-171.537c40.349-48.085 97.007-77.58 159.539-83.051 6.988-.611 13.953-.915 20.885-.915 55.099 0 107.94 19.161 150.651 55 48.085 40.349 77.58 97.007 83.051 159.539 5.472 62.533-13.736 123.452-54.084 171.537z"/><path d="m407.522 109.191c-1.966-2.05-4.687-3.157-7.55-3.075-2.839.094-5.505 1.391-7.33 3.567l-256.854 306.106c-1.826 2.176-2.64 5.026-2.239 7.838.4 2.812 1.978 5.321 4.339 6.901 34.79 23.277 75.486 35.496 117.015 35.496 9.738 0 19.528-.672 29.291-2.031 51.785-7.209 98.828-33.256 132.464-73.342 33.637-40.085 51.118-90.938 49.226-143.187-1.88-51.863-22.607-100.968-58.362-138.273zm-45.037 67.546c12.065 7.2 23.389 15.574 33.794 25.039l-16.99 16.991c-9.969-8.962-20.83-16.781-32.45-23.384zm-57.87 68.966c10.634 4.725 20.457 10.875 29.322 18.416l-17.045 17.044c-8.554-6.978-18.166-12.407-28.496-16.132zm-49.592 78.066c18.748 0 34 15.252 34 34s-15.252 34-34 34-34-15.252-34-34 15.252-34 34-34zm146.314 54.026c-30.447 36.286-73.029 59.863-119.901 66.388-42.809 5.958-86.042-2.664-122.948-24.332l43.518-51.863c4.792 24.904 26.736 43.78 53.017 43.78 29.775 0 54-24.224 54-54 0-29.49-23.766-53.52-53.148-53.978l18.584-22.147c13.509 3.452 25.769 10.425 35.72 20.377 1.953 1.953 4.512 2.929 7.071 2.929s5.118-.977 7.071-2.929l31.073-31.073c.028-.029.097-.098.124-.127 3.825-3.918 3.788-10.184-.084-14.056-11.073-11.074-23.651-20.088-37.508-26.923l15.817-18.85c13.842 7.464 26.526 16.832 37.792 27.937.254.325.531.638.831.936 1.951 1.943 4.503 2.914 7.056 2.914 2.56 0 5.119-.977 7.071-2.929l31.168-31.168c3.905-3.905 3.905-10.237 0-14.143-12.734-12.734-26.876-23.905-42.156-33.316l25.08-29.889c27.744 32.582 43.747 73.661 45.312 116.855 1.713 47.292-14.113 93.321-44.56 129.607z"/><path d="m376.497 86.418c-.401-2.812-1.979-5.321-4.34-6.901-42.946-28.735-94.905-40.617-146.305-33.464-51.785 7.209-98.829 33.256-132.465 73.342s-51.118 90.938-49.225 143.188c1.878 51.862 22.605 100.967 58.361 138.272 1.889 1.971 4.498 3.08 7.219 3.08.11 0 .221-.002.331-.005 2.839-.094 5.504-1.391 7.33-3.567l256.854-306.107c1.826-2.176 2.641-5.026 2.24-7.838zm-184.344 193.746-16.043-16.043c14.844-12.615 32.331-21.377 51.108-25.746zm89.818-107.04c-8.893-1.29-17.931-1.953-26.948-1.953-46.336 0-90.085 16.829-124.269 47.594l-16.992-16.992c38.733-35.288 88.511-54.602 141.26-54.602 15.091 0 30.07 1.608 44.709 4.786zm32.113-38.271c-19.216-5.094-39.051-7.682-59.061-7.682-61.436 0-119.195 23.924-162.638 67.366-1.875 1.875-2.929 4.419-2.929 7.071s1.054 5.196 2.929 7.071l31.113 31.113c1.953 1.952 4.512 2.929 7.071 2.929s5.119-.977 7.071-2.929c31.354-31.354 73.042-48.622 117.383-48.622 3.825 0 7.655.136 11.472.397l-20.03 23.871c-34.69 2.064-67.157 16.63-91.853 41.325-3.905 3.905-3.905 10.237 0 14.143l24.637 24.637-69.788 83.169c-27.748-32.583-43.747-73.658-45.312-116.855-1.713-47.293 14.111-93.322 44.559-129.608 30.447-36.286 73.029-59.863 119.901-66.388 8.844-1.231 17.705-1.84 26.526-1.84 33.877 0 67.14 8.979 96.422 26.171z"/></g></g><g/><g/><g/><g/><g/><g/><g/><g/><g/><g/><g/><g/><g/><g/><g/></svg>