<svg id="Capa_1" enable-background="new 0 0 510 510" viewBox="0 0 510 510" xmlns="http://www.w3.org/2000/svg"><g><g><g><g><path d="m74.934 32c-11.648 0-21.173 9.283-21.473 20.927l-6.367 247.073h55.68l-6.366-247.073c-.3-11.644-9.826-20.927-21.474-20.927z" fill="#d2dcfd"/></g><g><path d="m435.066 32c11.648 0 21.173 9.283 21.473 20.927l6.367 247.073h-55.68l6.367-247.073c.299-11.644 9.825-20.927 21.473-20.927z" fill="#d2dcfd"/></g></g><g><g><path d="m32 434h446c12.15 0 22-9.85 22-22v-90c0-12.15-9.85-22-22-22h-446c-12.15 0-22 9.85-22 22v90c0 12.15 9.85 22 22 22z" fill="#fff"/></g><g><path d="m211.028 300h-179.028c-12.15 0-22 9.85-22 22v90c0 12.15 9.85 22 22 22h251.374c-40.654-31.67-68.021-79.587-72.346-134z" fill="#d2dcfd"/></g></g><g><g><path d="m54 434h64v44h-64z" fill="#93b2f4"/></g><g><path d="m392 434h64v44h-64z" fill="#93b2f4" transform="matrix(-1 0 0 -1 848 912)"/></g></g></g><g><g fill="#052a75"><path d="m478 290h-5.348l-6.116-237.33c-.443-17.198-14.266-30.67-31.471-30.67-17.203 0-31.026 13.472-31.47 30.669l-6.116 237.331h-284.958l-6.116-237.33c-.444-17.198-14.267-30.67-31.47-30.67-17.205 0-31.028 13.472-31.471 30.669l-6.116 237.331h-5.348c-17.645 0-32 14.355-32 32v90c0 17.645 14.355 32 32 32h12v34c0 5.523 4.478 10 10 10h64c5.522 0 10-4.477 10-10v-34h254v34c0 5.523 4.478 10 10 10h64c5.522 0 10-4.477 10-10v-34h12c17.645 0 32-14.355 32-32v-90c0-17.645-14.355-32-32-32zm-54.41-236.815c.161-6.272 5.202-11.185 11.475-11.185 6.274 0 11.315 4.913 11.477 11.185l6.103 236.815h-35.158zm-360.132 0c.161-6.272 5.202-11.185 11.477-11.185 6.273 0 11.314 4.913 11.476 11.185l6.102 236.815h-35.158zm44.542 414.815h-44v-24h44zm338 0h-44v-24h44zm44-56c0 6.617-5.383 12-12 12h-446c-6.617 0-12-5.383-12-12v-90c0-6.617 5.383-12 12-12h446c6.617 0 12 5.383 12 12z"/><path d="m87 357h-33c-5.522 0-10 4.477-10 10s4.478 10 10 10h33c5.522 0 10-4.477 10-10s-4.478-10-10-10z"/><path d="m164 357h-33c-5.522 0-10 4.477-10 10s4.478 10 10 10h33c5.522 0 10-4.477 10-10s-4.478-10-10-10z"/><path d="m241 357h-33c-5.522 0-10 4.477-10 10s4.478 10 10 10h33c5.522 0 10-4.477 10-10s-4.478-10-10-10z"/></g><g><g fill="#b1d952"><circle cx="346" cy="367" r="22"/><path d="m195.729 145.73c-3.905 3.905-3.905 10.237 0 14.142 3.906 3.906 10.236 3.906 14.143 0 24.953-24.954 65.557-24.954 90.51 0 1.953 1.953 4.512 2.929 7.071 2.929s5.118-.977 7.071-2.929c3.905-3.905 3.905-10.237 0-14.142-32.752-32.751-86.043-32.751-118.795 0z"/><path d="m332.908 127.345c1.953 1.953 4.512 2.929 7.071 2.929s5.119-.977 7.071-2.929c3.905-3.905 3.905-10.237 0-14.143-24.554-24.554-57.199-38.076-91.924-38.076s-67.37 13.522-91.924 38.076c-3.905 3.905-3.905 10.237 0 14.143 3.906 3.905 10.236 3.905 14.143 0 20.775-20.776 48.399-32.218 77.781-32.218s57.007 11.442 77.782 32.218z"/><path d="m379.578 80.676c-68.623-68.622-180.279-68.622-248.902 0-3.905 3.905-3.905 10.237 0 14.143 3.906 3.905 10.236 3.905 14.143 0 60.824-60.825 159.793-60.825 220.617 0 1.953 1.953 4.512 2.929 7.071 2.929s5.118-.976 7.071-2.929c3.905-3.905 3.905-10.237 0-14.143z"/></g><g fill="#fd7da0"><circle cx="434" cy="367" r="22"/><path d="m282.861 176.958c-3.906-3.905-10.236-3.905-14.143 0l-14.026 14.026-14.026-14.026c-3.906-3.905-10.236-3.905-14.143 0-3.905 3.905-3.905 10.237 0 14.143l14.026 14.026-14.026 14.026c-3.905 3.905-3.905 10.237 0 14.143 1.953 1.953 4.512 2.929 7.071 2.929s5.118-.976 7.071-2.929l14.026-14.026 14.026 14.026c1.953 1.953 4.512 2.929 7.071 2.929s5.118-.976 7.071-2.929c3.905-3.905 3.905-10.237 0-14.143l-14.026-14.026 14.026-14.026c3.908-3.905 3.908-10.237.002-14.143z"/></g></g></g></g><g/><g/><g/><g/><g/><g/><g/><g/><g/><g/><g/><g/><g/><g/><g/></svg>