<svg id="Capa_1" enable-background="new 0 0 512 512" viewBox="0 0 512 512" xmlns="http://www.w3.org/2000/svg"><g><path d="m480.627 447.337h-449.254c-11.804 0-21.373-9.569-21.373-21.373v-339.928c0-11.804 9.569-21.373 21.373-21.373h449.254c11.804 0 21.373 9.569 21.373 21.373v339.929c0 11.803-9.569 21.372-21.373 21.372z" fill="#fff"/><path d="m88.202 256c0-71.437 22.897-137.518 61.732-191.337h-118.561c-11.804 0-21.373 9.569-21.373 21.373v339.929c0 11.804 9.569 21.373 21.373 21.373h118.561c-38.834-53.82-61.732-119.901-61.732-191.338z" fill="#d2dcfd"/><path d="m31.373 64.663c-11.804 0-21.373 9.569-21.373 21.373v169.964l40.908-24.45 37.294 24.45h227.592l29.432-95.024-29.432-96.313z" fill="#67ccd1"/><path d="m31.373 64.663c-11.804 0-21.373 9.569-21.373 21.373v169.964h78.202c0-71.437 22.897-137.518 61.732-191.337z" fill="#27a2cc"/><path d="m502 86.036c0-11.804-9.569-21.373-21.373-21.373h-164.832v191.337h186.205z" fill="#fd6050"/><path d="m480.627 54.663h-449.254c-17.299 0-31.373 14.073-31.373 31.373v339.929c0 17.299 14.074 31.373 31.373 31.373h449.254c17.299 0 31.373-14.074 31.373-31.373v-339.929c0-17.3-14.074-31.373-31.373-31.373zm11.373 371.301c0 6.271-5.102 11.373-11.373 11.373h-449.254c-6.271 0-11.373-5.102-11.373-11.373v-339.928c0-6.271 5.102-11.373 11.373-11.373h449.254c6.271 0 11.373 5.102 11.373 11.373z" fill="#052a75"/><g fill="#fd6050"><path d="m345.226 305.522c-15.502 0-28.113 12.594-28.113 28.073v54.22c0 5.523 4.477 10 10 10s10-4.477 10-10v-17.729h16.228v17.729c0 5.523 4.477 10 10 10s10-4.477 10-10v-54.22c-.001-15.479-12.612-28.073-28.115-28.073zm-8.113 44.564v-16.491c0-4.452 3.64-8.073 8.114-8.073s8.114 3.622 8.114 8.073v16.491z"/><path d="m294.971 325.522c5.523 0 10-4.477 10-10s-4.477-10-10-10h-29.434c-5.523 0-10 4.477-10 10v72.293c0 5.523 4.477 10 10 10h29.434c5.523 0 10-4.477 10-10s-4.477-10-10-10h-19.434v-16.146h16.142c5.523 0 10-4.477 10-10s-4.477-10-10-10h-16.142v-16.147z"/><path d="m165.087 305.522h-35.351c-5.523 0-10 4.477-10 10s4.477 10 10 10h7.675v62.293c0 5.523 4.477 10 10 10s10-4.477 10-10v-62.293h7.675c5.523 0 10-4.477 10-10s-4.476-10-9.999-10z"/><path d="m240.457 335.531c0-16.547-13.462-30.009-30.009-30.009h-15.271c-5.523 0-10 4.477-10 10v72.263c0 5.523 4.477 10 10 10s10-4.477 10-10v-21.766l16.85 26.273c1.91 2.978 5.134 4.603 8.427 4.603 1.848 0 3.718-.512 5.389-1.584 4.649-2.981 6-9.167 3.019-13.816l-12.937-20.171c8.702-5.268 14.532-14.841 14.532-25.793zm-35.28-10.009h5.271c5.519 0 10.009 4.49 10.009 10.107 0 5.519-4.49 10.009-10.009 10.009h-5.271z"/><path d="m86.283 341.669h-6.648c-4.598 0-8.338-3.121-8.338-6.958 0-5.067 4.823-9.189 10.751-9.189h1.823c3.996 0 7.647 1.896 9.528 4.947 2.899 4.702 9.059 6.162 13.761 3.264 4.701-2.899 6.162-9.06 3.264-13.761-5.496-8.914-15.67-14.451-26.553-14.451h-1.823c-16.957 0-30.751 13.094-30.751 29.189 0 14.865 12.712 26.958 28.338 26.958h6.648c4.598 0 8.339 3.121 8.339 6.958 0 5.067-4.823 9.189-10.751 9.189h-1.823c-4.47 0-8.525-2.42-10.091-6.022-2.202-5.065-8.095-7.386-13.158-5.184-5.065 2.202-7.386 8.093-5.184 13.158 4.767 10.964 15.927 18.049 28.433 18.049h1.823c16.957 0 30.751-13.094 30.751-29.189 0-14.865-12.713-26.958-28.339-26.958z"/><path d="m452.967 305.781c-4.533-1.055-9.189 1.158-11.239 5.333l-16.237 33.063-16.237-33.063c-2.05-4.175-6.709-6.386-11.239-5.333-4.53 1.052-7.737 5.089-7.737 9.741v72.293c0 5.523 4.477 10 10 10s10-4.477 10-10v-29.244l6.237 12.7c1.681 3.423 5.163 5.592 8.976 5.592s7.295-2.169 8.976-5.592l6.237-12.7v29.244c0 5.523 4.477 10 10 10s10-4.477 10-10v-72.293c0-4.651-3.207-8.689-7.737-9.741z"/></g><path d="m87.946 187.123h-16.97v-62.293c0-5.523-4.477-10-10-10s-10 4.477-10 10v72.293c0 5.523 4.477 10 10 10h26.971c5.523 0 10-4.477 10-10s-4.478-10-10.001-10z" fill="#fff"/><path d="m264.819 134.829c5.523 0 10-4.477 10-10s-4.477-10-10-10h-29.434c-5.523 0-10 4.477-10 10v72.293c0 5.523 4.477 10 10 10h29.434c5.523 0 10-4.477 10-10s-4.477-10-10-10h-19.434v-16.146h16.142c5.523 0 10-4.477 10-10s-4.477-10-10-10h-16.142v-16.147z" fill="#fff"/><path d="m124.037 114.829c-5.523 0-10 4.477-10 10v72.293c0 5.523 4.477 10 10 10s10-4.477 10-10v-72.293c0-5.523-4.477-10-10-10z" fill="#fff"/><path d="m202.997 115.009c-5.423-1.046-10.666 2.507-11.71 7.93l-10.814 56.186-10.813-56.186c-1.043-5.424-6.288-8.972-11.71-7.93-5.423 1.044-8.974 6.287-7.93 11.71l12.596 65.448c1.695 8.806 9.038 14.956 17.857 14.956s16.162-6.15 17.857-14.956l12.596-65.448c1.045-5.423-2.506-10.666-7.929-11.71z" fill="#fff"/><g fill="#fff"><path d="m465.799 137.187c-16.575-16.571-38.559-25.698-61.902-25.698s-45.328 9.126-61.902 25.698c-3.906 3.905-3.906 10.236-.001 14.142 3.904 3.905 10.236 3.906 14.142.001 12.797-12.795 29.76-19.841 47.762-19.841s34.964 7.046 47.761 19.841c1.953 1.952 4.511 2.928 7.07 2.928 2.56 0 5.119-.977 7.072-2.93 3.905-3.905 3.904-10.236-.002-14.141z"/><path d="m403.898 150.502c-12.973 0-25.18 5.062-34.375 14.253-3.906 3.905-3.906 10.236-.002 14.143 1.953 1.953 4.512 2.93 7.072 2.93 2.559 0 5.118-.976 7.07-2.928 5.417-5.416 12.603-8.398 20.234-8.398s14.817 2.982 20.233 8.397c3.906 3.905 10.237 3.905 14.142-.001s3.904-10.237-.001-14.142c-9.193-9.192-21.401-14.254-34.373-14.254z"/><circle cx="403.898" cy="199.172" r="9.998"/></g></g><g/><g/><g/><g/><g/><g/><g/><g/><g/><g/><g/><g/><g/><g/><g/></svg>