<svg id="Capa_1" enable-background="new 0 0 512 512" viewBox="0 0 512 512" xmlns="http://www.w3.org/2000/svg"><g><g><g><path d="m471.878 422.572h-169.749c-3.724 0-7.202 1.861-9.268 4.96l-27.592 41.389c-4.409 6.614-14.127 6.614-18.536 0l-27.592-41.389c-2.066-3.099-5.544-4.96-9.268-4.96h-169.751c-16.636 0-30.122-13.486-30.122-30.122v-324.209c0-16.636 13.486-30.122 30.122-30.122h431.755c16.636 0 30.122 13.486 30.122 30.122v324.209c.001 16.636-13.485 30.122-30.121 30.122z" fill="#fdcb50"/><path d="m82.471 236.04c0-73.373 22.429-141.504 60.799-197.922h-103.148c-16.636.001-30.122 13.487-30.122 30.123v324.209c0 16.636 13.486 30.122 30.122 30.122h95.715c-33.819-54.097-53.366-118.031-53.366-186.532z" fill="#fd8f01"/><path d="m170.618 218.739-50.173-50.173 50.173-50.173c47.155-47.155 123.609-47.155 170.764 0l50.173 50.173-50.173 50.173c-47.155 47.155-123.609 47.155-170.764 0z" fill="#fff"/><circle cx="256" cy="168.566" fill="#93b2f4" r="85.539"/></g><circle cx="256" cy="168.566" fill="#6864f7" r="35.849"/></g><g><g><g fill="#fd6050"><path d="m369.045 279.471c-4.525-1.054-9.188 1.157-11.238 5.333l-21.874 44.541-21.872-44.541c-2.051-4.175-6.708-6.383-11.239-5.333-4.53 1.052-7.737 5.089-7.737 9.741v88.453c0 5.523 4.478 10 10 10s10-4.477 10-10v-45.403l11.872 24.176c1.682 3.423 5.163 5.592 8.977 5.592s7.295-2.169 8.976-5.592l11.874-24.178v45.404c0 5.523 4.478 10 10 10s10-4.477 10-10v-88.453c-.002-4.651-3.209-8.688-7.739-9.74z"/><path d="m165.102 278.053h-19.884c-5.522 0-10 4.477-10 10s4.478 10 10 10h9.884v78.454c0 5.523 4.478 10 10 10s10-4.477 10-10v-88.454c0-5.523-4.478-10-10-10z"/><path d="m231.642 278.053c-19.447 0-35.27 15.822-35.27 35.27v37.914c0 19.448 15.822 35.27 35.27 35.27s35.27-15.822 35.27-35.27v-37.914c-.001-19.448-15.823-35.27-35.27-35.27zm15.269 73.184c0 8.42-6.85 15.27-15.27 15.27s-15.27-6.85-15.27-15.27v-37.914c0-8.42 6.85-15.27 15.27-15.27s15.27 6.85 15.27 15.27z"/></g><g fill="#052a75"><path d="m471.878 28.119h-431.756c-22.123 0-40.122 17.999-40.122 40.122v324.209c0 22.124 17.999 40.122 40.122 40.122h169.749c.382 0 .736.19.948.507l27.592 41.389c3.93 5.894 10.505 9.413 17.589 9.413s13.659-3.519 17.589-9.413l27.592-41.388c.212-.318.566-.508.948-.508h169.749c22.123 0 40.122-17.999 40.122-40.122v-324.209c0-22.123-17.999-40.122-40.122-40.122zm20.122 364.331c0 11.095-9.026 20.122-20.122 20.122h-169.749c-7.083 0-13.659 3.519-17.589 9.414l-27.592 41.388c-.084.125-.338.507-.948.507s-.864-.382-.948-.507l-27.592-41.389c-3.93-5.894-10.506-9.413-17.589-9.413h-169.749c-11.096 0-20.122-9.027-20.122-20.122v-324.209c0-11.096 9.026-20.123 20.122-20.123h431.756c11.096 0 20.122 9.027 20.122 20.123z"/><path d="m348.453 111.322c-24.695-24.695-57.529-38.295-92.453-38.295s-67.758 13.6-92.453 38.295l-50.173 50.173c-3.905 3.905-3.905 10.237 0 14.143l50.173 50.173c24.695 24.695 57.529 38.295 92.453 38.295s67.758-13.6 92.453-38.295l50.173-50.173c3.905-3.905 3.905-10.237 0-14.143zm-14.142 100.345c-43.18 43.181-113.441 43.181-156.621 0l-43.102-43.102 43.102-43.102c43.18-43.181 113.441-43.181 156.621 0l43.102 43.102z"/></g></g></g></g><g/><g/><g/><g/><g/><g/><g/><g/><g/><g/><g/><g/><g/><g/><g/></svg>