<svg id="Capa_1" enable-background="new 0 0 512 512" viewBox="0 0 512 512" xmlns="http://www.w3.org/2000/svg"><g><g><g><circle cx="256" cy="108.464" fill="#fff" r="98.464"/></g><path d="m329.761 168.913c-74.123 0-134.211-60.088-134.211-134.211 0-1.343.026-2.679.065-4.012-23.169 18.015-38.079 46.152-38.079 77.774 0 54.38 44.084 98.464 98.464 98.464 31.622 0 59.759-14.909 77.774-38.079-1.333.039-2.67.064-4.013.064z" fill="#d2dcfd"/><g><g><g><g><circle cx="65.28" cy="415.068" fill="#fdbeb9" r="27.501"/></g><path d="m105.545 502h-80.53v-19.166c0-22.238 18.027-40.265 40.265-40.265 22.238 0 40.265 18.027 40.265 40.265z" fill="#fdcb50"/></g><g><g><circle cx="192.427" cy="415.068" fill="#d46b5c" r="27.501"/></g><path d="m232.692 502h-80.53v-19.166c0-22.238 18.027-40.265 40.265-40.265 22.238 0 40.265 18.027 40.265 40.265z" fill="#67ccd1"/></g><g><g><circle cx="319.573" cy="415.068" fill="#fdbeb9" r="27.501"/></g><path d="m359.838 502h-80.53v-19.166c0-22.238 18.027-40.265 40.265-40.265 22.238 0 40.265 18.027 40.265 40.265z" fill="#fd6050"/></g><g><g><circle cx="446.72" cy="415.068" fill="#d46b5c" r="27.501"/></g><path d="m486.985 502h-80.53v-19.166c0-22.238 18.027-40.265 40.265-40.265 22.238 0 40.265 18.027 40.265 40.265z" fill="#6864f7"/></g></g><path d="m299.321 99.04-58.724-33.905c-7.254-4.188-16.322 1.047-16.322 9.423v67.809c0 8.376 9.068 13.612 16.322 9.423l58.724-33.905c7.255-4.186 7.255-14.656 0-18.845z" fill="#fd6050"/></g></g><g><g fill="#052a75"><path d="m364.464 108.464c0-59.807-48.657-108.464-108.464-108.464s-108.464 48.657-108.464 108.464 48.657 108.464 108.464 108.464 108.464-48.657 108.464-108.464zm-108.464 88.464c-48.779 0-88.464-39.685-88.464-88.464s39.685-88.464 88.464-88.464 88.464 39.685 88.464 88.464-39.685 88.464-88.464 88.464z"/><path d="m92.626 440.692c6.291-6.71 10.155-15.721 10.155-25.623 0-20.678-16.823-37.501-37.501-37.501s-37.501 16.823-37.501 37.501c0 9.902 3.864 18.913 10.155 25.623-13.782 8.974-22.92 24.507-22.92 42.143v19.165c0 5.523 4.477 10 10 10h80.53c5.523 0 10-4.477 10-10v-19.166c.001-17.636-9.136-33.169-22.918-42.142zm-44.847-25.624c0-9.65 7.851-17.501 17.501-17.501s17.501 7.851 17.501 17.501-7.851 17.501-17.501 17.501-17.501-7.851-17.501-17.501zm47.766 76.932h-60.53v-9.166c0-16.688 13.577-30.265 30.265-30.265s30.265 13.577 30.265 30.265z"/><path d="m219.772 440.692c6.291-6.71 10.155-15.721 10.155-25.623 0-20.678-16.823-37.501-37.501-37.501s-37.501 16.823-37.501 37.501c0 9.902 3.864 18.913 10.155 25.623-13.782 8.974-22.92 24.507-22.92 42.143v19.165c0 5.523 4.477 10 10 10h80.53c5.523 0 10-4.477 10-10v-19.166c.002-17.636-9.136-33.169-22.918-42.142zm-44.846-25.624c0-9.65 7.851-17.501 17.501-17.501s17.501 7.851 17.501 17.501-7.851 17.501-17.501 17.501-17.501-7.851-17.501-17.501zm47.766 76.932h-60.53v-9.166c0-16.688 13.577-30.265 30.265-30.265s30.265 13.577 30.265 30.265z"/><path d="m346.919 440.692c6.291-6.71 10.155-15.721 10.155-25.623 0-20.678-16.823-37.501-37.501-37.501s-37.501 16.823-37.501 37.501c0 9.902 3.864 18.913 10.155 25.623-13.782 8.974-22.92 24.507-22.92 42.143v19.165c0 5.523 4.477 10 10 10h80.53c5.523 0 10-4.477 10-10v-19.166c.001-17.636-9.136-33.169-22.918-42.142zm-44.847-25.624c0-9.65 7.851-17.501 17.501-17.501s17.501 7.851 17.501 17.501-7.851 17.501-17.501 17.501-17.501-7.851-17.501-17.501zm47.766 76.932h-60.53v-9.166c0-16.688 13.577-30.265 30.265-30.265s30.265 13.577 30.265 30.265z"/><path d="m474.065 440.692c6.291-6.71 10.155-15.721 10.155-25.623 0-20.678-16.823-37.501-37.501-37.501s-37.501 16.823-37.501 37.501c0 9.902 3.864 18.913 10.155 25.623-13.782 8.974-22.92 24.507-22.92 42.143v19.165c0 5.523 4.477 10 10 10h80.53c5.523 0 10-4.477 10-10v-19.166c.002-17.636-9.136-33.169-22.918-42.142zm-44.846-25.624c0-9.65 7.851-17.501 17.501-17.501s17.501 7.851 17.501 17.501-7.851 17.501-17.501 17.501-17.501-7.851-17.501-17.501zm47.766 76.932h-60.53v-9.166c0-16.688 13.577-30.265 30.265-30.265s30.265 13.577 30.265 30.265z"/></g><path d="m424.176 289.643h-158.176v-36.38c0-5.523-4.477-10-10-10s-10 4.477-10 10v36.38h-158.176c-17.945 0-32.544 14.599-32.544 32.544v24.836c0 5.523 4.477 10 10 10s10-4.477 10-10v-24.836c0-6.917 5.627-12.544 12.544-12.544h94.603v37.38c0 5.523 4.477 10 10 10s10-4.477 10-10v-37.38h107.146v37.38c0 5.523 4.477 10 10 10s10-4.477 10-10v-37.38h94.603c6.917 0 12.544 5.627 12.544 12.544v24.836c0 5.523 4.477 10 10 10s10-4.477 10-10v-24.836c0-17.945-14.599-32.544-32.544-32.544z" fill="#67ccd1"/></g></g><g/><g/><g/><g/><g/><g/><g/><g/><g/><g/><g/><g/><g/><g/><g/></svg>