<svg id="Capa_1" enable-background="new 0 0 512 512" viewBox="0 0 512 512" xmlns="http://www.w3.org/2000/svg"><g><g><g><path d="m477.917 448.584h-443.834c-13.3 0-24.083-10.782-24.083-24.083v-301.071c0-13.301 10.783-24.083 24.083-24.083h443.833c13.301 0 24.083 10.783 24.083 24.083v301.071c.001 13.301-10.782 24.083-24.082 24.083z" fill="#fff"/><path d="m104.461 115.539c0 83.559 67.98 151.539 151.539 151.539s151.539-67.98 151.539-151.539c0-5.47-.299-10.871-.867-16.193h-301.345c-.567 5.322-.866 10.723-.866 16.193z" fill="#d2dcfd"/><path d="m280.694 448.584 25.409 53.416h-100.206l25.409-53.416z" fill="#d2dcfd"/><g><path d="m34.083 99.346c-13.3 0-24.083 10.783-24.083 24.084v301.071c0 13.301 10.783 24.083 24.083 24.083h33.26v-45.526l-10.001-38.777 10.001-35.989v-74.766l-10.001-35.7 10.001-39.066v-79.414z" fill="#93b2f4"/><g><path d="m67.344 178.76-57.344-32.799v74.766l57.344 32.799z" fill="#6864f7"/><g><path d="m67.344 328.292-57.344-32.799v74.766l57.344 32.799z" fill="#6864f7"/></g></g><path d="m477.917 99.346h-33.26v79.413l10.001 35.989-10.001 38.777v74.766l10.001 39.479-10.001 35.287v45.526h33.26c13.301 0 24.083-10.783 24.083-24.083v-301.07c0-13.301-10.783-24.084-24.083-24.084z" fill="#93b2f4"/><g fill="#6864f7"><path d="m502 145.961-57.344 32.799v74.766l57.344-32.799z"/><path d="m444.656 328.292v74.766l57.344-32.799v-74.766z"/></g></g></g><circle cx="256" cy="115.539" fill="#67ccd1" r="105.539"/></g><g><g fill="#fd6050"><path d="m232.164 273.331c-5.523 0-10 4.477-10 10v41.5h-39.078v-41.5c0-5.523-4.477-10-10-10s-10 4.477-10 10v103c0 5.523 4.477 10 10 10s10-4.477 10-10v-41.5h39.078v41.5c0 5.523 4.477 10 10 10s10-4.477 10-10v-103c0-5.523-4.477-10-10-10z"/><path d="m302.847 273.331h-22.175c-5.523 0-10 4.477-10 10v103c0 5.523 4.477 10 10 10h22.175c25.401 0 46.067-17.165 46.067-38.262v-46.476c0-21.097-20.665-38.262-46.067-38.262zm26.067 84.738c0 9.899-11.937 18.262-26.067 18.262h-12.175v-83h12.175c14.13 0 26.067 8.363 26.067 18.262z"/></g><path d="m477.917 89.346h-109.374c-11.897-51.133-57.841-89.346-112.543-89.346s-100.646 38.213-112.543 89.346h-109.374c-18.793 0-34.083 15.29-34.083 34.084v301.071c0 18.793 15.29 34.083 34.083 34.083h181.392l-15.894 33.416h-59.661c-5.523 0-10 4.477-10 10s4.477 10 10 10h232.16c5.523 0 10-4.477 10-10s-4.477-10-10-10h-59.661l-15.895-33.416h181.392c18.793 0 34.083-15.29 34.083-34.083v-301.071c.001-18.794-15.289-34.084-34.082-34.084zm-221.917-69.346c52.68 0 95.539 42.859 95.539 95.539s-42.859 95.539-95.539 95.539-95.539-42.859-95.539-95.539 42.859-95.539 95.539-95.539zm34.272 472h-68.545l15.895-33.416h36.754zm201.728-67.499c0 7.766-6.318 14.083-14.083 14.083h-443.834c-7.766 0-14.083-6.317-14.083-14.083v-301.071c0-7.766 6.318-14.083 14.083-14.083h106.544c-3.723 65.757 49.494 121.94 115.372 121.732 65.878.209 119.096-55.977 115.372-121.732h106.544c7.766 0 14.083 6.318 14.083 14.083v301.071z" fill="#052a75"/><g fill="#fff"><path d="m323.77 90.675c-18.146-18.143-42.214-28.134-67.77-28.134s-49.624 9.992-67.77 28.134c-3.906 3.905-3.906 10.237-.001 14.142s10.236 3.907 14.142.001c14.369-14.366 33.415-22.277 53.629-22.277s39.26 7.912 53.629 22.278c1.953 1.952 4.511 2.928 7.07 2.928 2.56 0 5.119-.977 7.072-2.93 3.905-3.905 3.904-10.237-.001-14.142z"/><path d="m256 105.729c-14.076 0-27.321 5.493-37.296 15.466-3.906 3.905-3.906 10.236-.001 14.142s10.236 3.907 14.142.001c6.198-6.197 14.421-9.609 23.155-9.609s16.958 3.413 23.155 9.609c1.953 1.952 4.511 2.928 7.07 2.928 2.56 0 5.119-.977 7.072-2.93 3.905-3.906 3.904-10.237-.001-14.142-9.975-9.973-23.22-15.465-37.296-15.465z"/><circle cx="256" cy="158.542" r="10"/></g></g></g><g/><g/><g/><g/><g/><g/><g/><g/><g/><g/><g/><g/><g/><g/><g/></svg>