<svg id="Capa_1" enable-background="new 0 0 512 512" viewBox="0 0 512 512" xmlns="http://www.w3.org/2000/svg"><g><g><g><path d="m416.497 120.193c-7.661 0-15.08 1.023-22.145 2.912.796-5.02 1.214-10.165 1.214-15.409 0-53.956-43.74-97.696-97.697-97.696-42.675 0-78.953 27.364-92.26 65.501-13.103-10.004-29.465-15.957-47.223-15.957-43.027 0-77.907 34.88-77.907 77.907 0 6.696.846 13.194 2.435 19.394-1.852-.153-3.719-.251-5.611-.251-37.17 0-67.303 30.132-67.303 67.303 0 37.17 30.132 67.303 67.303 67.303h339.194c47.222 0 85.504-38.281 85.504-85.503-.001-47.223-38.282-85.504-85.504-85.504z" fill="#d2dcfd"/></g><path d="m125.327 281.555c-2.351 3.149-4.572 6.368-6.675 9.645h274.698c-2.112-3.29-4.342-6.522-6.704-9.683-8.516-11.398-18.321-21.507-29.2-30.174h6.512c16.653 0 26.029-19.145 15.819-32.301l-107.771-138.864c-8.017-10.329-23.621-10.329-31.638 0l-107.771 138.863c-10.21 13.156-.834 32.301 15.819 32.301h6.14c-10.892 8.677-20.707 18.799-29.229 30.213z" fill="#93b2f4"/><path d="m292.696 261.569v-50.226h30.472l-66.981-86.306-66.981 86.306h30.029v50.249c-49.972 15.631-86.235 62.284-86.235 117.408 0 67.931 55.069 123 123 123s123-55.069 123-123c0-55.15-36.296-101.821-86.304-117.431z" fill="#fff"/><path d="m310.117 367.228-73.358-42.353c-9.062-5.232-20.389 1.308-20.389 11.772v84.707c0 10.464 11.327 17.004 20.389 11.772l73.358-42.353c9.062-5.233 9.062-18.313 0-23.545z" fill="#fd6050"/></g><path d="m416.496 110.193c-3.669 0-7.335.212-10.977.633 1.854-60.44-47.174-110.93-107.65-110.826-41.513 0-79.001 23.879-96.854 60.555-12.974-7.235-27.497-11.011-42.63-11.011-51.809-.321-93.223 45.862-87.408 97.307-39.679 3.227-70.977 36.55-70.977 77.046 0 42.625 34.678 77.303 77.303 77.303h70.847c-16.446 22.747-25.15 49.593-25.15 77.8 0 73.336 59.664 133 133 133 73.337 0 133-59.664 133-133 0-28.208-8.704-55.053-25.15-77.8h52.646c52.661 0 95.504-42.843 95.504-95.503s-42.843-95.504-95.504-95.504zm-160.496 381.807c-62.309 0-113-50.691-113-113 0-24.561 7.743-47.913 22.391-67.531 14.171-18.979 34.353-33.303 56.83-40.333 4.173-1.306 7.015-5.171 7.015-9.544v-50.249c0-5.523-4.477-10-10-10h-9.61l46.562-59.996 46.562 59.996h-10.053c-5.522 0-10 4.477-10 10v50.227c0 4.375 2.844 8.242 7.021 9.546 22.491 7.021 42.689 21.343 56.873 40.328 14.66 19.622 22.409 42.983 22.409 67.556 0 62.309-50.691 113-113 113zm160.496-210.8h-70.427c-12.607-11.58-27.399-20.748-43.372-26.761v-33.096h20.472c3.817 0 7.302-2.173 8.98-5.602 1.68-3.429 1.26-7.514-1.08-10.529l-66.981-86.306c-1.895-2.441-4.811-3.869-7.9-3.869s-6.006 1.428-7.9 3.869l-66.981 86.306c-2.341 3.016-2.76 7.101-1.081 10.529s5.164 5.602 8.981 5.602h20.029v33.123c-15.946 6.013-30.713 15.172-43.301 26.734h-88.632c-31.597 0-57.303-25.706-57.303-57.303 0-30.977 24.711-56.274 55.454-57.255 2.252 6.402 5.236 12.527 8.929 18.274 1.911 2.973 5.132 4.595 8.422 4.595 1.851 0 3.724-.513 5.397-1.588 4.646-2.986 5.992-9.173 3.006-13.819-7.025-10.897-10.744-23.682-10.73-36.652 0-37.444 30.463-67.907 67.907-67.907 15.008 0 29.24 4.809 41.155 13.905.046.035.097.062.144.097 6.451 4.95 11.915 10.943 16.238 17.819 1.9 3.022 5.151 4.679 8.475 4.679 1.819 0 3.66-.496 5.313-1.536 4.675-2.94 6.083-9.113 3.143-13.789-4.27-6.792-9.402-12.914-15.302-18.281 13.883-31.628 45.345-52.439 80.318-52.439 51.087-.265 92.136 44.614 87.341 95.464-9.331 3.229-18.075 7.854-26.048 13.848-4.415 3.318-5.303 9.587-1.984 14.002 1.965 2.614 4.964 3.992 8.001 3.992 2.091 0 4.2-.654 6.001-2.007 12.986-9.823 29.076-15.12 45.316-15.105 41.633 0 75.504 33.871 75.504 75.503s-33.871 75.503-75.504 75.503z" fill="#052a75"/></g><g/><g/><g/><g/><g/><g/><g/><g/><g/><g/><g/><g/><g/><g/><g/></svg>