<svg id="Capa_1" enable-background="new 0 0 512 512" viewBox="0 0 512 512" xmlns="http://www.w3.org/2000/svg"><g><g><path d="m477.917 403.911h-443.834c-13.3 0-24.083-10.782-24.083-24.083v-301.071c0-13.301 10.783-24.083 24.083-24.083h443.833c13.301 0 24.083 10.783 24.083 24.083v301.071c.001 13.301-10.782 24.083-24.082 24.083z" fill="#fff"/><path d="m104.328 225.292c0-64.253 21.71-123.427 58.175-170.619h-128.42c-13.301 0-24.083 10.783-24.083 24.084v301.071c0 13.301 10.782 24.083 24.083 24.083h134.83c-40.322-48.419-64.585-110.683-64.585-178.619z" fill="#d2dcfd"/><path d="m280.694 403.911 25.409 53.416h-100.206l25.409-53.416z" fill="#d2dcfd"/><g><path d="m34.083 54.673c-13.3 0-24.083 10.783-24.083 24.084v301.071c0 13.301 10.783 24.083 24.083 24.083h33.26v-45.526l-10.001-36.584 10.001-38.182v-74.766l-10.001-35.239 10.001-39.527v-79.414z" fill="#93b2f4"/><g><path d="m67.344 134.087-57.344-32.799v74.766l57.344 32.799z" fill="#6864f7"/><g><path d="m67.344 283.619-57.344-32.799v74.766l57.344 32.799z" fill="#6864f7"/></g></g><path d="m477.917 54.673h-33.26v79.413l10.001 34.907-10.001 39.859v74.766l10.001 39.063-10.001 35.703v45.526h33.26c13.301 0 24.083-10.783 24.083-24.083v-301.07c0-13.301-10.783-24.084-24.083-24.084z" fill="#93b2f4"/><g fill="#6864f7"><path d="m502 101.288-57.344 32.799v74.766l57.344-32.799z"/><path d="m444.656 283.619v74.766l57.344-32.799v-74.766z"/></g></g></g><g><g fill="#67ccd1"><path d="m256 90.994c-5.522 0-10 4.477-10 10v27.856c0 5.523 4.478 10 10 10s10-4.477 10-10v-27.856c0-5.523-4.478-10-10-10z"/><path d="m200.753 119.736c-3.906-3.905-10.236-3.905-14.143 0-3.905 3.905-3.905 10.237 0 14.143l19.697 19.697c1.953 1.953 4.512 2.929 7.071 2.929s5.118-.976 7.071-2.929c3.905-3.905 3.905-10.237 0-14.143z"/><path d="m298.621 156.504c2.56 0 5.118-.976 7.071-2.929l19.697-19.697c3.905-3.905 3.905-10.237 0-14.143-3.906-3.905-10.236-3.905-14.143 0l-19.697 19.697c-3.905 3.905-3.905 10.237 0 14.143 1.954 1.953 4.513 2.929 7.072 2.929z"/><path d="m205.726 189.125c0-5.523-4.478-10-10-10h-27.856c-5.522 0-10 4.477-10 10s4.478 10 10 10h27.856c5.522 0 10-4.477 10-10z"/><path d="m206.308 224.675-19.697 19.697c-3.905 3.905-3.905 10.237 0 14.143 1.953 1.953 4.512 2.929 7.071 2.929s5.118-.976 7.071-2.929l19.697-19.697c3.905-3.905 3.905-10.237 0-14.143-3.906-3.906-10.236-3.906-14.142 0z"/><path d="m256 239.4c-5.522 0-10 4.477-10 10v27.856c0 5.523 4.478 10 10 10s10-4.477 10-10v-27.856c0-5.523-4.478-10-10-10z"/><path d="m305.692 224.675c-3.906-3.905-10.236-3.905-14.143 0-3.905 3.905-3.905 10.237 0 14.143l19.697 19.697c1.953 1.953 4.512 2.929 7.071 2.929s5.118-.976 7.071-2.929c3.905-3.905 3.905-10.237 0-14.143z"/><path d="m344.131 179.125h-27.856c-5.522 0-10 4.477-10 10s4.478 10 10 10h27.856c5.522 0 10-4.477 10-10s-4.478-10-10-10z"/></g><path d="m477.917 44.673h-443.834c-18.794 0-34.083 15.29-34.083 34.084v301.071c0 18.793 15.289 34.083 34.083 34.083h181.393l-15.895 33.416h-59.661c-5.522 0-10 4.477-10 10s4.478 10 10 10h232.16c5.522 0 10-4.477 10-10s-4.478-10-10-10h-59.661l-15.895-33.416h181.393c18.794 0 34.083-15.29 34.083-34.083v-301.071c0-18.794-15.289-34.084-34.083-34.084zm-187.645 402.654h-68.545l15.895-33.416h36.755zm201.728-67.499c0 7.765-6.317 14.083-14.083 14.083h-443.834c-7.766 0-14.083-6.318-14.083-14.083v-301.071c0-7.766 6.317-14.083 14.083-14.083h443.834c7.766 0 14.083 6.318 14.083 14.083z" fill="#052a75"/><g><path d="m383.573 344.327h-214.66c-5.522 0-10-4.477-10-10s4.478-10 10-10h214.66c5.522 0 10 4.477 10 10s-4.477 10-10 10z" fill="#93b2f4"/></g><path d="m168.783 306.524c-5.522 0-10 4.477-10 10v7.803h-30.356c-5.522 0-10 4.477-10 10s4.478 10 10 10h30.356v7.803c0 5.523 4.478 10 10 10s10-4.477 10-10v-35.605c0-5.524-4.477-10.001-10-10.001z" fill="#fd6050"/></g></g><g/><g/><g/><g/><g/><g/><g/><g/><g/><g/><g/><g/><g/><g/><g/></svg>