<svg id="Capa_1" enable-background="new 0 0 512 512" viewBox="0 0 512 512" xmlns="http://www.w3.org/2000/svg"><g><g><g><g><path d="m74.066 361.572-39.345 26.385 75.948 114.043 96.093-73.128-50.472-159.664-52.461-5.787z" fill="#fdbeb9"/><g><path d="m156.29 35.776c0-14.177 11.215-25.776 24.923-25.776h241.629c13.708 0 24.923 11.599 24.923 25.776v400.165c0 14.177-11.215 25.776-24.923 25.776h-241.629c-13.708 0-24.923-11.599-24.923-25.776z" fill="#fff"/></g><path d="m447.765 429.627v-305.332c-.219-.002-.436-.017-.656-.017h-24.518c-34.281 0-62.171 27.89-62.171 62.17 0 10.941 2.841 21.23 7.823 30.17-4.982 8.94-7.823 19.23-7.823 30.171s2.841 21.231 7.823 30.171c-4.982 8.94-7.823 19.229-7.823 30.17s2.841 21.231 7.823 30.171c-4.982 8.94-7.823 19.229-7.823 30.17 0 34.281 27.89 62.171 62.171 62.171h24.518c.22.002.437-.013.656-.015z" fill="#d2dcfd"/><path d="m207.478 133.271c-7.548 0-14.88 1.561-21.796 4.64l-29.392 13.087v152.937l19.402-8.396 39.377-17.898c20.884-9.492 37.187-27.361 44.729-49.025 7.543-21.664 5.863-45.794-4.608-66.203-9.223-17.976-27.505-29.142-47.712-29.142z" fill="#d2dcfd"/><g fill="#fdbeb9"><path d="m156.29 269.208 45.538-20.699c27.182-12.355 38.522-44.923 24.891-71.488-5.237-10.208-17.538-14.544-28.019-9.877l-103.318 46.003c-12.964 5.772-21.316 18.634-21.316 32.825v115.6z"/><path d="m447.109 216.619h-24.518c-16.663 0-30.171-13.508-30.171-30.171 0-16.663 13.508-30.171 30.171-30.171h24.518c16.663 0 30.171 13.508 30.171 30.171 0 16.664-13.508 30.171-30.171 30.171z"/><path d="m447.109 276.961h-24.518c-16.663 0-30.171-13.508-30.171-30.171 0-16.663 13.508-30.171 30.171-30.171h24.518c16.663 0 30.171 13.508 30.171 30.171 0 16.663-13.508 30.171-30.171 30.171z"/><path d="m447.109 337.302h-24.518c-16.663 0-30.171-13.508-30.171-30.171 0-16.663 13.508-30.171 30.171-30.171h24.518c16.663 0 30.171 13.508 30.171 30.171 0 16.663-13.508 30.171-30.171 30.171z"/><path d="m447.109 397.643h-24.518c-16.663 0-30.171-13.508-30.171-30.171 0-16.663 13.508-30.171 30.171-30.171h24.518c16.663 0 30.171 13.508 30.171 30.171 0 16.664-13.508 30.171-30.171 30.171z"/></g></g><g><circle cx="302.027" cy="284.317" fill="#d46b5c" r="36.656"/><path d="m355.697 400.188h-107.339v-25.546c0-29.641 24.029-53.669 53.669-53.669 29.641 0 53.669 24.029 53.669 53.669v25.546z" fill="#fdcb50"/></g></g></g><g><g fill="#67ccd1"><path d="m369.401 134.644c-18.04-18.037-41.967-27.97-67.374-27.97-25.406 0-49.333 9.933-67.373 27.97-3.905 3.905-3.906 10.237-.001 14.142 3.904 3.906 10.237 3.907 14.142.001 14.263-14.26 33.168-22.113 53.232-22.113 20.065 0 38.971 7.854 53.233 22.113 1.952 1.952 4.512 2.928 7.07 2.928 2.56 0 5.119-.977 7.071-2.93 3.906-3.905 3.905-10.237 0-14.141z"/><path d="m302.027 149.58c-14.001 0-27.176 5.463-37.098 15.384-3.906 3.905-3.906 10.236-.001 14.142 3.904 3.905 10.237 3.907 14.142 0 6.145-6.144 14.298-9.527 22.957-9.527 8.66 0 16.813 3.383 22.958 9.527 1.952 1.953 4.511 2.929 7.07 2.929s5.119-.977 7.071-2.929c3.905-3.906 3.905-10.237-.001-14.142-9.921-9.921-23.096-15.384-37.098-15.384z"/><circle cx="302.031" cy="202.107" r="10"/></g><g><path d="m487.28 246.79c0-12.013-5.307-22.803-13.692-30.171 8.385-7.368 13.692-18.158 13.692-30.17 0-18.461-12.521-34.043-29.515-38.725v-111.948c0-19.727-15.667-35.776-34.923-35.776h-241.628c-19.257 0-34.924 16.049-34.924 35.776v143.757l-54.976 24.479c-16.553 7.37-27.248 23.84-27.248 41.96v110.266l-34.914 23.415c-4.577 3.069-5.809 9.262-2.754 13.848l75.947 114.042c1.82 2.761 5.018 4.473 8.323 4.457 1.969 0 3.91-.582 5.569-1.695l58.481-39.219c2.106.408 4.275.63 6.495.63h241.628c19.257 0 34.924-16.049 34.924-35.776v-29.743c16.993-4.682 29.515-20.264 29.515-38.725 0-12.013-5.307-22.803-13.692-30.17 8.385-7.368 13.692-18.158 13.692-30.171s-5.307-22.803-13.692-30.17c8.385-7.368 13.692-18.158 13.692-30.171zm-20-60.341c0 11.122-9.049 20.17-20.171 20.17h-24.518c-11.122 0-20.171-9.048-20.171-20.17s9.049-20.171 20.171-20.171h24.518c11.122 0 20.171 9.049 20.171 20.171zm-353.849 301.658-64.861-97.396 31.065-20.833c2.77-1.857 4.431-4.971 4.431-8.305v-115.601c0-10.229 6.038-19.528 15.383-23.689l103.317-46.004c5.628-2.504 12.241-.176 15.055 5.307 5.332 10.392 6.153 22.19 2.313 33.22-3.841 11.03-11.812 19.766-22.444 24.6l-70.881 32.218c-5.028 2.285-7.251 8.214-4.966 13.241 2.284 5.028 8.213 7.249 13.241 4.966l11.205-5.093v151.202c0 9.246 3.442 17.684 9.082 24.04zm309.411-36.391h-241.628c-8.229 0-14.924-7.077-14.924-15.776v-160.294l39.676-18.034c15.66-7.118 27.4-19.985 33.057-36.23 5.656-16.245 4.446-33.621-3.406-48.926-7.657-14.924-25.66-21.272-40.984-14.448l-28.342 12.62v-134.852c0-8.699 6.694-15.776 14.924-15.776h241.628c8.229 0 14.924 7.077 14.924 15.776v110.502h-15.174c-22.15 0-40.171 18.021-40.171 40.171 0 12.013 5.307 22.803 13.692 30.17-8.385 7.368-13.692 18.158-13.692 30.171s5.307 22.803 13.692 30.171c-8.385 7.368-13.692 18.158-13.692 30.17 0 12.013 5.307 22.803 13.692 30.171-8.385 7.368-13.692 18.158-13.692 30.17 0 22.15 18.021 40.171 40.171 40.171h15.174v28.297c-.002 8.699-6.696 15.776-14.925 15.776zm44.438-84.243c0 11.122-9.049 20.171-20.171 20.171h-24.518c-11.122 0-20.171-9.049-20.171-20.171s9.049-20.17 20.171-20.17h24.518c11.122-.001 20.171 9.048 20.171 20.17zm0-60.342c0 11.122-9.049 20.171-20.171 20.171h-24.518c-11.122 0-20.171-9.049-20.171-20.171s9.049-20.17 20.171-20.17h24.518c11.122 0 20.171 9.048 20.171 20.17zm-44.688-40.17c-11.122 0-20.171-9.049-20.171-20.171s9.049-20.171 20.171-20.171h24.518c11.122 0 20.171 9.049 20.171 20.171s-9.049 20.171-20.171 20.171z" fill="#052a75"/><path d="m333.088 319.093c9.562-8.55 15.596-20.969 15.596-34.776 0-25.726-20.93-46.656-46.656-46.656s-46.655 20.93-46.655 46.656c0 13.806 6.033 26.226 15.595 34.775-19.438 10.912-32.609 31.716-32.609 55.549v25.546c0 5.523 4.478 10 10 10h107.339c5.522 0 10-4.477 10-10v-25.546c-.001-23.832-13.172-44.636-32.61-55.548zm-57.716-34.776c0-14.698 11.957-26.656 26.655-26.656s26.656 11.958 26.656 26.656-11.958 26.656-26.656 26.656-26.655-11.958-26.655-26.656zm70.325 105.871h-87.339v-15.546c0-24.079 19.59-43.669 43.669-43.669 24.08 0 43.67 19.59 43.67 43.669z" fill="#052a75"/><g fill="#93b2f4"><path d="m310.151 45.145h-58.051c-5.522 0-10 4.477-10 10s4.478 10 10 10h58.051c5.522 0 10-4.477 10-10s-4.477-10-10-10z"/><circle cx="351.951" cy="55.15" r="10"/></g></g></g></g><g/><g/><g/><g/><g/><g/><g/><g/><g/><g/><g/><g/><g/><g/><g/></svg>