<svg id="Capa_1" enable-background="new 0 0 512 512" viewBox="0 0 512 512" xmlns="http://www.w3.org/2000/svg"><g><g><g><g><path d="m387.588 502h-263.176c-14.93 0-27.146-12.634-27.146-28.075v-435.85c0-15.441 12.215-28.075 27.146-28.075h263.177c14.93 0 27.146 12.634 27.146 28.075v435.851c-.001 15.44-12.216 28.074-27.147 28.074z" fill="#fff"/></g><path d="m156.079 256c0-93.12 32.401-178.672 86.543-246h-118.21c-14.93 0-27.146 12.634-27.146 28.075v435.851c0 15.441 12.216 28.075 27.146 28.075h118.21c-54.142-67.329-86.543-152.881-86.543-246.001z" fill="#d2dcfd"/><g><g><circle cx="188.174" cy="353.224" fill="#d46b5c" r="24.266"/><path d="m223.702 429.93h-71.058v-16.911c0-19.622 15.907-35.529 35.529-35.529 19.622 0 35.529 15.907 35.529 35.529z" fill="#fd6050"/></g></g></g></g><g><g><g><path d="m156.072 238.024c-2.202 0-4.418-.724-6.267-2.213-4.301-3.465-4.979-9.76-1.514-14.061l32.872-40.807c1.772-2.199 4.391-3.547 7.21-3.71 2.821-.163 5.576.874 7.59 2.854l26.137 25.711 38.585-52.08c1.83-2.47 4.695-3.961 7.768-4.043 3.081-.081 6.013 1.254 7.973 3.623l27.332 33.047 34.778-59.884c2.773-4.776 8.894-6.399 13.669-3.625 4.776 2.773 6.399 8.894 3.625 13.669l-41.984 72.295c-1.643 2.829-4.564 4.675-7.824 4.944-3.254.274-6.444-1.072-8.529-3.593l-28.339-34.265-37.831 51.062c-1.724 2.326-4.37 3.791-7.256 4.017-2.889.224-5.728-.811-7.792-2.841l-26.464-26.033-25.944 32.207c-1.976 2.452-4.873 3.726-7.795 3.726z" fill="#fd6050"/></g></g><g><g fill="#93b2f4"><path d="m264.848 49.171h-63.228c-5.523 0-10 4.477-10 10s4.477 10 10 10h63.228c5.523 0 10-4.477 10-10s-4.477-10-10-10z"/><circle cx="310.379" cy="59.171" r="10"/></g><g><g fill="#052a75"><path d="m387.588 0h-263.176c-20.482 0-37.146 17.08-37.146 38.075v435.851c0 20.995 16.664 38.075 37.146 38.075h263.177c20.482 0 37.146-17.08 37.146-38.075v-435.851c-.001-20.995-16.664-38.075-37.147-38.075zm17.146 473.925c0 9.966-7.691 18.075-17.146 18.075h-263.176c-9.455 0-17.146-8.108-17.146-18.075v-435.85c0-9.966 7.691-18.075 17.146-18.075h263.177c9.455 0 17.146 8.108 17.146 18.075v435.85z"/><path d="m214.082 375.611c5.2-6.01 8.357-13.835 8.357-22.387 0-18.895-15.372-34.266-34.266-34.266-18.895 0-34.266 15.372-34.266 34.266 0 8.553 3.157 16.377 8.357 22.387-11.845 8.229-19.62 21.924-19.62 37.408v16.911c0 5.523 4.477 10 10 10h71.058c5.523 0 10-4.477 10-10v-16.911c.001-15.483-7.775-29.178-19.62-37.408zm-25.908-36.653c7.866 0 14.266 6.4 14.266 14.266s-6.399 14.266-14.266 14.266-14.266-6.4-14.266-14.266 6.4-14.266 14.266-14.266zm25.529 80.972h-51.058v-6.911c0-14.077 11.452-25.529 25.529-25.529s25.529 11.452 25.529 25.529z"/></g><g><path d="m369.574 266.492c0-5.523-4.477-10-10-10h-196.929v-153.159c0-5.523-4.477-10-10-10s-10 4.477-10 10v163.159c0 5.523 4.477 10 10 10h206.929c5.523 0 10-4.477 10-10z" fill="#6864f7"/><path d="m281.797 318.958h-12.004c-5.523 0-10 4.477-10 10s4.477 10 10 10h12.004c5.523 0 10-4.477 10-10s-4.477-10-10-10z" fill="#fdcb50"/><path d="m359.574 318.958h-39.295c-5.523 0-10 4.477-10 10s4.477 10 10 10h39.295c5.523 0 10-4.477 10-10s-4.477-10-10-10z" fill="#6864f7"/><path d="m281.797 369.444h-12.004c-5.523 0-10 4.477-10 10s4.477 10 10 10h12.004c5.523 0 10-4.477 10-10s-4.477-10-10-10z" fill="#fdcb50"/><path d="m359.574 369.444h-39.295c-5.523 0-10 4.477-10 10s4.477 10 10 10h39.295c5.523 0 10-4.477 10-10s-4.477-10-10-10z" fill="#6864f7"/><path d="m359.574 419.93h-39.295c-5.523 0-10 4.477-10 10s4.477 10 10 10h39.295c5.523 0 10-4.477 10-10s-4.477-10-10-10z" fill="#6864f7"/><path d="m281.797 419.93h-12.004c-5.523 0-10 4.477-10 10s4.477 10 10 10h12.004c5.523 0 10-4.477 10-10s-4.477-10-10-10z" fill="#fdcb50"/></g></g></g></g></g><g/><g/><g/><g/><g/><g/><g/><g/><g/><g/><g/><g/><g/><g/><g/></svg>