<svg id="Capa_1" enable-background="new 0 0 512 512" viewBox="0 0 512 512" xmlns="http://www.w3.org/2000/svg"><g><g><g><g><path d="m430.73 345.915c-24.234-27.129-37.629-62.232-37.629-98.609v-100.205c0-75.719-61.382-137.101-137.101-137.101-75.719 0-137.101 61.382-137.101 137.101v100.205c0 36.377-13.395 71.479-37.629 98.609l-21.869 24.482v19.448c0 23.025 18.666 41.691 41.691 41.691h309.816c23.025 0 41.691-18.666 41.691-41.691v-19.448z" fill="#fdcb50"/><path d="m160.746 262.513c0-94.265 30.637-181.371 82.489-251.916-69.733 6.44-124.336 65.091-124.336 136.504v100.205c0 36.377-13.395 71.479-37.629 98.609l-21.869 24.482v19.448c0 23.025 18.666 41.691 41.691 41.691h94.527c-8.51-19.656-15.581-40.079-21.08-61.139-8.997-34.456-13.793-70.61-13.793-107.884z" fill="#fd8f01"/><g><g><circle cx="256" cy="196.562" fill="#fff" r="91.832"/></g></g><path d="m59.401 370.396v19.448c0 23.025 18.666 41.691 41.691 41.691h309.816c23.025 0 41.691-18.666 41.691-41.691v-19.448z" fill="#fd8f01"/><path d="m174.539 370.396h-115.138v19.448c0 23.025 18.666 41.691 41.691 41.691h94.527c-8.51-19.656-15.58-40.079-21.08-61.139z" fill="#fd6050"/><path d="m318.071 431.535v8.395c0 34.28-27.79 62.07-62.071 62.07-34.281 0-62.071-27.79-62.071-62.071v-8.395h124.142z" fill="#93b2f4"/></g><path d="m296.404 187.773-54.769-31.621c-6.766-3.906-15.223.977-15.223 8.789v63.242c0 7.812 8.457 12.695 15.223 8.789l54.769-31.621c6.765-3.906 6.765-13.672 0-17.578z" fill="#fd6050"/></g></g><g><g fill="#052a75"><path d="m462.589 370.212c-.031-2.378-.963-4.698-2.533-6.477l-21.869-24.482c-22.626-25.329-35.087-57.982-35.087-91.946v-100.206c.001-81.112-65.988-147.101-147.1-147.101s-147.101 65.989-147.101 147.101v100.205c0 33.964-12.461 66.618-35.087 91.947l-21.869 24.482c-1.619 1.826-2.533 4.221-2.542 6.662v19.448c0 28.502 23.188 51.69 51.691 51.69h82.878c.86 38.998 32.829 70.465 72.03 70.465s71.17-31.467 72.03-70.465h82.878c28.502 0 51.691-23.188 51.691-51.69v-19.448c0-.063-.009-.123-.01-.185zm-206.589 121.788c-28.174 0-51.177-22.495-52.03-50.465h104.06c-.853 27.97-23.856 50.465-52.03 50.465zm154.908-70.465h-309.816c-17.475 0-31.691-14.216-31.691-31.69v-15.632l19.326-21.636c25.905-29 40.171-66.385 40.171-105.271v-100.205c.001-70.084 57.018-127.101 127.102-127.101s127.101 57.017 127.101 127.101v100.205c0 38.885 14.267 76.271 40.171 105.27l19.327 21.636v15.632c0 17.474-14.217 31.691-31.691 31.691z"/><path d="m256 94.73c-56.15 0-101.832 45.682-101.832 101.832s45.682 101.832 101.832 101.832 101.832-45.682 101.832-101.832-45.682-101.832-101.832-101.832zm0 183.664c-45.123 0-81.832-36.709-81.832-81.832s36.709-81.832 81.832-81.832 81.832 36.709 81.832 81.832-36.709 81.832-81.832 81.832z"/></g><g><g><g><g><path d="m61.412 206.562h-51.412c-5.523 0-10-4.477-10-10s4.477-10 10-10h51.412c5.523 0 10 4.477 10 10s-4.477 10-10 10z" fill="#fdcb50"/></g><g><path d="m66.991 164.981c-1.741 0-3.503-.455-5.108-1.41l-31.867-18.979c-4.745-2.826-6.3-8.964-3.475-13.709 2.826-4.744 8.963-6.299 13.709-3.475l31.867 18.979c4.745 2.826 6.3 8.964 3.475 13.709-1.87 3.141-5.193 4.885-8.601 4.885z" fill="#fdcb50"/></g><g><path d="m35.143 267.125c-3.408 0-6.73-1.743-8.601-4.884-2.826-4.745-1.27-10.883 3.475-13.709l31.867-18.979c4.745-2.825 10.882-1.271 13.709 3.475 2.826 4.745 1.27 10.883-3.475 13.709l-31.867 18.979c-1.604.954-3.367 1.409-5.108 1.409z" fill="#fdcb50"/></g></g><g><g><path d="m502 206.562h-51.412c-5.523 0-10-4.477-10-10s4.477-10 10-10h51.412c5.523 0 10 4.477 10 10s-4.477 10-10 10z" fill="#fdcb50"/></g><g><path d="m445.009 164.981c-3.408 0-6.73-1.743-8.601-4.884-2.826-4.745-1.27-10.883 3.475-13.709l31.867-18.979c4.745-2.825 10.882-1.271 13.709 3.475 2.826 4.745 1.27 10.883-3.475 13.709l-31.867 18.979c-1.604.954-3.367 1.409-5.108 1.409z" fill="#fdcb50"/></g><g><path d="m476.857 267.125c-1.741 0-3.503-.455-5.108-1.41l-31.867-18.979c-4.745-2.826-6.3-8.964-3.475-13.709 2.827-4.744 8.964-6.299 13.709-3.475l31.867 18.979c4.745 2.826 6.3 8.964 3.475 13.709-1.871 3.141-5.193 4.885-8.601 4.885z" fill="#fdcb50"/></g></g></g></g></g></g><g/><g/><g/><g/><g/><g/><g/><g/><g/><g/><g/><g/><g/><g/><g/></svg>