<svg id="Capa_1" enable-background="new 0 0 512.002 512.002" viewBox="0 0 512.002 512.002" xmlns="http://www.w3.org/2000/svg"><g><g><g><g><path d="m502.001 280.418-82.329-50.047v-120.646l82.329-50.047z" fill="#93b2f4"/></g><path d="m265.812 332.482h-104.512c-12.442 0-22.528-10.086-22.528-22.528v-27.151h149.568v27.151c0 12.441-10.086 22.528-22.528 22.528z" fill="#27a2cc"/><path d="m161.3 10h104.513c12.442 0 22.528 10.086 22.528 22.528v27.151h-149.569v-27.151c0-12.442 10.086-22.528 22.528-22.528z" fill="#27a2cc"/><path d="m394.599 282.135h-359.525c-13.847 0-25.073-11.226-25.073-25.073v-172.311c0-13.847 11.226-25.073 25.073-25.073h359.525c13.847 0 25.073 11.226 25.073 25.073v172.311c0 13.848-11.225 25.073-25.073 25.073z" fill="#67ccd1"/><path d="m71.505 170.048c0-41.129 13.019-79.218 35.16-110.37h-71.591c-13.847 0-25.073 11.226-25.073 25.073v172.311c0 13.847 11.226 25.073 25.073 25.073h72.842c-22.895-31.466-36.411-70.195-36.411-112.087z" fill="#27a2cc"/></g></g><g><g><g><path d="m216.191 512c-5.523 0-10-4.477-10-10v-166.733c0-5.523 4.477-10 10-10s10 4.477 10 10v166.733c0 5.523-4.477 10-10 10z" fill="#93b2f4"/></g><g><path d="m94.611 512.002c-1.506 0-3.035-.341-4.473-1.062-4.938-2.475-6.934-8.484-4.459-13.421l83.577-166.733c2.474-4.938 8.483-6.933 13.421-4.459 4.938 2.475 6.934 8.484 4.459 13.421l-83.577 166.733c-1.754 3.499-5.284 5.521-8.948 5.521z" fill="#93b2f4"/></g><g><path d="m337.771 512.002c-3.665 0-7.193-2.021-8.947-5.521l-83.577-166.733c-2.475-4.937-.479-10.946 4.459-13.421 4.937-2.475 10.946-.479 13.42 4.459l83.576 166.733c2.476 4.937.479 10.946-4.458 13.421-1.438.721-2.968 1.062-4.473 1.062z" fill="#93b2f4"/></g><g><path d="m324.615 431.633h-222.118c-5.523 0-10-4.477-10-10s4.477-10 10-10h222.118c5.522 0 10 4.477 10 10s-4.477 10-10 10z" fill="#6864f7"/></g><path d="m506.902 50.962c-3.147-1.77-7.007-1.706-10.096.171l-67.135 40.811v-7.193c0-19.339-15.733-35.073-35.073-35.073h-96.258v-17.15c0-17.936-14.592-32.528-32.528-32.528h-104.512c-17.936 0-32.528 14.592-32.528 32.528v17.15h-93.698c-19.339 0-35.073 15.734-35.073 35.073v172.311c0 19.339 15.734 35.073 35.073 35.073h93.698v17.818c0 17.936 14.592 32.528 32.528 32.528h104.513c17.936 0 32.527-14.592 32.527-32.528v-17.818h96.259c19.34 0 35.073-15.733 35.073-35.073v-8.91l67.135 40.811c1.594.969 3.394 1.455 5.194 1.455 1.688 0 3.378-.427 4.901-1.284 3.149-1.771 5.099-5.103 5.099-8.716v-220.74c0-3.613-1.949-6.945-5.099-8.716zm-358.13-18.434c0-6.908 5.62-12.528 12.528-12.528h104.513c6.907 0 12.527 5.62 12.527 12.528v17.15h-129.568zm129.568 277.426c0 6.908-5.62 12.528-12.527 12.528h-104.513c-6.908 0-12.528-5.62-12.528-12.528v-17.818h129.568zm131.332-52.892c0 8.311-6.762 15.073-15.073 15.073h-359.525c-8.312 0-15.073-6.762-15.073-15.073v-172.311c0-8.312 6.762-15.073 15.073-15.073h359.524c8.312 0 15.073 6.762 15.073 15.073v172.311zm82.329 5.574-62.329-37.889v-109.398l62.329-37.889z" fill="#052a75"/></g><g fill="#fff"><path d="m134.869 199.376h-18.704v-66.938c0-5.523-4.477-10-10-10s-10 4.477-10 10v76.938c0 5.523 4.477 10 10 10h28.704c5.523 0 10-4.477 10-10s-4.477-10-10-10z"/><path d="m323.105 142.438c5.522 0 10-4.477 10-10s-4.478-10-10-10h-31.324c-5.522 0-10 4.477-10 10v76.938c0 5.523 4.478 10 10 10h31.324c5.522 0 10-4.477 10-10s-4.478-10-10-10h-21.324v-18.469h17.822c5.522 0 10-4.477 10-10s-4.478-10-10-10h-17.822v-18.469z"/><path d="m173.278 122.438c-5.523 0-10 4.477-10 10v76.938c0 5.523 4.477 10 10 10s10-4.477 10-10v-76.938c0-5.523-4.477-10-10-10z"/><path d="m254.497 122.618c-5.421-1.046-10.666 2.507-11.709 7.93l-12.141 63.07-12.138-63.07c-1.044-5.423-6.291-8.97-11.709-7.93-5.423 1.044-8.974 6.287-7.93 11.709l13.405 69.654c1.745 9.064 9.3 15.396 18.374 15.396s16.629-6.331 18.374-15.396l13.405-69.653c1.043-5.424-2.507-10.666-7.931-11.71z"/><path d="m82.76 91.431h-31.007c-5.523 0-10 4.477-10 10v31.006c0 5.523 4.477 10 10 10s10-4.477 10-10v-21.006h21.007c5.523 0 10-4.477 10-10s-4.477-10-10-10z"/><path d="m377.92 91.431h-31.007c-5.522 0-10 4.477-10 10s4.478 10 10 10h21.007v21.006c0 5.523 4.478 10 10 10s10-4.477 10-10v-31.006c0-5.523-4.478-10-10-10z"/><path d="m82.76 230.383h-21.007v-21.006c0-5.523-4.477-10-10-10s-10 4.477-10 10v31.006c0 5.523 4.477 10 10 10h31.007c5.523 0 10-4.477 10-10s-4.477-10-10-10z"/><path d="m377.92 199.376c-5.522 0-10 4.477-10 10v21.006h-21.007c-5.522 0-10 4.477-10 10s4.478 10 10 10h31.007c5.522 0 10-4.477 10-10v-31.006c0-5.522-4.478-10-10-10z"/></g></g></g><g/><g/><g/><g/><g/><g/><g/><g/><g/><g/><g/><g/><g/><g/><g/></svg>