<svg id="Capa_1" enable-background="new 0 0 512 512" viewBox="0 0 512 512" xmlns="http://www.w3.org/2000/svg"><g><g><g><g><path d="m357.89 502h-203.78c0-30.472 24.703-55.175 55.175-55.175h93.431c30.472 0 55.174 24.703 55.174 55.175z" fill="#67ccd1"/></g></g><g><path d="m256 10c-44.858 0-81.222 36.365-81.222 81.222v76.389 76.389c0 44.858 36.365 81.222 81.222 81.222s81.222-36.365 81.222-81.222v-76.389-76.389c0-44.857-36.364-81.222-81.222-81.222z" fill="#fff"/><path d="m228.914 167.611c0-57.499 17.785-110.836 48.134-154.841-6.715-1.797-13.767-2.77-21.048-2.77-44.858 0-81.222 36.365-81.222 81.222v76.389 76.389c0 44.858 36.365 81.222 81.222 81.222 7.281 0 14.333-.973 21.047-2.77-30.348-44.005-48.133-97.342-48.133-154.841z" fill="#d2dcfd"/><path d="m174.778 167.611v76.389c0 44.858 36.365 81.222 81.222 81.222 44.858 0 81.222-36.365 81.222-81.222v-76.389h-108.308l-22.607 17.302z" fill="#d2dcfd"/><path d="m228.914 167.611h-54.136v76.389c0 44.858 36.365 81.222 81.222 81.222 7.281 0 14.333-.973 21.047-2.77-30.348-44.005-48.133-97.342-48.133-154.841z" fill="#93b2f4"/></g></g><g><g fill="#67ccd1"><path d="m60.977 124.466c0-19.522 7.641-37.916 21.515-51.792 3.905-3.905 3.904-10.237-.001-14.142-3.904-3.904-10.237-3.905-14.142.001-17.651 17.654-27.372 41.069-27.372 65.933 0 24.863 9.721 48.278 27.372 65.932 1.952 1.953 4.512 2.93 7.071 2.93s5.118-.976 7.07-2.928c3.905-3.905 3.906-10.237.001-14.142-13.874-13.877-21.514-32.27-21.514-51.792z"/><path d="m112.086 88.084c-3.904-3.905-10.237-3.905-14.142 0-9.729 9.73-15.087 22.651-15.087 36.382 0 13.73 5.357 26.651 15.087 36.381 1.952 1.953 4.512 2.929 7.071 2.929s5.118-.976 7.07-2.929c3.906-3.905 3.906-10.236.001-14.142-5.951-5.953-9.229-13.851-9.229-22.24s3.278-16.288 9.229-22.24c3.906-3.905 3.906-10.236 0-14.141z"/><path d="m443.651 58.534c-3.903-3.905-10.236-3.906-14.142-.001-3.905 3.905-3.906 10.237-.001 14.142 13.874 13.876 21.515 32.27 21.515 51.792s-7.641 37.915-21.515 51.792c-3.905 3.905-3.904 10.237.001 14.142 1.952 1.952 4.511 2.928 7.07 2.928s5.119-.977 7.071-2.93c17.651-17.654 27.372-41.069 27.372-65.932.001-24.864-9.719-48.279-27.371-65.933z"/><path d="m414.056 88.084c-3.903-3.904-10.236-3.906-14.142 0-3.906 3.905-3.906 10.236-.001 14.142 5.951 5.953 9.229 13.851 9.229 22.24s-3.278 16.287-9.229 22.24c-3.905 3.906-3.905 10.237.001 14.142 1.952 1.953 4.511 2.929 7.07 2.929s5.119-.977 7.071-2.929c9.729-9.73 15.087-22.651 15.087-36.381.001-13.732-5.357-26.652-15.086-36.383z"/><circle cx="134.37" cy="124.471" r="10"/><circle cx="377.63" cy="124.471" r="10"/></g><g><g><path d="m256 335.222c-50.301 0-91.223-40.922-91.223-91.222v-152.778c0-50.3 40.922-91.222 91.223-91.222s91.223 40.922 91.223 91.222v152.778c0 50.3-40.922 91.222-91.223 91.222zm0-315.222c-39.272 0-71.223 31.95-71.223 71.222v152.778c0 39.272 31.95 71.222 71.223 71.222s71.223-31.95 71.223-71.222v-152.778c0-39.272-31.951-71.222-71.223-71.222z" fill="#052a75"/></g><g><path d="m275.085 119.303h-38.17c-5.522 0-10-4.477-10-10s4.478-10 10-10h38.17c5.522 0 10 4.477 10 10s-4.478 10-10 10z" fill="#93b2f4"/></g><g><path d="m275.085 78.308h-38.17c-5.522 0-10-4.477-10-10s4.478-10 10-10h38.17c5.522 0 10 4.477 10 10s-4.478 10-10 10z" fill="#93b2f4"/></g><path d="m395.581 244c0-5.523-4.478-5.809-10-5.809s-10 .286-10 5.809c0 65.937-53.644 119.581-119.581 119.581s-119.581-53.644-119.581-119.581c0-5.523-4.478-5.222-10-5.222s-10-.301-10 5.222c0 73.603 57.266 134.075 129.581 139.219v58.524c0 5.523 4.478 10 10 10s10-4.477 10-10v-58.524c72.315-5.145 129.581-65.617 129.581-139.219z" fill="#93b2f4"/><g><path d="m412.34 254h-315.687c-5.522 0-10-4.477-10-10s4.478-10 10-10h315.687c5.522 0 10 4.477 10 10s-4.478 10-10 10z" fill="#6864f7"/></g><g><path d="m357.891 512h-203.782c-5.522 0-10-4.477-10-10 0-35.938 29.237-65.175 65.175-65.175h93.432c35.938 0 65.175 29.237 65.175 65.175 0 5.523-4.478 10-10 10zm-192.666-20h181.551c-4.563-20.113-22.586-35.175-44.06-35.175h-93.432c-21.473 0-39.496 15.062-44.059 35.175z" fill="#052a75"/></g></g></g></g><g/><g/><g/><g/><g/><g/><g/><g/><g/><g/><g/><g/><g/><g/><g/></svg>