<svg id="Capa_1" enable-background="new 0 0 512 512" viewBox="0 0 512 512" xmlns="http://www.w3.org/2000/svg"><g><g><g><g><circle cx="256" cy="256" fill="#fd6050" r="246"/></g></g><path d="m406.535 443.994c-186.964 0-338.529-151.564-338.529-338.529 0-2.753.039-5.496.104-8.234-36.244 42.85-58.11 98.252-58.11 158.769 0 135.862 110.138 246 246 246 60.517 0 115.919-21.866 158.768-58.11-2.737.065-5.481.104-8.233.104z" fill="#bc3c85"/></g><g><g><g fill="#fdcb50"><path d="m345.397 230.323c-15.521 0-28.148 12.609-28.148 28.108v54.324c0 5.523 4.477 10 10 10s10-4.477 10-10v-17.782h16.297v17.782c0 5.523 4.477 10 10 10s10-4.477 10-10v-54.324c0-15.498-12.628-28.108-28.149-28.108zm-8.148 44.65v-16.542c0-4.471 3.655-8.108 8.148-8.108s8.148 3.637 8.148 8.108v16.542z"/><path d="m295.045 250.323c5.523 0 10-4.477 10-10s-4.477-10-10-10h-29.49c-5.523 0-10 4.477-10 10v72.432c0 5.523 4.477 10 10 10h29.49c5.523 0 10-4.477 10-10s-4.477-10-10-10h-19.49v-16.216h16.192c5.523 0 10-4.477 10-10s-4.477-10-10-10h-16.192v-16.216z"/><path d="m164.913 230.323h-35.418c-5.523 0-10 4.477-10 10s4.477 10 10 10h7.709v62.432c0 5.523 4.477 10 10 10s10-4.477 10-10v-62.432h7.709c5.523 0 10-4.477 10-10s-4.477-10-10-10z"/><path d="m240.408 260.37c0-16.568-13.479-30.047-30.047-30.047h-15.3c-5.523 0-10 4.477-10 10v72.402c0 5.523 4.477 10 10 10s10-4.477 10-10v-21.874l16.917 26.379c1.91 2.978 5.134 4.603 8.427 4.603 1.848 0 3.718-.512 5.389-1.584 4.649-2.981 6-9.167 3.019-13.816l-12.972-20.227c8.722-5.272 14.567-14.862 14.567-25.836zm-35.347-10.047h5.3c5.54 0 10.047 4.507 10.047 10.145 0 5.54-4.507 10.047-10.047 10.047h-5.3z"/><path d="m85.958 266.539h-6.661c-4.618 0-8.374-3.136-8.374-6.99 0-5.087 4.841-9.226 10.792-9.226h1.826c3.359 0 6.474 1.317 8.546 3.615 3.7 4.101 10.023 4.424 14.124.726 4.101-3.7 4.426-10.023.726-14.124-5.859-6.493-14.386-10.217-23.396-10.217h-1.826c-16.979 0-30.792 13.11-30.792 29.226 0 14.882 12.729 26.99 28.374 26.99h6.661c4.617 0 8.374 3.136 8.374 6.99 0 5.087-4.841 9.226-10.791 9.226h-1.826c-3.58 0-6.927-1.531-8.954-4.096-3.424-4.334-9.712-5.073-14.045-1.648-4.334 3.423-5.072 9.712-1.648 14.045 5.787 7.325 15 11.698 24.647 11.698h1.826c16.978 0 30.791-13.111 30.791-29.226-.001-14.881-12.729-26.989-28.374-26.989z"/><path d="m453.34 230.583c-4.533-1.054-9.189 1.158-11.239 5.333l-16.286 33.163-16.285-33.163c-2.05-4.175-6.709-6.384-11.239-5.333-4.53 1.052-7.737 5.089-7.737 9.741v72.432c0 5.523 4.477 10 10 10s10-4.477 10-10v-29.382l6.285 12.799c1.681 3.423 5.163 5.592 8.976 5.592s7.295-2.169 8.976-5.592l6.286-12.8v29.383c0 5.523 4.477 10 10 10s10-4.477 10-10v-72.432c.001-4.652-3.206-8.689-7.737-9.741z"/></g><g fill="#fff"><path d="m256 351.341c-25.556 0-49.624 9.992-67.77 28.134-3.906 3.905-3.906 10.237-.001 14.142s10.236 3.906 14.142.001c14.369-14.366 33.415-22.278 53.629-22.278s39.26 7.912 53.629 22.278c1.953 1.952 4.511 2.928 7.07 2.928 2.56 0 5.119-.977 7.072-2.93 3.905-3.905 3.904-10.237-.001-14.142-18.146-18.141-42.214-28.133-67.77-28.133z"/><path d="m256 394.529c-14.076 0-27.321 5.493-37.296 15.466-3.906 3.905-3.906 10.236-.001 14.142 1.953 1.954 4.512 2.93 7.072 2.93 2.559 0 5.118-.976 7.07-2.928 6.198-6.197 14.421-9.609 23.155-9.609s16.958 3.413 23.155 9.609c3.906 3.905 10.238 3.905 14.142 0 3.905-3.906 3.905-10.237 0-14.142-9.976-9.976-23.221-15.468-37.297-15.468z"/><path d="m190.905 193.272c0-5.523-4.477-10-10-10h-17.022v-62.432c0-5.523-4.477-10-10-10s-10 4.477-10 10v72.432c0 5.523 4.477 10 10 10h27.022c5.523 0 10-4.477 10-10z"/><path d="m358.117 183.272h-19.49v-16.216h16.192c5.523 0 10-4.477 10-10s-4.477-10-10-10h-16.192v-16.216h19.49c5.523 0 10-4.477 10-10s-4.477-10-10-10h-29.49c-5.523 0-10 4.477-10 10v72.432c0 5.523 4.477 10 10 10h29.49c5.523 0 10-4.477 10-10s-4.477-10-10-10z"/><path d="m217.065 203.272c5.523 0 10-4.477 10-10v-72.432c0-5.523-4.477-10-10-10s-10 4.477-10 10v72.432c0 5.523 4.477 10 10 10z"/><path d="m254.596 188.304c1.696 8.813 9.046 14.969 17.873 14.969s16.176-6.156 17.872-14.969l12.62-65.573c1.044-5.423-2.507-10.666-7.93-11.71-5.426-1.047-10.667 2.506-11.71 7.93l-10.853 56.391-10.853-56.391c-1.043-5.424-6.288-8.969-11.71-7.93-5.423 1.044-8.974 6.287-7.93 11.71z"/><circle cx="256" cy="447.341" r="10"/></g></g><g><path d="m256 512c-68.38 0-132.667-26.628-181.019-74.981-48.353-48.352-74.981-112.639-74.981-181.019s26.628-132.667 74.981-181.019c48.352-48.353 112.639-74.981 181.019-74.981s132.667 26.628 181.019 74.981c48.353 48.352 74.981 112.639 74.981 181.019s-26.628 132.667-74.981 181.019c-48.352 48.353-112.639 74.981-181.019 74.981zm0-492c-63.038 0-122.303 24.548-166.877 69.123-44.575 44.574-69.123 103.839-69.123 166.877s24.548 122.303 69.123 166.877c44.574 44.575 103.839 69.123 166.877 69.123s122.303-24.548 166.877-69.123c44.575-44.574 69.123-103.839 69.123-166.877s-24.548-122.303-69.123-166.877c-44.574-44.575-103.839-69.123-166.877-69.123z" fill="#052a75"/></g></g></g><g/><g/><g/><g/><g/><g/><g/><g/><g/><g/><g/><g/><g/><g/><g/></svg>