<svg id="Capa_1" enable-background="new 0 0 512 512" viewBox="0 0 512 512" xmlns="http://www.w3.org/2000/svg"><g><g><g><path d="m489.81 476.315v-238.222c0-10.979-8.9-19.879-19.879-19.879h-149.744v283.786h143.939c14.185 0 25.684-11.499 25.684-25.685z" fill="#fd8f01"/><g><path d="m391.456 296.168h-312.141c-11.516 0-20.852-9.336-20.852-20.852v-244.464c.001-11.516 9.336-20.852 20.852-20.852h312.141c11.516 0 20.852 9.336 20.852 20.852v244.465c0 11.516-9.336 20.851-20.852 20.851z" fill="#fff"/><path d="m79.315 296.168h312.141c11.516 0 20.852-9.336 20.852-20.852v-48.629h-218.972l-14.455-21.268c-10.716-15.767-28.544-25.206-47.608-25.206h-72.809v95.104c0 11.516 9.335 20.851 20.851 20.851z" fill="#d2dcfd"/><path d="m412.308 65.604v-34.752c0-11.516-9.335-20.852-20.852-20.852h-312.141c-11.516 0-20.852 9.336-20.852 20.852v34.753h47.514l43.206-10.001 31.56 10.001h74.766l35.913-10.001 38.853 10.001h82.033z" fill="#93b2f4"/><g fill="#6864f7"><path d="m137.781 10-31.804 55.604h74.766l31.804-55.604z"/><path d="m287.313 10-31.804 55.604h74.766l31.804-55.604z"/></g></g></g><path d="m287.118 153.897-70.392-40.641c-8.659-4.999-19.484 1.25-19.484 11.249v81.282c0 9.999 10.824 16.248 19.484 11.249l70.392-40.641c8.659-5 8.659-17.499 0-22.498z" fill="#fd6050"/><g><path d="m438.441 476.315v-191.546c0-11.091-8.991-20.082-20.082-20.082h-234.783c-6.48 0-12.539-3.208-16.182-8.568l-19.94-29.339c-3.642-5.359-9.702-8.568-16.182-8.568h-88.361c-11.444 0-20.722 9.277-20.722 20.722v242.343c0 11.444 9.277 20.722 20.722 20.722h421.214c-14.185.001-25.684-11.498-25.684-25.684z" fill="#fdcb50"/></g></g><g><path d="m469.931 208.213h-47.623v-177.361c0-17.012-13.84-30.852-30.852-30.852h-312.141c-17.011 0-30.851 13.84-30.851 30.852v177.362h-5.553c-16.94 0-30.722 13.782-30.722 30.722v242.343c0 16.94 13.781 30.722 30.722 30.722h421.215c19.677 0 35.685-16.008 35.685-35.685v-238.223c0-16.476-13.405-29.88-29.88-29.88zm-401.467-177.361c0-5.984 4.868-10.852 10.851-10.852h312.141c5.983 0 10.852 4.868 10.852 10.852v223.836h-218.733c-3.171 0-6.128-1.566-7.911-4.189l-19.939-29.338c-5.51-8.107-14.65-12.947-24.452-12.947h-62.809zm-25.553 461.148c-5.912 0-10.722-4.81-10.722-10.722v-242.342c0-5.912 4.81-10.722 10.722-10.722h88.361c3.171 0 6.128 1.566 7.911 4.189l19.939 29.338c5.51 8.107 14.65 12.947 24.452 12.947h234.784c5.56 0 10.082 4.522 10.082 10.082v191.546c0 5.624 1.308 10.948 3.635 15.685h-389.164zm436.9-15.685c0 8.648-7.036 15.685-15.685 15.685s-15.685-7.036-15.685-15.685v-191.546c0-15.248-11.407-27.874-26.134-29.814v-26.741h47.623c5.448 0 9.88 4.432 9.88 9.879v238.222z" fill="#052a75"/><g fill="#fd6050"><path d="m165.882 367.251h128.867c5.522 0 10-4.477 10-10s-4.478-10-10-10h-128.867c-5.522 0-10 4.477-10 10s4.477 10 10 10z"/><path d="m294.749 399.437h-128.867c-5.522 0-10 4.477-10 10s4.478 10 10 10h128.867c5.522 0 10-4.477 10-10s-4.478-10-10-10z"/></g></g></g><g/><g/><g/><g/><g/><g/><g/><g/><g/><g/><g/><g/><g/><g/><g/></svg>