<svg id="Capa_1" enable-background="new 0 0 512 512" viewBox="0 0 512 512" xmlns="http://www.w3.org/2000/svg"><g><g><g><g><path d="m481.918 424.916h-451.836c-11.091 0-20.082-8.991-20.082-20.082v-297.668c0-11.091 8.991-20.082 20.082-20.082h451.837c11.091 0 20.082 8.991 20.082 20.082v297.668c-.001 11.091-8.992 20.082-20.083 20.082z" fill="#fff"/></g></g><path d="m81.788 258.247c0-64.226 21.236-123.489 57.062-171.163h-108.768c-11.091 0-20.082 8.991-20.082 20.082v297.668c0 11.091 8.991 20.082 20.082 20.082h105.471c-33.824-46.883-53.765-104.443-53.765-166.669z" fill="#d2dcfd"/></g><g><g fill="#93b2f4"><g><path d="m60.348 191.148c0-17.604 6.891-34.19 19.402-46.705 3.905-3.905 3.904-10.237-.001-14.142-3.905-3.904-10.237-3.905-14.142.001-16.289 16.291-25.259 37.9-25.259 60.845s8.97 44.554 25.259 60.845c1.953 1.953 4.512 2.93 7.072 2.93 2.559 0 5.118-.976 7.07-2.928 3.906-3.905 3.906-10.237.001-14.142-12.512-12.513-19.402-29.1-19.402-46.704z"/><path d="m106.787 157.299c-3.906-3.904-10.237-3.904-14.143.001-9.051 9.053-14.036 21.074-14.036 33.849s4.985 24.795 14.036 33.848c1.953 1.953 4.512 2.929 7.072 2.929 2.559 0 5.118-.976 7.071-2.928 3.905-3.905 3.906-10.237.001-14.143-5.274-5.275-8.179-12.273-8.179-19.707s2.905-14.432 8.179-19.708c3.905-3.904 3.904-10.236-.001-14.141z"/><circle cx="126.53" cy="191.147" r="10"/></g><g><path d="m446.395 130.303c-3.904-3.905-10.236-3.906-14.143-.001-3.905 3.905-3.906 10.236-.002 14.142 12.512 12.514 19.402 29.101 19.402 46.705s-6.891 34.19-19.402 46.705c-3.904 3.906-3.903 10.237.002 14.142 1.952 1.952 4.512 2.928 7.07 2.928 2.56 0 5.119-.977 7.072-2.93 16.287-16.292 25.258-37.9 25.258-60.845s-8.97-44.554-25.257-60.846z"/><path d="m419.356 157.3c-3.905-3.905-10.235-3.906-14.143-.002-3.905 3.905-3.906 10.236-.002 14.142 5.274 5.276 8.18 12.275 8.18 19.708 0 7.432-2.905 14.431-8.18 19.708-3.904 3.906-3.903 10.237.002 14.142 1.953 1.952 4.512 2.928 7.07 2.928 2.56 0 5.119-.977 7.072-2.93 9.051-9.053 14.035-21.074 14.035-33.847.002-12.774-4.983-24.795-14.034-33.849z"/><circle cx="385.47" cy="191.147" r="10"/></g></g><g><g fill="#fd6050"><path d="m337.86 277.479c-14.678 0-26.618 11.924-26.618 26.581v49.744c0 5.523 4.478 10 10 10s10-4.477 10-10v-15.44h13.236v15.44c0 5.523 4.478 10 10 10s10-4.477 10-10v-49.744c.001-14.657-11.94-26.581-26.618-26.581zm-6.618 40.885v-14.304c0-3.629 2.969-6.581 6.618-6.581s6.618 2.952 6.618 6.581v14.304z"/><path d="m291.754 297.479c5.522 0 10-4.477 10-10s-4.478-10-10-10h-27.004c-5.522 0-10 4.477-10 10v66.325c0 5.523 4.478 10 10 10h27.004c5.522 0 10-4.477 10-10s-4.478-10-10-10h-17.004v-13.163h13.983c5.522 0 10-4.477 10-10s-4.478-10-10-10h-13.983v-13.163h17.004z"/><path d="m172.593 277.479h-32.432c-5.523 0-10 4.477-10 10s4.477 10 10 10h6.216v56.325c0 5.523 4.477 10 10 10s10-4.477 10-10v-56.325h6.216c5.523 0 10-4.477 10-10s-4.477-10-10-10z"/><path d="m242.565 305.835c0-15.636-12.721-28.357-28.357-28.357h-14.01c-5.523 0-10 4.477-10 10v66.297c0 5.523 4.477 10 10 10s10-4.477 10-10v-17.153l13.938 21.734c1.91 2.978 5.134 4.603 8.427 4.603 1.848 0 3.718-.512 5.389-1.584 4.649-2.981 6-9.167 3.019-13.816l-11.421-17.809c7.823-5.061 13.015-13.871 13.015-23.915zm-32.367-8.356h4.01c4.608 0 8.357 3.749 8.357 8.447 0 4.608-3.749 8.357-8.357 8.357h-4.01z"/><path d="m100.294 310.641h-6.1c-3.699 0-6.825-2.545-6.825-5.558 0-4.193 4.055-7.604 9.038-7.604h1.672c2.837 0 5.462 1.105 7.201 3.032 3.7 4.1 10.023 4.425 14.124.725s4.425-10.023.725-14.124c-5.524-6.122-13.561-9.633-22.049-9.633h-1.672c-16.012 0-29.038 12.383-29.038 27.604 0 14.093 12.034 25.558 26.825 25.558h6.1c3.699 0 6.825 2.545 6.825 5.558 0 4.193-4.055 7.605-9.039 7.605h-1.672c-3.022 0-5.84-1.282-7.536-3.43-3.423-4.333-9.711-5.072-14.046-1.649-4.334 3.423-5.072 9.712-1.649 14.046 5.457 6.909 14.141 11.033 23.231 11.033h1.672c16.012 0 29.039-12.383 29.039-27.605-.001-14.093-12.035-25.558-26.826-25.558z"/><path d="m436.893 277.737c-4.527-1.054-9.188 1.157-11.239 5.333l-14.154 28.825-14.156-28.826c-2.05-4.174-6.707-6.382-11.238-5.333-4.53 1.052-7.737 5.089-7.737 9.741v66.326c0 5.523 4.478 10 10 10s10-4.477 10-10v-23.276l4.155 8.463c1.682 3.423 5.163 5.592 8.977 5.592s7.295-2.169 8.977-5.592l4.154-8.46v23.274c0 5.523 4.478 10 10 10s10-4.477 10-10v-66.326c-.002-4.651-3.209-8.688-7.739-9.741z"/><path d="m197.237 224.311c0-5.523-4.477-10-10-10h-14.744v-56.325c0-5.523-4.477-10-10-10s-10 4.477-10 10v66.325c0 5.523 4.477 10 10 10h24.744c5.523 0 10-4.477 10-10z"/><path d="m322.504 234.311h27.004c5.522 0 10-4.477 10-10s-4.478-10-10-10h-17.004v-13.163h13.983c5.522 0 10-4.477 10-10s-4.478-10-10-10h-13.983v-13.163h17.004c5.522 0 10-4.477 10-10s-4.478-10-10-10h-27.004c-5.522 0-10 4.477-10 10v66.325c0 5.524 4.477 10.001 10 10.001z"/><path d="m220.348 234.311c5.523 0 10-4.477 10-10v-66.325c0-5.523-4.477-10-10-10s-10 4.477-10 10v66.325c0 5.523 4.477 10 10 10z"/><path d="m269.805 234.311c8.493 0 15.562-5.918 17.192-14.391l11.556-60.045c1.044-5.423-2.506-10.666-7.93-11.709-5.426-1.045-10.666 2.506-11.709 7.93l-9.11 47.336-9.11-47.337c-1.044-5.423-6.29-8.97-11.709-7.93-5.423 1.044-8.974 6.287-7.93 11.71l11.556 60.045c1.63 8.475 8.701 14.392 17.194 14.391z"/></g><g><path d="m481.918 434.916h-451.836c-16.587 0-30.082-13.495-30.082-30.082v-297.668c0-16.587 13.495-30.082 30.082-30.082h451.836c16.587 0 30.082 13.495 30.082 30.082v297.668c0 16.587-13.495 30.082-30.082 30.082zm-451.836-337.832c-5.559 0-10.082 4.522-10.082 10.082v297.668c0 5.559 4.522 10.082 10.082 10.082h451.836c5.56 0 10.082-4.522 10.082-10.082v-297.668c0-5.559-4.522-10.082-10.082-10.082z" fill="#052a75"/></g></g></g></g><g/><g/><g/><g/><g/><g/><g/><g/><g/><g/><g/><g/><g/><g/><g/></svg>