<svg id="Capa_1" enable-background="new 0 0 512 512" viewBox="0 0 512 512" xmlns="http://www.w3.org/2000/svg"><g><g><g><path d="m471.878 450.691h-169.749c-3.724 0-7.202 1.861-9.268 4.96l-27.592 41.389c-4.409 6.614-14.127 6.614-18.536 0l-27.592-41.389c-2.066-3.099-5.544-4.96-9.268-4.96h-169.751c-16.636 0-30.122-13.486-30.122-30.122v-217.023c0-16.636 13.486-30.122 30.122-30.122h431.755c16.636 0 30.122 13.486 30.122 30.122v217.022c.001 16.637-13.485 30.123-30.121 30.123z" fill="#67ccd1"/></g><path d="m256 240.972c50.451 0 94.681-27.123 118.893-67.548h-237.786c24.212 40.425 68.442 67.548 118.893 67.548z" fill="#27a2cc"/><circle cx="256" cy="102.486" fill="#fff" r="92.486"/><path d="m296.691 93.635-55.159-31.846c-6.814-3.934-15.331.983-15.331 8.851v63.692c0 7.868 8.517 12.785 15.331 8.851l55.159-31.846c6.814-3.934 6.814-13.768 0-17.702z" fill="#fd6050"/></g><g><g fill="#fff"><path d="m338.938 325.497c-14.798 0-26.837 12.022-26.837 26.8v50.398c0 5.523 4.478 10 10 10s10-4.477 10-10v-15.775h13.674v15.774c0 5.523 4.478 10 10 10s10-4.477 10-10v-50.398c-.001-14.777-12.04-26.799-26.837-26.799zm-6.837 41.423v-14.624c0-3.75 3.067-6.8 6.837-6.8s6.837 3.05 6.837 6.8v14.624z"/><path d="m292.224 345.497c5.522 0 10-4.477 10-10s-4.478-10-10-10h-27.358c-5.522 0-10 4.477-10 10v67.198c0 5.523 4.478 10 10 10h27.358c5.522 0 10-4.477 10-10s-4.478-10-10-10h-17.358v-13.599h14.3c5.522 0 10-4.477 10-10s-4.478-10-10-10h-14.3v-13.6h17.358z"/><path d="m171.495 325.497h-32.859c-5.522 0-10 4.477-10 10s4.478 10 10 10h6.43v57.198c0 5.523 4.478 10 10 10s10-4.477 10-10v-57.198h6.43c5.522 0 10-4.477 10-10s-4.478-10-10.001-10z"/><path d="m242.257 354.095c0-15.77-12.829-28.599-28.599-28.599h-14.194c-5.522 0-10 4.477-10 10v67.17c0 5.523 4.478 10 10 10s10-4.477 10-10v-17.828l14.364 22.397c1.91 2.978 5.134 4.603 8.428 4.603 1.848 0 3.718-.512 5.389-1.584 4.649-2.981 6.001-9.167 3.02-13.816l-11.643-18.154c7.949-5.091 13.235-14.013 13.235-24.189zm-32.793-8.598h4.194c4.741 0 8.599 3.857 8.599 8.69 0 4.741-3.857 8.599-8.599 8.599h-4.194z"/><path d="m98.245 359.096h-6.181c-3.819 0-7.046-2.639-7.046-5.762 0-4.321 4.167-7.837 9.289-7.837h1.694c2.912 0 5.606 1.136 7.393 3.115 3.7 4.101 10.023 4.425 14.124.726 4.101-3.7 4.425-10.023.726-14.124-5.572-6.176-13.679-9.718-22.242-9.718h-1.694c-16.15 0-29.289 12.488-29.289 27.837 0 14.206 12.133 25.762 27.046 25.762h6.181c3.819 0 7.046 2.639 7.046 5.763 0 4.321-4.167 7.836-9.289 7.836h-1.694c-3.103 0-5.995-1.317-7.738-3.524-3.423-4.333-9.71-5.074-14.046-1.649-4.334 3.423-5.072 9.711-1.649 14.046 5.504 6.968 14.264 11.128 23.434 11.128h1.694c16.15 0 29.289-12.487 29.289-27.836-.002-14.206-12.135-25.763-27.048-25.763z"/><path d="m439.244 325.756c-4.525-1.049-9.188 1.158-11.238 5.333l-14.461 29.446-14.459-29.445c-2.051-4.175-6.709-6.384-11.239-5.333-4.53 1.052-7.737 5.089-7.737 9.741v67.198c0 5.523 4.478 10 10 10s10-4.477 10-10v-24.147l4.459 9.081c1.682 3.423 5.163 5.592 8.977 5.592s7.295-2.169 8.976-5.592l4.461-9.083v24.149c0 5.523 4.478 10 10 10s10-4.477 10-10v-67.198c-.002-4.653-3.209-8.69-7.739-9.742z"/><path d="m194.323 291.846c0-5.523-4.478-10-10-10h-15.069v-57.198c0-5.523-4.478-10-10-10s-10 4.477-10 10v67.198c0 5.523 4.478 10 10 10h25.069c5.523 0 10-4.477 10-10z"/><path d="m325.388 301.846h27.358c5.522 0 10-4.477 10-10s-4.478-10-10-10h-17.358v-13.599h14.299c5.522 0 10-4.477 10-10s-4.478-10-10-10h-14.299v-13.599h17.358c5.522 0 10-4.477 10-10s-4.478-10-10-10h-27.358c-5.522 0-10 4.477-10 10v67.198c0 5.523 4.477 10 10 10z"/><path d="m271.777 301.846c8.54 0 15.65-5.952 17.29-14.473l11.709-60.835c1.044-5.423-2.506-10.666-7.93-11.71-5.418-1.047-10.665 2.507-11.709 7.93l-9.36 48.63-9.359-48.629c-1.044-5.423-6.287-8.976-11.709-7.93-5.424 1.044-8.974 6.286-7.93 11.709l11.708 60.835c1.64 8.522 8.75 14.473 17.29 14.473z"/><path d="m217.87 301.846c5.522 0 10-4.477 10-10v-67.198c0-5.523-4.478-10-10-10s-10 4.477-10 10v67.198c0 5.523 4.478 10 10 10z"/></g><path d="m471.878 163.424h-133.529c12.646-17.045 20.137-38.132 20.137-60.938 0-56.511-45.975-102.486-102.486-102.486s-102.486 45.975-102.486 102.486c0 22.806 7.491 43.893 20.137 60.938h-133.529c-22.123 0-40.122 17.999-40.122 40.122v217.022c0 22.124 17.999 40.122 40.122 40.122h169.749c.382 0 .736.19.948.507l27.592 41.389c3.93 5.895 10.505 9.414 17.589 9.414s13.659-3.519 17.589-9.413l27.592-41.388c.212-.318.566-.508.948-.508h169.749c22.123 0 40.122-17.999 40.122-40.122v-217.023c0-22.123-17.999-40.122-40.122-40.122zm-215.878-143.424c45.483 0 82.486 37.003 82.486 82.486s-37.003 82.486-82.486 82.486-82.486-37.003-82.486-82.486 37.003-82.486 82.486-82.486zm236 400.569c0 11.095-9.026 20.122-20.122 20.122h-169.749c-7.083 0-13.659 3.519-17.589 9.414l-27.592 41.388c-.084.125-.338.507-.948.507s-.864-.382-.948-.507l-27.592-41.39c-3.93-5.894-10.506-9.413-17.589-9.413h-169.749c-11.096 0-20.122-9.027-20.122-20.122v-217.022c0-11.096 9.026-20.123 20.122-20.123h153.084c17.359 13.498 39.153 21.548 62.794 21.548s45.435-8.05 62.794-21.548h153.084c11.096 0 20.122 9.027 20.122 20.123z" fill="#052a75"/></g></g><g/><g/><g/><g/><g/><g/><g/><g/><g/><g/><g/><g/><g/><g/><g/></svg>