<svg id="Capa_1" enable-background="new 0 0 512 512" viewBox="0 0 512 512" xmlns="http://www.w3.org/2000/svg"><g><g><g><path d="m358.087 186.496-11.356-12.713c-12.584-14.087-19.54-32.315-19.54-51.204v-41.387c.001-39.318-31.873-71.192-71.191-71.192-39.318 0-71.192 31.874-71.192 71.192v41.387c0 18.889-6.956 37.117-19.54 51.204l-11.356 12.713v20.745c0 11.956 9.693 21.649 21.649 21.649h160.877c11.956 0 21.649-9.693 21.649-21.649z" fill="#fdcb50"/><path d="m219.131 186.496c-.008-2.748-.012-5.045-.012-5.733 0-63.041 20.631-121.258 55.496-168.288-5.936-1.604-12.172-2.475-18.615-2.475-39.318 0-71.192 31.874-71.192 71.192v41.387c0 18.889-6.956 37.117-19.54 51.204l-11.356 12.713v20.745c0 11.956 9.693 21.649 21.649 21.649h47.654c-2.368-13.815-3.736-27.971-4.023-42.393h-.061z" fill="#fd8f01"/><path d="m153.913 186.496v20.745c0 11.956 9.693 21.649 21.649 21.649h160.877c11.956 0 21.649-9.693 21.649-21.649v-20.745z" fill="#fd8f01"/><path d="m219.192 186.496h-65.279v20.745c0 11.956 9.693 21.649 21.649 21.649h47.654c-2.369-13.816-3.737-27.972-4.024-42.394z" fill="#fd6050"/><path d="m288.231 228.889v9.682c0 17.801-14.43 32.231-32.231 32.231-17.801 0-32.231-14.43-32.231-32.231v-9.682z" fill="#93b2f4"/></g></g><g><g><g><g fill="#67ccd1"><path d="m350.68 415.288c-16.112 0-29.221 13.089-29.221 29.178v57.534c0 5.523 4.478 10 10 10s10-4.477 10-10v-19.424h18.441v19.424c0 5.523 4.478 10 10 10s10-4.477 10-10v-57.534c0-16.089-13.108-29.178-29.22-29.178zm-9.221 47.288v-18.11c0-5.061 4.137-9.178 9.221-9.178s9.221 4.117 9.221 9.178v18.11z"/><path d="m297.353 435.288c5.522 0 10-4.477 10-10s-4.478-10-10-10h-31.233c-5.522 0-10 4.477-10 10v76.712c0 5.523 4.478 10 10 10h31.232c5.522 0 10-4.477 10-10s-4.478-10-10-10h-21.232v-18.356h17.74c5.522 0 10-4.477 10-10s-4.478-10-10-10h-17.74v-18.356z"/><path d="m159.531 415.288h-37.511c-5.522 0-10 4.477-10 10s4.478 10 10 10h8.755v66.712c0 5.523 4.478 10 10 10s10-4.477 10-10v-66.712h8.756c5.522 0 10-4.477 10-10s-4.477-10-10-10z"/><path d="m207.664 415.288h-16.204c-5.522 0-10 4.477-10 10v76.68c0 5.523 4.478 10 10 10s10-4.477 10-10v-24.112h.686l18.319 28.565c1.91 2.978 5.134 4.603 8.428 4.603 1.848 0 3.718-.512 5.389-1.584 4.649-2.981 6.001-9.167 3.02-13.816l-14.071-21.941c9.353-5.402 15.666-15.504 15.666-27.059v-.104c-.001-17.222-14.012-31.232-31.233-31.232zm-6.204 20h6.204c6.193 0 11.231 5.039 11.231 11.231v.104c0 6.193-5.038 11.232-11.231 11.232h-6.204z"/><path d="m75.91 453.644h-7.055c-5.216 0-9.46-3.586-9.46-7.994 0-5.713 5.392-10.362 12.02-10.362h1.935c3.725 0 7.184 1.467 9.49 4.023 3.7 4.101 10.023 4.425 14.124.726 4.101-3.7 4.425-10.023.726-14.124-6.093-6.753-14.965-10.626-24.34-10.626h-1.935c-17.655 0-32.02 13.62-32.02 30.362 0 15.436 13.216 27.994 29.46 27.994h7.055c5.216 0 9.459 3.586 9.459 7.994 0 5.713-5.392 10.362-12.02 10.362h-1.935c-3.971 0-7.688-1.706-9.944-4.562-3.423-4.334-9.712-5.073-14.046-1.649-4.334 3.423-5.072 9.711-1.649 14.045 6.018 7.619 15.602 12.167 25.64 12.167h1.935c17.655 0 32.02-13.62 32.02-30.362-.001-15.436-13.216-27.994-29.46-27.994z"/><path d="m464.867 415.547c-4.526-1.054-9.188 1.157-11.239 5.333l-17.777 36.202-17.777-36.202c-2.052-4.175-6.708-6.383-11.239-5.333-4.53 1.052-7.737 5.089-7.737 9.741v76.712c0 5.523 4.478 10 10 10s10-4.477 10-10v-33.662l7.777 15.838c1.682 3.423 5.163 5.592 8.977 5.592s7.295-2.169 8.977-5.592l7.777-15.838v33.662c0 5.523 4.478 10 10 10s10-4.477 10-10v-76.712c-.002-4.651-3.209-8.688-7.739-9.741z"/></g><g fill="#fd6050"><path d="m176.468 370.457h-18.618v-66.712c0-5.523-4.478-10-10-10s-10 4.477-10 10v76.712c0 5.523 4.478 10 10 10h28.618c5.522 0 10-4.477 10-10s-4.478-10-10-10z"/><path d="m364.15 370.457h-21.232v-18.356h17.74c5.522 0 10-4.477 10-10s-4.478-10-10-10h-17.74v-18.356h21.232c5.522 0 10-4.477 10-10s-4.478-10-10-10h-31.232c-5.522 0-10 4.477-10 10v76.712c0 5.523 4.478 10 10 10h31.232c5.522 0 10-4.477 10-10s-4.477-10-10-10z"/><path d="m214.765 293.745c-5.522 0-10 4.477-10 10v76.712c0 5.523 4.478 10 10 10s10-4.477 10-10v-76.712c0-5.523-4.478-10-10-10z"/><path d="m295.75 293.925c-5.429-1.045-10.665 2.506-11.709 7.93l-12.077 62.734-12.073-62.734c-1.044-5.423-6.285-8.979-11.709-7.93-5.424 1.044-8.974 6.286-7.93 11.709l13.365 69.448c1.742 9.052 9.287 15.374 18.348 15.374 9.062 0 16.606-6.322 18.349-15.374l13.366-69.448c1.044-5.423-2.506-10.665-7.93-11.709z"/></g></g><path d="m368.077 186.305c-.032-2.376-.965-4.693-2.532-6.471l-11.355-12.713c-10.961-12.27-16.997-28.089-16.997-44.542v-41.387c-.001-44.77-36.423-81.192-81.193-81.192s-81.192 36.422-81.192 81.192v41.387c0 16.454-6.036 32.272-16.997 44.543l-11.355 12.712c-1.619 1.826-2.533 4.221-2.542 6.662v20.745c0 17.451 14.197 31.648 31.648 31.648h38.215c.172 23.14 19.044 41.914 42.223 41.914s42.051-18.773 42.223-41.914h38.215c17.451 0 31.648-14.197 31.648-31.648v-20.745c.001-.064-.007-.127-.009-.191zm-112.077 74.498c-12.152 0-22.052-9.802-22.223-21.914h44.447c-.172 12.112-10.072 21.914-22.224 21.914zm80.438-41.914h-160.876c-6.423 0-11.648-5.226-11.648-11.648v-16.929l8.813-9.866c14.239-15.941 22.081-36.491 22.081-57.867v-41.387c0-33.741 27.451-61.192 61.192-61.192s61.192 27.451 61.192 61.192v41.387c0 21.375 7.842 41.926 22.081 57.866l8.813 9.867v16.929c.001 6.423-5.225 11.648-11.648 11.648z" fill="#052a75"/></g><g fill="#fdcb50"><path d="m119.299 108.253c0-5.523-4.478-10-10-10h-49.373c-5.522 0-10 4.477-10 10s4.478 10 10 10h49.373c5.522 0 10-4.477 10-10z"/><path d="m119.782 59.729-30.602-18.227c-4.747-2.825-10.882-1.269-13.709 3.475-2.826 4.745-1.271 10.883 3.475 13.709l30.603 18.226c1.604.955 3.367 1.41 5.107 1.41 3.408 0 6.73-1.744 8.602-4.884 2.825-4.746 1.269-10.883-3.476-13.709z"/><path d="m109.548 139.595-30.603 18.226c-4.745 2.826-6.301 8.964-3.475 13.709 1.871 3.141 5.192 4.884 8.602 4.884 1.74 0 3.503-.455 5.107-1.41l30.603-18.226c4.745-2.826 6.301-8.964 3.475-13.709-2.826-4.744-8.961-6.3-13.709-3.474z"/><path d="m452.074 98.253h-49.373c-5.522 0-10 4.477-10 10s4.478 10 10 10h49.373c5.522 0 10-4.477 10-10s-4.477-10-10-10z"/><path d="m397.345 78.322c1.74 0 3.503-.455 5.107-1.41l30.603-18.226c4.745-2.826 6.301-8.964 3.475-13.709s-8.962-6.301-13.709-3.475l-30.603 18.226c-4.745 2.826-6.301 8.964-3.475 13.709 1.871 3.142 5.193 4.885 8.602 4.885z"/><path d="m433.055 157.821-30.603-18.226c-4.746-2.825-10.882-1.27-13.709 3.475-2.826 4.745-1.271 10.883 3.475 13.709l30.603 18.226c1.604.955 3.367 1.41 5.107 1.41 3.408 0 6.73-1.744 8.602-4.884 2.825-4.746 1.27-10.884-3.475-13.71z"/></g></g></g><g/><g/><g/><g/><g/><g/><g/><g/><g/><g/><g/><g/><g/><g/><g/></svg>