<svg id="Capa_1" enable-background="new 0 0 512 512" viewBox="0 0 512 512" xmlns="http://www.w3.org/2000/svg"><g><g><g><path d="m167.5 130.983-58.099-33.544c-7.177-4.144-16.148 1.036-16.148 9.323v67.087c0 8.287 8.971 13.467 16.148 9.323l58.099-33.544c7.177-4.142 7.177-14.501 0-18.645z" fill="#fd6050"/></g><path d="m411.95 406.626h-311.9c-49.733 0-90.05-40.317-90.05-90.05 0-49.733 40.317-90.05 90.05-90.05h311.9c49.733 0 90.05 40.317 90.05 90.05 0 49.734-40.317 90.05-90.05 90.05z" fill="#67ccd1"/><path d="m103.355 316.577c0-32.366 7.637-62.944 21.188-90.05h-24.493c-49.733 0-90.05 40.317-90.05 90.05 0 49.733 40.317 90.05 90.05 90.05h24.493c-13.551-27.107-21.188-57.684-21.188-90.05z" fill="#27a2cc"/></g><g><g><g fill="#fff"><path d="m344.097 270.887c-15.375 0-27.885 12.491-27.885 27.845v53.534c0 5.523 4.477 10 10 10s10-4.477 10-10v-17.378h15.77v17.378c0 5.523 4.477 10 10 10s10-4.477 10-10v-53.534c0-15.354-12.509-27.845-27.885-27.845zm-7.885 44.001v-16.156c0-4.326 3.537-7.845 7.885-7.845s7.885 3.519 7.885 7.845v16.156z"/><path d="m294.478 290.887c5.523 0 10-4.477 10-10s-4.477-10-10-10h-29.061c-5.523 0-10 4.477-10 10v71.379c0 5.523 4.477 10 10 10h29.061c5.523 0 10-4.477 10-10s-4.477-10-10-10h-19.061v-15.689h15.812c5.523 0 10-4.477 10-10s-4.477-10-10-10h-15.812v-15.689h19.061z"/><path d="m166.238 270.887h-34.903c-5.523 0-10 4.477-10 10s4.477 10 10 10h7.451v61.379c0 5.523 4.477 10 10 10s10-4.477 10-10v-61.379h7.452c5.523 0 10-4.477 10-10s-4.477-10-10-10z"/><path d="m240.78 300.643c0-16.407-13.348-29.756-29.755-29.756h-15.078c-5.523 0-10 4.477-10 10v71.349c0 5.523 4.477 10 10 10s10-4.477 10-10v-21.06l16.404 25.578c1.91 2.978 5.134 4.603 8.427 4.603 1.848 0 3.718-.512 5.389-1.584 4.649-2.981 6-9.167 3.019-13.816l-12.703-19.807c8.566-5.236 14.297-14.694 14.297-25.507zm-34.833-9.756h5.078c5.379 0 9.755 4.376 9.755 9.853 0 5.379-4.376 9.755-9.755 9.755h-5.078z"/><path d="m88.431 306.577h-6.564c-4.47 0-8.106-3.025-8.106-6.743 0-4.933 4.705-8.946 10.489-8.946h1.8c3.269 0 6.299 1.281 8.314 3.515 3.7 4.1 10.023 4.424 14.124.725 4.101-3.7 4.425-10.023.725-14.124-5.801-6.429-14.244-10.116-23.163-10.116h-1.8c-16.812 0-30.489 12.985-30.489 28.946 0 14.746 12.608 26.743 28.106 26.743h6.564c4.47 0 8.106 3.025 8.106 6.743 0 4.933-4.705 8.946-10.489 8.946h-1.8c-3.484 0-6.739-1.488-8.709-3.981-3.423-4.334-9.712-5.073-14.045-1.648-4.334 3.423-5.072 9.712-1.648 14.045 5.729 7.253 14.852 11.583 24.402 11.583h1.8c16.812 0 30.489-12.985 30.489-28.946 0-14.745-12.608-26.742-28.106-26.742z"/><path d="m450.503 271.146c-4.534-1.054-9.189 1.158-11.239 5.333l-15.918 32.414-15.918-32.414c-2.05-4.175-6.707-6.386-11.239-5.333-4.53 1.052-7.737 5.089-7.737 9.741v71.378c0 5.523 4.477 10 10 10s10-4.477 10-10v-28.329l5.918 12.051c1.681 3.423 5.163 5.592 8.976 5.592s7.295-2.169 8.976-5.592l5.918-12.051v28.329c0 5.523 4.477 10 10 10s10-4.477 10-10v-71.378c0-4.651-3.207-8.688-7.737-9.741z"/></g><g fill="#fd6050"><path d="m247.828 165.236h-16.063v-59.86c0-5.523-4.477-10-10-10s-10 4.477-10 10v69.86c0 5.523 4.477 10 10 10h26.063c5.523 0 10-4.477 10-10s-4.477-10-10-10z"/><path d="m418.747 165.236h-18.443v-14.93h15.262c5.523 0 10-4.477 10-10s-4.477-10-10-10h-15.262v-14.93h18.443c5.523 0 10-4.477 10-10s-4.477-10-10-10h-28.443c-5.523 0-10 4.477-10 10v69.86c0 5.523 4.477 10 10 10h28.443c5.523 0 10-4.477 10-10s-4.477-10-10-10z"/><path d="m282.704 95.376c-5.523 0-10 4.477-10 10v69.86c0 5.523 4.477 10 10 10s10-4.477 10-10v-69.86c0-5.523-4.477-10-10-10z"/><path d="m356.625 95.556c-5.426-1.046-10.667 2.507-11.71 7.93l-10.119 52.579-10.119-52.578c-1.044-5.424-6.29-8.97-11.709-7.93-5.423 1.044-8.974 6.286-7.93 11.709l12.172 63.246c1.669 8.67 8.901 14.725 17.587 14.725s15.917-6.056 17.586-14.725l12.172-63.245c1.043-5.424-2.507-10.667-7.93-11.711z"/></g></g><g><path d="m411.95 416.626h-311.9c-55.168 0-100.05-44.882-100.05-100.049s44.882-100.05 100.05-100.05h311.9c55.167 0 100.05 44.882 100.05 100.05s-44.882 100.049-100.05 100.049zm-311.9-180.099c-44.14 0-80.05 35.91-80.05 80.05s35.91 80.05 80.05 80.05h311.9c44.14 0 80.05-35.91 80.05-80.05s-35.91-80.05-80.05-80.05z" fill="#052a75"/></g></g></g><g/><g/><g/><g/><g/><g/><g/><g/><g/><g/><g/><g/><g/><g/><g/></svg>