<svg id="Capa_1" enable-background="new 0 0 502 502" viewBox="0 0 502 502" xmlns="http://www.w3.org/2000/svg"><g><g><g><g><path d="m69.77 369.958-54.595-31.521c-6.745-3.894-15.175.973-15.175 8.761v63.041c0 7.787 8.43 12.655 15.174 8.761l54.595-31.521c6.745-3.893 6.745-13.628.001-17.521z" fill="#fd6050"/></g></g><path d="m390.388 273.574h-113.535c-2.491 0-4.817 1.245-6.199 3.318l-18.455 27.682c-2.949 4.423-9.449 4.423-12.398 0l-18.455-27.682c-1.382-2.073-3.708-3.318-6.199-3.318h-113.535c-11.127 0-20.147-9.02-20.147-20.147v-145.153c0-11.127 9.02-20.147 20.147-20.147h288.775c11.127 0 20.147 9.02 20.147 20.147v145.153c.001 11.127-9.02 20.147-20.146 20.147z" fill="#fd6050"/><path d="m140.477 182.214c0-35.197 11.422-67.721 30.75-94.087h-69.614c-11.127 0-20.147 9.02-20.147 20.147v145.153c0 11.127 9.02 20.147 20.147 20.147h67.657c-18.14-25.867-28.793-57.368-28.793-91.36z" fill="#bc3c85"/></g><g><g><g fill="#fff"><path d="m174.657 205.257h-15.672v-58.813c0-5.523-4.477-10-10-10s-10 4.477-10 10v68.813c0 5.523 4.477 10 10 10h25.672c5.523 0 10-4.477 10-10s-4.477-10-10-10z"/><path d="m343.015 205.257h-18.017v-14.407h14.884c5.523 0 10-4.477 10-10s-4.477-10-10-10h-14.884v-14.407h18.017c5.523 0 10-4.477 10-10s-4.477-10-10-10h-28.017c-5.523 0-10 4.477-10 10v68.813c0 5.523 4.477 10 10 10h28.017c5.523 0 10-4.477 10-10s-4.477-9.999-10-9.999z"/><path d="m209.011 136.444c-5.523 0-10 4.477-10 10v68.813c0 5.523 4.477 10 10 10s10-4.477 10-10v-68.813c0-5.523-4.477-10-10-10z"/><path d="m281.852 136.624c-5.423-1.046-10.666 2.507-11.71 7.93l-9.821 51.027-9.82-51.027c-1.043-5.423-6.289-8.97-11.71-7.93-5.423 1.044-8.974 6.287-7.93 11.71l11.99 62.297c1.658 8.611 8.842 14.626 17.47 14.626 8.629 0 15.813-6.015 17.471-14.626l11.99-62.297c1.044-5.423-2.507-10.666-7.93-11.71z"/></g><g fill="#67ccd1"><path d="m389.417 333.564c-15.228 0-27.617 12.371-27.617 27.577v52.732c0 5.523 4.477 10 10 10s10-4.477 10-10v-16.968h15.233v16.968c0 5.523 4.477 10 10 10s10-4.477 10-10v-52.732c.001-15.206-12.387-27.577-27.616-27.577zm-7.616 43.341v-15.764c0-4.178 3.417-7.577 7.617-7.577s7.617 3.399 7.617 7.577v15.764z"/><path d="m340.541 353.564c5.523 0 10-4.477 10-10s-4.477-10-10-10h-28.625c-5.523 0-10 4.477-10 10v70.309c0 5.523 4.477 10 10 10h28.625c5.523 0 10-4.477 10-10s-4.477-10-10-10h-18.625v-15.154h15.425c5.523 0 10-4.477 10-10s-4.477-10-10-10h-15.425v-15.155z"/><path d="m214.223 333.564h-34.38c-5.523 0-10 4.477-10 10s4.477 10 10 10h7.19v60.309c0 5.523 4.477 10 10 10s10-4.477 10-10v-60.309h7.19c5.523 0 10-4.477 10-10s-4.477-10-10-10z"/><path d="m287.798 363.023c0-16.244-13.216-29.459-29.46-29.459h-14.852c-5.523 0-10 4.477-10 10v70.28c0 5.523 4.477 10 10 10s10-4.477 10-10v-20.233l15.882 24.764c1.91 2.978 5.134 4.603 8.427 4.603 1.848 0 3.718-.512 5.389-1.584 4.649-2.981 6-9.167 3.019-13.816l-12.432-19.384c8.41-5.201 14.027-14.52 14.027-25.171zm-34.311-9.459h4.852c5.216 0 9.46 4.244 9.46 9.555 0 5.216-4.244 9.46-9.46 9.46h-4.852z"/><path d="m137.582 368.719h-6.466c-4.32 0-7.835-2.913-7.835-6.493 0-4.776 4.567-8.662 10.182-8.662h1.772c3.178 0 6.122 1.244 8.079 3.413 3.699 4.1 10.022 4.425 14.124.725 4.1-3.7 4.425-10.023.725-14.124-5.742-6.364-14.099-10.014-22.928-10.014h-1.772c-16.642 0-30.182 12.858-30.182 28.662 0 14.608 12.487 26.493 27.835 26.493h6.466c4.32 0 7.835 2.913 7.835 6.492 0 4.776-4.568 8.662-10.182 8.662h-1.772c-3.387 0-6.549-1.444-8.46-3.864-3.423-4.333-9.71-5.073-14.045-1.649-4.334 3.423-5.072 9.711-1.649 14.045 5.671 7.181 14.701 11.467 24.155 11.467h1.772c16.643 0 30.182-12.858 30.182-28.662-.001-14.607-12.488-26.491-27.836-26.491z"/><path d="m494.263 333.823c-4.532-1.054-9.189 1.158-11.239 5.333l-15.545 31.654-15.545-31.654c-2.05-4.175-6.708-6.385-11.239-5.333s-7.737 5.089-7.737 9.741v70.309c0 5.523 4.477 10 10 10s10-4.477 10-10v-27.259l5.545 11.291c1.681 3.423 5.163 5.592 8.976 5.592s7.295-2.169 8.976-5.592l5.545-11.291v27.259c0 5.523 4.477 10 10 10s10-4.477 10-10v-70.309c0-4.651-3.207-8.689-7.737-9.741z"/></g></g><g><path d="m246 317.892c-5.848 0-11.276-2.905-14.52-7.771l-17.698-26.547h-112.17c-16.623 0-30.147-13.524-30.147-30.147v-145.153c0-16.623 13.524-30.147 30.147-30.147h288.775c16.623 0 30.147 13.524 30.147 30.147v145.153c0 16.623-13.524 30.147-30.147 30.147h-112.17l-17.698 26.547c-3.243 4.866-8.671 7.771-14.519 7.771zm-144.388-219.765c-5.595 0-10.147 4.552-10.147 10.147v145.153c0 5.595 4.552 10.147 10.147 10.147h113.535c5.847 0 11.274 2.904 14.519 7.77l16.334 24.501 16.333-24.5c3.245-4.866 8.672-7.771 14.519-7.771h113.535c5.595 0 10.147-4.552 10.147-10.147v-145.153c0-5.595-4.552-10.147-10.147-10.147z" fill="#052a75"/></g></g></g><g/><g/><g/><g/><g/><g/><g/><g/><g/><g/><g/><g/><g/><g/><g/></svg>