<svg id="Capa_1" enable-background="new 0 0 512.001 512.001" viewBox="0 0 512.001 512.001" xmlns="http://www.w3.org/2000/svg"><g><g><g><g><path d="m502.001 84.99v223.017c0 12.652-10.706 23.003-23.79 23.003h-444.42c-13.085 0-23.791-10.352-23.791-23.003v-223.017c0-12.652 10.706-23.003 23.791-23.003h444.419c13.085 0 23.791 10.352 23.791 23.003z" fill="#fff"/></g><g fill="#d2dcfd"><path d="m132.714 93.286v2.036c-3.302 7.793-5.05 16.231-5.05 24.759s1.748 16.965 5.05 24.759v54.848c-13.028 11.205-22.07 26.833-24.872 44.331l-13.929 86.993h324.175l-13.928-86.993c-2.802-17.498-11.842-33.124-24.873-44.33v-54.849c3.302-7.793 5.05-16.231 5.05-24.759s-1.747-16.966-5.05-24.759v-2.035c0-10.812-1.404-21.3-4.03-31.299h-238.513c-2.626 9.998-4.03 20.487-4.03 31.298z"/><path d="m297.897 381.36h-87.901c-10.464 0-18.947-8.483-18.947-18.947v-31.401h125.796v31.401c-.001 10.464-8.484 18.947-18.948 18.947z"/></g></g><g><path d="m339.287 267.008h-166.573v-173.722c0-45.998 37.289-83.286 83.286-83.286 45.998 0 83.286 37.289 83.286 83.286v173.722z" fill="#d46b5c"/></g><g><g><path d="m280.06 174.094 9.643 34.317 50.992 14.799c12.565 3.646 21.899 14.213 23.967 27.132l12.916 80.669h-243.155l12.916-80.669c2.068-12.919 11.403-23.485 23.967-27.132l50.992-14.799 9.643-34.317z" fill="#fdcb50"/><g><path d="m289.703 208.411-9.643-34.317h-48.119l-9.643 34.317c13.253 28.78 54.153 28.78 67.405 0z" fill="#fdbeb9"/></g><g><path d="m320.961 96.683c12.91 0 23.376 10.476 23.376 23.398 0 12.922-10.466 23.398-23.376 23.398h-129.921c-12.91 0-23.376-10.476-23.376-23.398 0-12.922 10.466-23.398 23.376-23.398z" fill="#fd7da0"/></g><path d="m256.163 183.965c-28.544 0-51.683-23.139-51.683-51.683v-35.6c15.672 0 30.464-7.243 40.074-19.622l11.358-14.63 11.858 14.992c9.622 12.165 24.28 19.26 39.791 19.26h.284v35.6c0 28.544-23.139 51.683-51.682 51.683z" fill="#fdbeb9"/></g></g></g><g><g><g><path d="m256.163 512c-5.523 0-10-4.477-10-10v-118.298c0-5.523 4.477-10 10-10 5.522 0 10 4.477 10 10v118.298c0 5.523-4.478 10-10 10z" fill="#93b2f4"/></g><g><path d="m153.904 512.001c-1.738 0-3.497-.453-5.099-1.405-4.748-2.821-6.31-8.957-3.488-13.705l70.293-118.298c2.822-4.749 8.959-6.31 13.705-3.488 4.748 2.821 6.31 8.957 3.488 13.705l-70.293 118.298c-1.869 3.146-5.194 4.893-8.606 4.893z" fill="#93b2f4"/></g><g><path d="m358.422 512.001c-3.412 0-6.737-1.747-8.606-4.893l-70.293-118.298c-2.821-4.748-1.26-10.884 3.488-13.705 4.748-2.822 10.885-1.258 13.705 3.488l70.293 118.298c2.821 4.748 1.26 10.884-3.488 13.705-1.602.952-3.363 1.405-5.099 1.405z" fill="#93b2f4"/></g><g fill="#93b2f4"><path d="m51.669 179.001c-5.523 0-10 4.477-10 10v53.58c0 5.523 4.477 10 10 10s10-4.477 10-10v-53.58c0-5.523-4.477-10-10-10z"/><circle cx="51.669" cy="150.421" r="10"/></g><g><path d="m347.353 454.979h-186.814c-5.523 0-10-4.477-10-10s4.477-10 10-10h186.814c5.522 0 10 4.477 10 10s-4.477 10-10 10z" fill="#6864f7"/></g></g><path d="m478.211 51.987h-138.581c-15.261-30.777-47.012-51.987-83.629-51.987s-68.369 21.21-83.63 51.987h-138.58c-18.632 0-33.791 14.806-33.791 33.004v223.017c0 18.198 15.158 33.003 33.791 33.003h147.257v21.402c0 15.961 12.986 28.947 28.947 28.947h87.901c15.962 0 28.947-12.986 28.947-28.947v-21.402h151.366c18.632 0 33.79-14.805 33.79-33.003v-223.017c.002-18.199-15.156-33.004-33.788-33.004zm-332.06 269.024 11.062-69.088c1.45-9.053 8.076-16.554 16.88-19.109l43.491-12.622c8.714 12.392 22.783 19.805 38.416 19.805 15.632 0 29.701-7.413 38.416-19.805l43.491 12.622c8.805 2.556 15.432 10.057 16.881 19.109l11.061 69.088zm106.302-237.818 3.532-4.55 3.942 4.983c9.55 12.074 23.02 19.906 37.918 22.288v26.369c0 22.984-18.699 41.683-41.683 41.683s-41.683-18.699-41.683-41.683v-26.413c14.978-2.461 28.463-10.425 37.974-22.677zm68.508 23.49c7.376 0 13.376 6.01 13.376 13.398s-6 13.398-13.376 13.398h-3.146c.008-.399.03-26.796.03-26.796zm-23.133 93.673-5.167-18.388c9.682-7.131 17.219-17.012 21.432-28.49 4.629-.007 10.807.257 15.194-1.052v57.06zm-106.788-46.877h7.193c4.174 11.372 11.609 21.182 21.162 28.298l-5.221 18.58-31.46 9.131v-57.06c2.663.685 5.453 1.051 8.326 1.051zm46.513 37.61c5.875 1.864 12.126 2.875 18.61 2.875 6.375 0 12.526-.972 18.315-2.776l4.514 16.065c-4.92 8.034-13.286 12.742-22.991 12.742s-18.071-4.709-22.99-12.743zm-43.042-57.61h-3.47c-7.375 0-13.376-6.01-13.376-13.398s6-13.398 13.376-13.398h3.44c-.001 0 .022 26.396.03 26.796zm134.54-45.799c-2.592-.648-5.301-.998-8.09-.998h-13.115-.284c-12.53 0-24.175-5.636-31.948-15.464l-9.612-12.153v-38.365c33.872 4.644 60.426 32.512 63.049 66.98zm-83.05-66.98v38.191l-9.345 12.037c-7.773 10.012-19.5 15.754-32.175 15.754h-13.44c-2.79 0-5.498.349-8.09.997 2.622-34.467 29.177-62.335 63.05-66.979zm-226 287.307v-223.016c0-7.17 6.187-13.004 13.791-13.004h131.378c-1.604 6.844-2.456 13.974-2.456 21.299v9.16c-3.196 5.122-5.05 11.164-5.05 17.634s1.854 12.512 5.05 17.634v78.04c-13.257 6.006-22.912 18.408-25.249 33.006l-11.568 72.25h-92.106c-7.604.001-13.79-5.833-13.79-13.003zm286.843 54.406c0 4.934-4.014 8.947-8.947 8.947h-87.901c-4.934 0-8.947-4.014-8.947-8.947v-21.402h105.796v21.402zm185.157-54.406c0 7.17-6.187 13.003-13.79 13.003h-92.106l-11.567-72.25c-2.337-14.598-11.993-27-25.25-33.006v-78.04c3.196-5.122 5.05-11.164 5.05-17.634s-1.854-12.512-5.05-17.634v-9.161c0-7.326-.852-14.456-2.456-21.299h131.38c7.604 0 13.79 5.833 13.79 13.004v223.017z" fill="#052a75"/></g></g><g/><g/><g/><g/><g/><g/><g/><g/><g/><g/><g/><g/><g/><g/><g/></svg>