<svg id="Capa_1" enable-background="new 0 0 512 512" viewBox="0 0 512 512" xmlns="http://www.w3.org/2000/svg"><g><g><g><path d="m447.5 114.531h-383c-12.911 0-23.378 10.467-23.378 23.378v294.866h429.756v-294.866c0-12.911-10.467-23.378-23.378-23.378z" fill="#fff"/><path d="m84.658 315.011-18.855 117.764h380.395l-18.855-117.764c-4.932-30.799-27.474-56.318-57.43-65.012l-26.043-7.558c34.681-2.516 62.129-31.537 62.129-66.848v-17.577c0-16.375-5.853-31.638-15.964-43.486h-268.069c-10.111 11.847-15.964 27.111-15.964 43.486v17.577c0 35.311 27.448 64.332 62.129 66.848l-26.044 7.559c-29.955 8.694-52.497 34.212-57.429 65.011z" fill="#d2dcfd"/><path d="m487.313 419.215h-462.626c-8.112 0-14.687 6.576-14.687 14.687v.145c0 26.64 21.596 48.236 48.236 48.236h395.527c26.64 0 48.236-21.596 48.236-48.236v-.145c.001-8.111-6.575-14.687-14.686-14.687z" fill="#93b2f4"/></g><g><path d="m349.026 159.176h-186.052v-36.433c0-51.377 41.649-93.026 93.026-93.026 51.377 0 93.026 41.649 93.026 93.026z" fill="#fdcb50"/></g><g><path d="m387.845 321.335c-2.51-15.675-13.835-28.496-29.081-32.92l-61.871-17.956-11.701-41.639h-58.385l-11.701 41.639-61.871 17.956c-15.245 4.425-26.571 17.245-29.081 32.92l-15.672 97.88h295.033z" fill="#67ccd1"/><path d="m215.107 270.459 11.7-41.639h58.386l11.7 41.639-40.893 53.558z" fill="#d46b5c"/><path d="m338.972 202.619h-165.944c-14.926 0-27.025-12.1-27.025-27.025v-17.577c0-14.926 12.1-27.025 27.025-27.025h165.945c14.926 0 27.025 12.1 27.025 27.025v17.577c0 14.925-12.1 27.025-27.026 27.025z" fill="#93b2f4"/><path d="m256 122.417c-18.263 0-35.352-4.991-50.01-13.657-6.749 9.806-10.707 21.681-10.707 34.485v36.639c0 33.642 27.272 60.914 60.914 60.914 33.642 0 60.914-27.272 60.914-60.914v-36.639c0-12.874-4.004-24.808-10.821-34.645-14.721 8.766-31.913 13.817-50.29 13.817z" fill="#d46b5c"/><g fill="#27a2cc"><path d="m178.812 280.992 12.538 42.239c4.269 14.382 20.34 21.59 33.92 15.214l30.73-14.428-40.893-53.558z"/><path d="m296.893 270.459-40.893 53.558 30.729 14.428c13.58 6.376 29.651-.832 33.92-15.214l12.538-42.239z"/></g></g></g><g><g><path d="m256 427.123c-5.522 0-10-4.477-10-10v-93.105c0-5.523 4.478-10 10-10s10 4.477 10 10v93.105c0 5.523-4.478 10-10 10z" fill="#27a2cc"/></g><g><path d="m339.761 251.72c-2.56 0-5.118-.976-7.071-2.929-3.905-3.905-3.905-10.237 0-14.143 6.812-6.812 10.564-15.87 10.564-25.504v-8.904c0-5.523 4.478-10 10-10s10 4.477 10 10v8.904c0 14.977-5.832 29.056-16.422 39.646-1.953 1.954-4.512 2.93-7.071 2.93z" fill="#93b2f4"/></g><path d="m487.312 409.215h-6.435v-271.306c0-18.405-14.974-33.378-33.378-33.378h-90.085c-8.623-48.153-50.818-84.814-101.414-84.814s-92.791 36.661-101.415 84.814h-90.085c-18.404 0-33.378 14.973-33.378 33.378v271.306h-6.435c-13.612 0-24.687 11.075-24.687 24.687v.145c0 32.112 26.125 58.236 58.236 58.236h395.527c32.111 0 58.236-26.125 58.236-58.236v-.145c.001-13.612-11.074-24.687-24.687-24.687zm-26.434-271.306v271.306h-48.836l-14.323-89.46c-3.105-19.397-17.303-35.468-36.168-40.943l-56.533-16.407-7.092-25.235c8.801-6.428 16.064-14.829 21.146-24.55h19.901c20.416 0 37.025-16.609 37.025-37.025v-17.577c0-13.029-6.77-24.499-16.972-31.099v-2.386h88.474c7.377-.002 13.378 6 13.378 13.376zm-304.876 20.108c0-9.388 7.638-17.025 17.025-17.025h12.298c-.023.75-.042 38.892-.042 38.892 0 4.349.415 8.601 1.168 12.735h-13.424c-9.388 0-17.025-7.638-17.025-17.025zm49.281-14.772c0-7.368 1.568-14.542 4.583-21.131 14.377 6.764 30.139 10.303 46.134 10.303 16.122 0 31.998-3.591 46.457-10.452 3.062 6.63 4.653 13.855 4.653 21.28v36.639c0 28.074-22.84 50.914-50.914 50.914-28.073 0-50.913-22.84-50.913-50.914zm150.715 14.772v17.577c0 9.388-7.638 17.025-17.025 17.025h-13.03c.753-4.135 1.168-8.386 1.168-12.735 0 0-.019-38.142-.042-38.892h11.905c9.386 0 17.024 7.637 17.024 17.025zm-55.313 123.955 20.052 5.82-9.675 32.594c-1.204 4.059-4.111 7.38-7.975 9.113-3.861 1.734-8.275 1.695-12.108-.105l-19.509-9.16zm-44.489-31.175c8.288 0 16.243-1.443 23.642-4.067l6.078 21.629-29.916 39.18-29.916-39.181 6.112-21.75c7.5 2.706 15.579 4.189 24 4.189zm-44.881 31.175 29.214 38.262-19.509 9.16c-3.832 1.8-8.246 1.838-12.108.105-3.863-1.732-6.771-5.054-7.975-9.113l-9.675-32.594zm-39.261 11.394 9.71 32.711c2.865 9.652 9.777 17.55 18.963 21.67 4.5 2.019 9.313 3.026 14.125 3.026 5.011 0 10.021-1.093 14.669-3.276l26.479-12.432 26.479 12.432c4.649 2.183 9.657 3.276 14.669 3.276 4.811 0 9.625-1.008 14.125-3.026 9.186-4.12 16.098-12.018 18.963-21.67l9.71-32.711 16.031 4.653c11.473 3.329 20.105 13.102 21.994 24.897l13.817 86.298h-271.576l13.817-86.298c1.889-11.796 10.521-21.568 21.994-24.898zm83.946-253.649c45.194 0 82.043 36.302 82.982 81.275-.003 0-.006 0-.009 0h-15.441c-2.11-6.381-5.127-12.466-9.023-18.088-2.994-4.32-8.821-5.586-13.337-2.896-13.63 8.118-29.25 12.409-45.172 12.409-15.814 0-31.348-4.241-44.921-12.265-4.523-2.675-10.348-1.391-13.326 2.939-3.833 5.569-6.805 11.591-8.892 17.901h-15.834c-.003 0-.006 0-.009 0 .939-44.973 37.788-81.275 82.982-81.275zm-204.878 98.192c0-7.376 6.001-13.378 13.378-13.378h88.474v2.386c-10.201 6.601-16.972 18.071-16.972 31.099v17.577c0 20.416 16.609 37.025 37.025 37.025h20.295c5.019 9.601 12.163 17.92 20.817 24.317l-7.157 25.469-56.533 16.407c-18.865 5.475-33.062 21.546-36.168 40.943l-14.323 89.46h-48.836zm440.878 296.138c0 21.083-17.152 38.236-38.236 38.236h-395.528c-21.084 0-38.236-17.153-38.236-38.236v-.145c0-2.584 2.103-4.688 4.688-4.688h462.625c2.585 0 4.688 2.103 4.688 4.688v.145z" fill="#052a75"/></g></g><g/><g/><g/><g/><g/><g/><g/><g/><g/><g/><g/><g/><g/><g/><g/></svg>